<svg class="typst-doc" viewBox="0 0 155.2264566929134 172.1224566929134" width="155.2264566929134pt" height="172.1224566929134pt" xmlns="http://www.w3.org/2000/svg" xmlns:xlink="http://www.w3.org/1999/xlink" xmlns:h5="http://www.w3.org/1999/xhtml">
    <path class="typst-shape" fill="#ffffff" fill-rule="nonzero" d="M 0 0v 172.12245 h 155.22646 v -172.12245 Z "/>
    <g>
        <g class="typst-group" transform="matrix(1 0 0 1 14.173228346456693 14.173228346456693)">
            <g>
                <path class="typst-shape" fill="#000000" fill-rule="nonzero" d="M 0 0m 0 5 c 0 -2.7614238 2.2385762 -5 5 -5 h 116.88 c 2.7614288 0 5 2.2385762 5 5 v 133.776 c 0 2.7614288 -2.2385712 5 -5 5 h -116.88 c -2.7614238 0 -5 -2.2385712 -5 -5 Z "/>
                <g class="typst-group" transform="matrix(1 0 0 1 8 19.616)">
                    <g/>
                </g>
                <g class="typst-group" transform="matrix(1 0 0 1 8 19.616)">
                    <g/>
                </g>
                <g class="typst-group" transform="matrix(1 0 0 1 8 8)">
                    <g>
                        <g class="typst-text" transform="matrix(1 0 0 -1 0 8.976000000000003)">
                            <use xlink:href="#gDADECD4BE5364B2713B1FE327BAB0BD3" x="21.12" y="0" fill="#ff0000" fill-rule="nonzero"/>
                            <use xlink:href="#gBAC9D87E2F0FD46689EF3845170B46DE" x="26.400000000000002" y="0" fill="#ff0000" fill-rule="nonzero"/>
                            <use xlink:href="#gEF0B6B1233554B795917B457FEDA4832" x="31.680000000000003" y="0" fill="#ff0000" fill-rule="nonzero"/>
                            <use xlink:href="#gEB20B197638B23C20845973F58CB19AC" x="42.24" y="0" fill="#ff0000" fill-rule="nonzero"/>
                            <use xlink:href="#gAA916D20060123FCDF49DDE23FB7E4B3" x="47.52" y="0" fill="#ff0000" fill-rule="nonzero"/>
                        </g>
                    </g>
                </g>
                <g class="typst-group" transform="matrix(1 0 0 1 71.36000000000001 8)">
                    <g>
                        <g class="typst-text" transform="matrix(1 0 0 -1 0 8.976000000000003)">
                            <use xlink:href="#gAA916D20060123FCDF49DDE23FB7E4B3" x="5.28" y="0" fill="#ffff00" fill-rule="nonzero"/>
                            <use xlink:href="#g65C20901014E2C31CCAF4A465C8576C1" x="21.12" y="0" fill="#ffff00" fill-rule="nonzero"/>
                            <use xlink:href="#gEB20B197638B23C20845973F58CB19AC" x="26.400000000000002" y="0" fill="#ffff00" fill-rule="nonzero"/>
                        </g>
                    </g>
                </g>
                <g class="typst-group" transform="matrix(1 0 0 1 118.88000000000001 8)">
                    <g/>
                </g>
                <g class="typst-group">
                    <g>
                        <g class="typst-group" transform="matrix(1 0 0 1 8 31.232)">
                            <g/>
                        </g>
                        <g class="typst-group" transform="matrix(1 0 0 1 8 31.232)">
                            <g/>
                        </g>
                        <g class="typst-group" transform="matrix(1 0 0 1 8 31.232)">
                            <g/>
                        </g>
                        <g class="typst-group" transform="matrix(1 0 0 1 8 19.616)">
                            <g>
                                <g class="typst-text" transform="matrix(1 0 0 -1 0 8.976000000000003)">
                                    <use xlink:href="#gEB20B197638B23C20845973F58CB19AC" x="21.12" y="0" fill="#ff0000" fill-rule="nonzero"/>
                                    <use xlink:href="#gB3CB5C71C376FEAC35A5CE3E9D70B056" x="26.400000000000002" y="0" fill="#ff0000" fill-rule="nonzero"/>
                                    <use xlink:href="#gF9D31F08CF713FA33A044CE9199C2BD0" x="31.680000000000003" y="0" fill="#ff0000" fill-rule="nonzero"/>
                                    <use xlink:href="#g48D32C86791098B8FBB2A4189AB7FAA5" x="36.96" y="0" fill="#ff0000" fill-rule="nonzero"/>
                                    <use xlink:href="#gBAC9D87E2F0FD46689EF3845170B46DE" x="42.24" y="0" fill="#ff0000" fill-rule="nonzero"/>
                                </g>
                            </g>
                        </g>
                        <g class="typst-group" transform="matrix(1 0 0 1 66.08000000000001 19.616)">
                            <g>
                                <g class="typst-text" transform="matrix(1 0 0 -1 0 8.976000000000003)">
                                    <use xlink:href="#g4EE50823DE1072B888352BF5ED93E90B" x="0" y="0" fill="#ffff00" fill-rule="nonzero"/>
                                    <use xlink:href="#g361F303F8230C64E864DF8C4F1A5A1AA" x="10.56" y="0" fill="#ffff00" fill-rule="nonzero"/>
                                    <use xlink:href="#gBAC9D87E2F0FD46689EF3845170B46DE" x="15.84" y="0" fill="#ffff00" fill-rule="nonzero"/>
                                    <use xlink:href="#gAA916D20060123FCDF49DDE23FB7E4B3" x="21.12" y="0" fill="#ffff00" fill-rule="nonzero"/>
                                    <use xlink:href="#gD7A02C1C897F9E3A321398548C8C8B03" x="26.400000000000002" y="0" fill="#ffff00" fill-rule="nonzero"/>
                                    <use xlink:href="#gD7A02C1C897F9E3A321398548C8C8B03" x="31.680000000000003" y="0" fill="#ffff00" fill-rule="nonzero"/>
                                </g>
                            </g>
                        </g>
                        <g class="typst-group" transform="matrix(1 0 0 1 118.88000000000001 19.616)">
                            <g/>
                        </g>
                    </g>
                </g>
                <g class="typst-group">
                    <g>
                        <g class="typst-group" transform="matrix(1 0 0 1 8 42.848000000000006)">
                            <g/>
                        </g>
                        <g class="typst-group" transform="matrix(1 0 0 1 8 42.848000000000006)">
                            <g/>
                        </g>
                        <g class="typst-group" transform="matrix(1 0 0 1 8 42.848000000000006)">
                            <g/>
                        </g>
                        <g class="typst-group" transform="matrix(1 0 0 1 8 31.232000000000003)">
                            <g>
                                <g class="typst-text" transform="matrix(1 0 0 -1 0 8.976000000000003)">
                                    <use xlink:href="#g553CA0615203AE7EF2B51E16776E3FE0" x="15.84" y="0" fill="#ff0000" fill-rule="nonzero"/>
                                    <use xlink:href="#gA40CBF0FFDD069C46DF04320D0CE76E2" x="26.400000000000002" y="0" fill="#ff0000" fill-rule="nonzero"/>
                                    <use xlink:href="#gF9D31F08CF713FA33A044CE9199C2BD0" x="42.24" y="0" fill="#ff0000" fill-rule="nonzero"/>
                                </g>
                            </g>
                        </g>
                        <g class="typst-group" transform="matrix(1 0 0 1 60.80000000000001 31.232000000000003)">
                            <g>
                                <g class="typst-text" transform="matrix(1 0 0 -1 0 8.976000000000003)">
                                    <use xlink:href="#gD7BC2388059FC0B3DF9C32F4768A0A47" x="0" y="0" fill="#ffff00" fill-rule="nonzero"/>
                                    <use xlink:href="#gF9D31F08CF713FA33A044CE9199C2BD0" x="5.28" y="0" fill="#ffff00" fill-rule="nonzero"/>
                                    <use xlink:href="#gFD5E24C590020160A507FE1B2B955D0E" x="21.12" y="0" fill="#ffff00" fill-rule="nonzero"/>
                                    <use xlink:href="#g48D32C86791098B8FBB2A4189AB7FAA5" x="26.400000000000002" y="0" fill="#ffff00" fill-rule="nonzero"/>
                                    <use xlink:href="#gA40CBF0FFDD069C46DF04320D0CE76E2" x="36.96" y="0" fill="#ffff00" fill-rule="nonzero"/>
                                </g>
                            </g>
                        </g>
                        <g class="typst-group" transform="matrix(1 0 0 1 118.88000000000001 31.232000000000003)">
                            <g/>
                        </g>
                    </g>
                </g>
                <g class="typst-group">
                    <g>
                        <g class="typst-group" transform="matrix(1 0 0 1 8 54.464000000000006)">
                            <g/>
                        </g>
                        <g class="typst-group" transform="matrix(1 0 0 1 8 54.464000000000006)">
                            <g/>
                        </g>
                        <g class="typst-group" transform="matrix(1 0 0 1 8 54.464000000000006)">
                            <g/>
                        </g>
                        <g class="typst-group" transform="matrix(1 0 0 1 8 42.848000000000006)">
                            <g>
                                <g class="typst-text" transform="matrix(1 0 0 -1 0 8.976000000000003)">
                                    <use xlink:href="#gEB20B197638B23C20845973F58CB19AC" x="15.84" y="0" fill="#0000ff" fill-rule="nonzero"/>
                                </g>
                            </g>
                        </g>
                        <g class="typst-group" transform="matrix(1 0 0 1 29.12 42.848000000000006)">
                            <g>
                                <g class="typst-text" transform="matrix(1 0 0 -1 0 8.976000000000003)">
                                    <use xlink:href="#gF9D31F08CF713FA33A044CE9199C2BD0" x="0" y="0" fill="#ff0000" fill-rule="nonzero"/>
                                    <use xlink:href="#gFD5E24C590020160A507FE1B2B955D0E" x="5.28" y="0" fill="#ff0000" fill-rule="nonzero"/>
                                    <use xlink:href="#g48D32C86791098B8FBB2A4189AB7FAA5" x="10.56" y="0" fill="#ff0000" fill-rule="nonzero"/>
                                    <use xlink:href="#gEB20B197638B23C20845973F58CB19AC" x="15.84" y="0" fill="#ff0000" fill-rule="nonzero"/>
                                </g>
                            </g>
                        </g>
                        <g class="typst-group" transform="matrix(1 0 0 1 60.800000000000004 42.848000000000006)">
                            <g>
                                <g class="typst-text" transform="matrix(1 0 0 -1 0 8.976000000000003)">
                                    <use xlink:href="#g553CA0615203AE7EF2B51E16776E3FE0" x="0" y="0" fill="#ffff00" fill-rule="nonzero"/>
                                </g>
                            </g>
                        </g>
                        <g class="typst-group" transform="matrix(1 0 0 1 76.64 42.848000000000006)">
                            <g>
                                <g class="typst-text" transform="matrix(1 0 0 -1 0 8.976000000000003)">
                                    <use xlink:href="#gAA916D20060123FCDF49DDE23FB7E4B3" x="0" y="0" fill="#00ff00" fill-rule="nonzero"/>
                                    <use xlink:href="#gB3CB5C71C376FEAC35A5CE3E9D70B056" x="5.28" y="0" fill="#00ff00" fill-rule="nonzero"/>
                                    <use xlink:href="#gAA916D20060123FCDF49DDE23FB7E4B3" x="10.56" y="0" fill="#00ff00" fill-rule="nonzero"/>
                                    <use xlink:href="#gEB20B197638B23C20845973F58CB19AC" x="15.84" y="0" fill="#00ff00" fill-rule="nonzero"/>
                                    <use xlink:href="#gAA916D20060123FCDF49DDE23FB7E4B3" x="21.12" y="0" fill="#00ff00" fill-rule="nonzero"/>
                                </g>
                            </g>
                        </g>
                        <g class="typst-group" transform="matrix(1 0 0 1 118.88000000000001 42.848000000000006)">
                            <g/>
                        </g>
                    </g>
                </g>
                <g class="typst-group">
                    <g>
                        <g class="typst-group" transform="matrix(1 0 0 1 8 66.08000000000001)">
                            <g/>
                        </g>
                        <g class="typst-group" transform="matrix(1 0 0 1 8 66.08000000000001)">
                            <g/>
                        </g>
                        <g class="typst-group" transform="matrix(1 0 0 1 8 66.08000000000001)">
                            <g/>
                        </g>
                        <g class="typst-group" transform="matrix(1 0 0 1 8 54.464000000000006)">
                            <g>
                                <g class="typst-text" transform="matrix(1 0 0 -1 0 8.976000000000003)">
                                    <use xlink:href="#g8D75FB073A7E7BB5ADF4E483BC2F0799" x="10.56" y="0" fill="#0000ff" fill-rule="nonzero"/>
                                    <use xlink:href="#gD7A02C1C897F9E3A321398548C8C8B03" x="15.84" y="0" fill="#0000ff" fill-rule="nonzero"/>
                                    <use xlink:href="#gBAC9D87E2F0FD46689EF3845170B46DE" x="21.12" y="0" fill="#0000ff" fill-rule="nonzero"/>
                                    <use xlink:href="#g7F30B59DCAF383D6B34C412A1FA2300E" x="26.400000000000002" y="0" fill="#0000ff" fill-rule="nonzero"/>
                                </g>
                            </g>
                        </g>
                        <g class="typst-group" transform="matrix(1 0 0 1 55.52000000000001 54.464000000000006)">
                            <g>
                                <g class="typst-text" transform="matrix(1 0 0 -1 0 8.976000000000003)">
                                    <use xlink:href="#gF9D31F08CF713FA33A044CE9199C2BD0" x="0" y="0" fill="#ff0000" fill-rule="nonzero"/>
                                </g>
                            </g>
                        </g>
                        <g class="typst-group" transform="matrix(1 0 0 1 71.36000000000001 54.464000000000006)">
                            <g>
                                <g class="typst-text" transform="matrix(1 0 0 -1 0 8.976000000000003)">
                                    <use xlink:href="#gF9D31F08CF713FA33A044CE9199C2BD0" x="0" y="0" fill="#00ff00" fill-rule="nonzero"/>
                                    <use xlink:href="#g553CA0615203AE7EF2B51E16776E3FE0" x="26.400000000000002" y="0" fill="#00ff00" fill-rule="nonzero"/>
                                    <use xlink:href="#gA40CBF0FFDD069C46DF04320D0CE76E2" x="36.96" y="0" fill="#00ff00" fill-rule="nonzero"/>
                                </g>
                            </g>
                        </g>
                        <g class="typst-group" transform="matrix(1 0 0 1 118.88000000000001 54.464000000000006)">
                            <g/>
                        </g>
                    </g>
                </g>
                <g class="typst-group">
                    <g>
                        <g class="typst-group" transform="matrix(1 0 0 1 8 77.696)">
                            <g/>
                        </g>
                        <g class="typst-group" transform="matrix(1 0 0 1 8 77.696)">
                            <g/>
                        </g>
                        <g class="typst-group" transform="matrix(1 0 0 1 8 77.696)">
                            <g/>
                        </g>
                        <g class="typst-group" transform="matrix(1 0 0 1 8 66.08)">
                            <g>
                                <g class="typst-text" transform="matrix(1 0 0 -1 0 8.976000000000003)">
                                    <use xlink:href="#g553CA0615203AE7EF2B51E16776E3FE0" x="0" y="0" fill="#0000ff" fill-rule="nonzero"/>
                                    <use xlink:href="#gA40CBF0FFDD069C46DF04320D0CE76E2" x="10.56" y="0" fill="#0000ff" fill-rule="nonzero"/>
                                    <use xlink:href="#gBAC9D87E2F0FD46689EF3845170B46DE" x="21.12" y="0" fill="#0000ff" fill-rule="nonzero"/>
                                    <use xlink:href="#gEB20B197638B23C20845973F58CB19AC" x="42.24" y="0" fill="#0000ff" fill-rule="nonzero"/>
                                    <use xlink:href="#g4EE50823DE1072B888352BF5ED93E90B" x="47.52" y="0" fill="#0000ff" fill-rule="nonzero"/>
                                </g>
                            </g>
                        </g>
                        <g class="typst-group" transform="matrix(1 0 0 1 71.36000000000001 66.08)">
                            <g>
                                <g class="typst-text" transform="matrix(1 0 0 -1 0 8.976000000000003)">
                                    <use xlink:href="#g553CA0615203AE7EF2B51E16776E3FE0" x="0" y="0" fill="#00ffff" fill-rule="nonzero"/>
                                    <use xlink:href="#gEB20B197638B23C20845973F58CB19AC" x="5.28" y="0" fill="#00ffff" fill-rule="nonzero"/>
                                </g>
                            </g>
                        </g>
                        <g class="typst-group" transform="matrix(1 0 0 1 92.48000000000002 66.08)">
                            <g>
                                <g class="typst-text" transform="matrix(1 0 0 -1 0 8.976000000000003)">
                                    <use xlink:href="#gEB20B197638B23C20845973F58CB19AC" x="0" y="0" fill="#00ff00" fill-rule="nonzero"/>
                                    <use xlink:href="#gBAC9D87E2F0FD46689EF3845170B46DE" x="5.28" y="0" fill="#00ff00" fill-rule="nonzero"/>
                                    <use xlink:href="#gF9D31F08CF713FA33A044CE9199C2BD0" x="10.56" y="0" fill="#00ff00" fill-rule="nonzero"/>
                                    <use xlink:href="#gAA916D20060123FCDF49DDE23FB7E4B3" x="15.84" y="0" fill="#00ff00" fill-rule="nonzero"/>
                                    <use xlink:href="#g866CA4113798A6B82FC3659CB153531B" x="21.12" y="0" fill="#00ff00" fill-rule="nonzero"/>
                                </g>
                            </g>
                        </g>
                        <g class="typst-group" transform="matrix(1 0 0 1 118.88000000000001 66.08)">
                            <g/>
                        </g>
                    </g>
                </g>
                <g class="typst-group">
                    <g>
                        <g class="typst-group" transform="matrix(1 0 0 1 8 89.31200000000001)">
                            <g/>
                        </g>
                        <g class="typst-group" transform="matrix(1 0 0 1 8 89.31200000000001)">
                            <g/>
                        </g>
                        <g class="typst-group" transform="matrix(1 0 0 1 8 89.31200000000001)">
                            <g/>
                        </g>
                        <g class="typst-group" transform="matrix(1 0 0 1 8 77.69600000000001)">
                            <g>
                                <g class="typst-text" transform="matrix(1 0 0 -1 0 8.976000000000003)">
                                    <use xlink:href="#g48D32C86791098B8FBB2A4189AB7FAA5" x="15.84" y="0" fill="#0000ff" fill-rule="nonzero"/>
                                    <use xlink:href="#gA40CBF0FFDD069C46DF04320D0CE76E2" x="26.400000000000002" y="0" fill="#0000ff" fill-rule="nonzero"/>
                                    <use xlink:href="#g48D32C86791098B8FBB2A4189AB7FAA5" x="31.680000000000003" y="0" fill="#0000ff" fill-rule="nonzero"/>
                                    <use xlink:href="#gFD5E24C590020160A507FE1B2B955D0E" x="36.96" y="0" fill="#0000ff" fill-rule="nonzero"/>
                                </g>
                            </g>
                        </g>
                        <g class="typst-group" transform="matrix(1 0 0 1 55.52000000000001 77.69600000000001)">
                            <g>
                                <g class="typst-text" transform="matrix(1 0 0 -1 0 8.976000000000003)">
                                    <use xlink:href="#gAA916D20060123FCDF49DDE23FB7E4B3" x="0" y="0" fill="#00ffff" fill-rule="nonzero"/>
                                    <use xlink:href="#gD7BC2388059FC0B3DF9C32F4768A0A47" x="21.12" y="0" fill="#00ffff" fill-rule="nonzero"/>
                                    <use xlink:href="#gAA916D20060123FCDF49DDE23FB7E4B3" x="26.400000000000002" y="0" fill="#00ffff" fill-rule="nonzero"/>
                                </g>
                            </g>
                        </g>
                        <g class="typst-group" transform="matrix(1 0 0 1 92.48 77.69600000000001)">
                            <g>
                                <g class="typst-text" transform="matrix(1 0 0 -1 0 8.976000000000003)">
                                    <use xlink:href="#gD7BC2388059FC0B3DF9C32F4768A0A47" x="0" y="0" fill="#00ff00" fill-rule="nonzero"/>
                                    <use xlink:href="#gBAC9D87E2F0FD46689EF3845170B46DE" x="5.28" y="0" fill="#00ff00" fill-rule="nonzero"/>
                                    <use xlink:href="#gD7A02C1C897F9E3A321398548C8C8B03" x="15.84" y="0" fill="#00ff00" fill-rule="nonzero"/>
                                    <use xlink:href="#gD7A02C1C897F9E3A321398548C8C8B03" x="21.12" y="0" fill="#00ff00" fill-rule="nonzero"/>
                                </g>
                            </g>
                        </g>
                        <g class="typst-group" transform="matrix(1 0 0 1 118.88000000000001 77.69600000000001)">
                            <g/>
                        </g>
                    </g>
                </g>
                <g class="typst-group" transform="matrix(1 0 0 1 8 100.92800000000001)">
                    <g/>
                </g>
                <g class="typst-group" transform="matrix(1 0 0 1 8 100.92800000000001)">
                    <g/>
                </g>
                <g class="typst-group" transform="matrix(1 0 0 1 8 100.92800000000001)">
                    <g/>
                </g>
                <g class="typst-group" transform="matrix(1 0 0 1 8 89.31200000000001)">
                    <g>
                        <g class="typst-text" transform="matrix(1 0 0 -1 0 8.976000000000003)">
                            <use xlink:href="#g48D32C86791098B8FBB2A4189AB7FAA5" x="36.96" y="0" fill="#00ffff" fill-rule="nonzero"/>
                            <use xlink:href="#gA40CBF0FFDD069C46DF04320D0CE76E2" x="47.52" y="0" fill="#00ffff" fill-rule="nonzero"/>
                            <use xlink:href="#g48D32C86791098B8FBB2A4189AB7FAA5" x="52.800000000000004" y="0" fill="#00ffff" fill-rule="nonzero"/>
                            <use xlink:href="#g34F9A16B4E8FD5AA002F5AB712E7DDF8" x="63.36000000000001" y="0" fill="#00ffff" fill-rule="nonzero"/>
                            <use xlink:href="#gBAC9D87E2F0FD46689EF3845170B46DE" x="68.64" y="0" fill="#00ffff" fill-rule="nonzero"/>
                            <use xlink:href="#gD7BC2388059FC0B3DF9C32F4768A0A47" x="73.92" y="0" fill="#00ffff" fill-rule="nonzero"/>
                        </g>
                    </g>
                </g>
                <g class="typst-group" transform="matrix(1 0 0 1 118.87999999999998 89.31200000000001)">
                    <g/>
                </g>
                <g class="typst-group" transform="matrix(1 0 0 1 8 112.54400000000001)">
                    <g/>
                </g>
                <g class="typst-group" transform="matrix(1 0 0 1 8 112.54400000000001)">
                    <g/>
                </g>
                <g class="typst-group" transform="matrix(1 0 0 1 8 112.54400000000001)">
                    <g/>
                </g>
                <g class="typst-group" transform="matrix(1 0 0 1 8 100.92800000000001)">
                    <g>
                        <g class="typst-text" transform="matrix(1 0 0 -1 0 8.976000000000003)">
                            <use xlink:href="#gA40CBF0FFDD069C46DF04320D0CE76E2" x="52.800000000000004" y="0" fill="#00ffff" fill-rule="nonzero"/>
                            <use xlink:href="#g553CA0615203AE7EF2B51E16776E3FE0" x="58.080000000000005" y="0" fill="#00ffff" fill-rule="nonzero"/>
                            <use xlink:href="#gFD5E24C590020160A507FE1B2B955D0E" x="63.36000000000001" y="0" fill="#00ffff" fill-rule="nonzero"/>
                            <use xlink:href="#gFD5E24C590020160A507FE1B2B955D0E" x="68.64" y="0" fill="#00ffff" fill-rule="nonzero"/>
                        </g>
                    </g>
                </g>
                <g class="typst-group" transform="matrix(1 0 0 1 118.87999999999998 100.92800000000001)">
                    <g/>
                </g>
                <g class="typst-group" transform="matrix(1 0 0 1 8 124.16000000000001)">
                    <g/>
                </g>
                <g class="typst-group" transform="matrix(1 0 0 1 8 124.16000000000001)">
                    <g/>
                </g>
                <g class="typst-group" transform="matrix(1 0 0 1 8 124.16000000000001)">
                    <g/>
                </g>
                <g class="typst-group" transform="matrix(1 0 0 1 8 112.54400000000001)">
                    <g>
                        <g class="typst-text" transform="matrix(1 0 0 -1 0 8.976000000000003)">
                            <use xlink:href="#gF9D31F08CF713FA33A044CE9199C2BD0" x="47.52" y="0" fill="#00ffff" fill-rule="nonzero"/>
                            <use xlink:href="#gFD5E24C590020160A507FE1B2B955D0E" x="52.800000000000004" y="0" fill="#00ffff" fill-rule="nonzero"/>
                            <use xlink:href="#gF9D31F08CF713FA33A044CE9199C2BD0" x="58.080000000000005" y="0" fill="#00ffff" fill-rule="nonzero"/>
                        </g>
                    </g>
                </g>
                <g class="typst-group" transform="matrix(1 0 0 1 118.87999999999998 112.54400000000001)">
                    <g/>
                </g>
                <g class="typst-group" transform="matrix(1 0 0 1 8 124.16000000000001)">
                    <g/>
                </g>
                <g class="typst-group" transform="matrix(1 0 0 1 8 135.77600000000004)">
                    <g/>
                </g>
            </g>
        </g>
    </g>
    <defs id="glyph">
        <symbol id="gDADECD4BE5364B2713B1FE327BAB0BD3" overflow="visible">
            <path d="M 0 0m 3.8896 -0.97679996 q -0.7744 0 -1.2232001 0.42679995 q -0.4488001 0.4268 -0.37839985 1.1396 l 0.13199997 1.3376 q 0.03519988 0.36080015 -0.12320018 0.54560006 q -0.15839982 0.18479991 -0.54559994 0.18479991 h -1.1439999 v 1.0120001 h 1.1439999 q 0.38720012 0 0.54559994 0.18479991 q 0.15840006 0.18479991 0.12320018 0.53680015 l -0.13199997 1.3815999 q -0.07040024 0.69519997 0.37839985 1.1132002 q 0.4488001 0.41799974 1.2232001 0.41799974 h 0.6071999 v -1.0120001 h -0.4488001 q -0.3255999 0 -0.5015998 -0.16279984 q -0.17600012 -0.16279984 -0.15840006 -0.4619999 l 0.13199997 -1.3727999 q 0.04399991 -0.44880033 -0.23320007 -0.74360013 q -0.27719998 -0.29480004 -0.8227999 -0.36520004 q 0.54559994 -0.07920003 0.8227999 -0.38720012 q 0.27719998 -0.30799985 0.23320007 -0.76559997 l -0.13199997 -1.3728 q -0.02640009 -0.29039997 0.15400004 -0.45319998 q 0.1803999 -0.1628 0.5059998 -0.1628 h 0.4488001 v -1.0208 h -0.6071999 Z "/>
        </symbol>
        <symbol id="gBAC9D87E2F0FD46689EF3845170B46DE" overflow="visible">
            <path d="M 0 0m 0.6776 0 l 0.29919994 1.6719999 h -0.6688 v 0.74800014 h 0.79200006 l 0.27279997 1.5840001 h -0.7568 v 0.74799967 h 0.88879997 l 0.29920006 1.6719999 h 0.7743999 l -0.29919982 -1.6719999 h 1.2495999 l 0.29920006 1.6719999 h 0.77439976 l -0.29920006 -1.6719999 h 0.66880035 v -0.74799967 h -0.8008003 l -0.27279973 -1.5840001 h 0.76559997 v -0.74800014 h -0.8976002 l -0.2903998 -1.6719999 h -0.7744 l 0.29919982 1.6719999 h -1.2584 l -0.2903999 -1.6719999 h -0.7744 Z m 1.1968 2.42 h 1.2496 l 0.27279997 1.5840001 h -1.2495999 l -0.2728001 -1.5840001 Z "/>
        </symbol>
        <symbol id="gEF0B6B1233554B795917B457FEDA4832" overflow="visible">
            <path d="M 0 0m 2.86 -1.584 q -0.7919998 0 -1.3683999 0.31239998 q -0.57640004 0.31239998 -0.8888 0.8844 q -0.3124 0.572 -0.3124 1.364 v 2.9832 q 0 0.7919998 0.29919997 1.3639998 q 0.29920006 0.572 0.8536 0.8800001 q 0.55439997 0.3080001 1.3288001 0.3080001 q 0.704 0 1.2099998 -0.2684002 q 0.50600004 -0.26839972 0.7788 -0.74800014 q 0.27279997 -0.47959995 0.27279997 -1.1131997 v -2.376 q 0 -0.7040001 -0.4091997 -1.1132002 q -0.4092002 -0.40919998 -1.1044002 -0.40919998 q -0.68639994 0 -1.0868001 0.4004 q -0.40039992 0.40040004 -0.40039992 1.078 v 0.9416001 q 0 0.65999985 0.3080001 1.0383999 q 0.30799985 0.37839985 0.8448 0.37839985 q 0.36080003 0 0.5983999 -0.14960003 q 0.23759985 -0.14960003 0.31680012 -0.41359973 h 0.01760006 v 0.62479997 q 0 0.6423998 -0.35200024 0.9899998 q -0.35199976 0.34759998 -1.0295999 0.34759998 q -0.72160006 0 -1.1264 -0.4619999 q -0.40479994 -0.4619999 -0.40479994 -1.2979999 v -2.9832 q 0 -0.81839997 0.43559992 -1.2716 q 0.43559992 -0.45320004 1.2188 -0.45320004 h 0.9680002 v -0.83599997 h -0.9680002 Z m 0.6600001 2.7984 q 0.29040003 0 0.44440007 0.19799995 q 0.15400004 0.19799995 0.15400004 0.54999995 v 0.9416001 q 0 0.36080003 -0.15400004 0.55439997 q -0.15400004 0.19359994 -0.44440007 0.19359994 q -0.29040003 0 -0.44440007 -0.19799995 q -0.15400004 -0.19799995 -0.15400004 -0.54999995 v -0.9416001 q 0 -0.352 0.15400004 -0.54999995 q 0.15400004 -0.19799995 0.44440007 -0.19799995 Z "/>
        </symbol>
        <symbol id="gEB20B197638B23C20845973F58CB19AC" overflow="visible">
            <path d="M 0 0m 2.6399999 -0.088 q -0.36959982 0 -0.59399986 0.2244 q -0.22440004 0.2244 -0.22440004 0.5852 q 0 0.36079997 0.22440004 0.5896 q 0.22440004 0.22879994 0.59399986 0.22879994 q 0.36960006 0 0.5940001 -0.22879994 q 0.22440004 -0.22880006 0.22440004 -0.5896 q 0 -0.3608 -0.22440004 -0.5852 q -0.22440004 -0.2244 -0.5940001 -0.2244 Z "/>
        </symbol>
        <symbol id="gAA916D20060123FCDF49DDE23FB7E4B3" overflow="visible">
            <path d="M 0 0m 1.6719999 -1.408 l 0.46640015 2.6928 h 1.2584 l -0.6688001 -2.6928 h -1.056 Z "/>
        </symbol>
        <symbol id="g65C20901014E2C31CCAF4A465C8576C1" overflow="visible">
            <path d="M 0 0m 2.9392 0.4928 l -3.9424 1.8568001 v 1.0999999 l 3.9424 1.8567998 v -1.0119996 l -2.552 -1.1792002 q -0.176 -0.07920003 -0.34759998 -0.13639998 q -0.1716 -0.057200193 -0.2684 -0.074800014 q 0.0968 -0.01760006 0.2728 -0.0704 q 0.176 -0.05280018 0.3432 -0.13199997 l 2.552 -1.1792 v -1.0296 Z m -10.2432 -0.5808 q -0.3696003 0 -0.59399986 0.2244 q -0.22440052 0.2244 -0.22440052 0.5852 q 0 0.36079997 0.22440052 0.5896 q 0.22439957 0.22879994 0.59399986 0.22879994 q 0.36959982 0 0.59399986 -0.22879994 q 0.22440004 -0.22880006 0.22440004 -0.5896 q 0 -0.3608 -0.22440004 -0.5852 q -0.22440004 -0.2244 -0.59399986 -0.2244 Z m 3.872 0 q -0.36960006 0 -0.5940001 0.2244 q -0.22440004 0.2244 -0.22440004 0.5852 q 0 0.36079997 0.22440004 0.5896 q 0.22440004 0.22879994 0.5940001 0.22879994 q 0.36960006 0 0.59399986 -0.22879994 q 0.22440004 -0.22880006 0.22440004 -0.5896 q 0 -0.3608 -0.22440004 -0.5852 q -0.2243998 -0.2244 -0.59399986 -0.2244 Z "/>
        </symbol>
        <symbol id="gB3CB5C71C376FEAC35A5CE3E9D70B056" overflow="visible">
            <path d="M 0 0m 0.528 -1.2144 v 0.9944 h 4.224 v -0.9944 h -4.224 Z "/>
        </symbol>
        <symbol id="gF9D31F08CF713FA33A044CE9199C2BD0" overflow="visible">
            <path d="M 0 0m 2.2792 5.676 l -1.0208001 1.2319999 h 1.2144 l 0.9416001 -1.2319999 h -1.1352 Z "/>
        </symbol>
        <symbol id="g48D32C86791098B8FBB2A4189AB7FAA5" overflow="visible">
            <path d="M 0 0m 0.7216 3.476 v 1.0119998 h 3.8368 v -1.0119998 h -3.8368 Z m 0 -2.1560001 v 1.0120001 h 3.8368 v -1.0120001 h -3.8368 Z "/>
        </symbol>
        <symbol id="g4EE50823DE1072B888352BF5ED93E90B" overflow="visible">
            <path d="M 0 0m 0.528 -0.968 l 3.08 8.272 h 1.1439998 l -3.08 -8.272 h -1.1439999 Z "/>
        </symbol>
        <symbol id="g361F303F8230C64E864DF8C4F1A5A1AA" overflow="visible">
            <path d="M 0 0m -4.6024 0 l 0.29920006 1.6719999 h -0.66880035 v 0.74800014 h 0.7920003 l 0.27279997 1.5840001 h -0.7568002 v 0.74799967 h 0.88880014 l 0.29919982 1.6719999 h 0.7744 l -0.29919982 -1.6719999 h 1.2495999 l 0.29919994 1.6719999 h 0.7744 l -0.29919994 -1.6719999 h 0.6688 v -0.74799967 h -0.80079997 l -0.2728001 -1.5840001 h 0.7656 v -0.74800014 h -0.8976 l -0.29040003 -1.6719999 h -0.7743999 l 0.29919982 1.6719999 h -1.2584 l -0.29040003 -1.6719999 h -0.77439976 Z m 5.3064 3.8016 v 1.0208001 h 3.8720002 v -1.0208001 h -3.8720002 Z m -4.1096 -1.3815999 h 1.2496002 l 0.27279997 1.5840001 h -1.2496002 l -0.27279997 -1.5840001 Z m 4.1096 -0.81840014 v 1.0208001 h 3.8720002 v -1.0208001 h -3.8720002 Z "/>
        </symbol>
        <symbol id="gD7A02C1C897F9E3A321398548C8C8B03" overflow="visible">
            <path d="M 0 0m 1.0912 3.784 l -0.07920003 2.6399999 h 1.1792 l -0.0704 -2.6399999 h -1.0296 Z m 2.0767999 0 l -0.07920003 2.6399999 h 1.1792002 l -0.07040024 -2.6399999 h -1.0295999 Z "/>
        </symbol>
        <symbol id="g553CA0615203AE7EF2B51E16776E3FE0" overflow="visible">
            <path d="M 0 0m 3.5992 -0.968 l -3.0712 8.272 h 1.1439999 l 3.0712 -8.272 h -1.1439998 Z "/>
        </symbol>
        <symbol id="gA40CBF0FFDD069C46DF04320D0CE76E2" overflow="visible">
            <path d="M 0 0m -4.3384 0 l 0.29040003 1.6719999 h -0.6687999 v 0.74800014 h 0.80079985 l 0.27279997 1.5840001 h -0.7656002 v 0.74799967 h 0.88880014 l 0.3080001 1.6719999 h 0.76559997 l -0.29920006 -1.6719999 h 1.2495999 l 0.3080001 1.6719999 h 0.76559997 l -0.2992 -1.6719999 h 1.9535999 l 0.30799997 1.6719999 h 0.76559997 l -0.29919982 -1.6719999 h 1.2495999 l 0.30799985 1.6719999 h 0.76559997 l -0.29920006 -1.6719999 h 0.66880035 v -0.74799967 h -0.8008001 l -0.2728002 -1.5840001 h 0.7656002 v -0.74800014 h -0.88880014 l -0.29920006 -1.6719999 h -0.76559997 l 0.29040003 1.6719999 h -1.2495999 l -0.29920006 -1.6719999 h -0.76559997 l 0.2904 1.6719999 h -1.9535999 l -0.29920006 -1.6719999 h -0.76559997 l 0.29040003 1.6719999 h -1.2496002 l -0.29919982 -1.6719999 h -0.76559997 Z m 1.188 2.42 h 1.2584 l 0.27279997 1.5840001 h -1.2584 l -0.27279997 -1.5840001 Z m 2.024 0 h 1.9624 l 0.27279997 1.5840001 h -1.9624 l -0.27279997 -1.5840001 Z m 2.728 0 h 1.2584 l 0.2728002 1.5840001 h -1.2584001 l -0.2728001 -1.5840001 Z "/>
        </symbol>
        <symbol id="gD7BC2388059FC0B3DF9C32F4768A0A47" overflow="visible">
            <path d="M 0 0m 2.0856 -0.968 v 8.272 h 1.1088002 v -8.272 h -1.1088002 Z "/>
        </symbol>
        <symbol id="gFD5E24C590020160A507FE1B2B955D0E" overflow="visible">
            <path d="M 0 0m 2.1296 3.784 l -0.07920003 2.6399999 h 1.1791999 l -0.0704 -2.6399999 h -1.0295999 Z "/>
        </symbol>
        <symbol id="g8D75FB073A7E7BB5ADF4E483BC2F0799" overflow="visible">
            <path d="M 0 0m -1.9272 -0.088 q -0.36959994 0 -0.594 0.2244 q -0.22440004 0.2244 -0.22440004 0.5852 q 0 0.36079997 0.22440004 0.5896 q 0.22440004 0.22879994 0.594 0.22879994 q 0.36959994 0 0.594 -0.22879994 q 0.22440004 -0.22880006 0.22440004 -0.5896 q 0 -0.3608 -0.22440004 -0.5852 q -0.22440004 -0.2244 -0.594 -0.2244 Z m 3.8632 0 q -0.36959994 0 -0.594 0.2244 q -0.22440004 0.2244 -0.22440004 0.5852 q 0 0.36079997 0.22440004 0.5896 q 0.22440004 0.22879994 0.594 0.22879994 q 0.36959994 0 0.594 -0.22879994 q 0.22440004 -0.22880006 0.22440004 -0.5896 q 0 -0.3608 -0.22440004 -0.5852 q -0.22440004 -0.2244 -0.594 -0.2244 Z "/>
        </symbol>
        <symbol id="g7F30B59DCAF383D6B34C412A1FA2300E" overflow="visible">
            <path d="M 0 0m 1.232 2.3936 v 1.0208001 h 2.816 v -1.0208001 h -2.816 Z "/>
        </symbol>
        <symbol id="g866CA4113798A6B82FC3659CB153531B" overflow="visible">
            <path d="M 0 0m 2.0944 0.8096 v 1.584 h -1.5752 v 1.0208001 h 1.5752 v 1.5839996 h 1.0912001 v -1.5839996 h 1.5751998 v -1.0208001 h -1.5751998 v -1.584 h -1.0912001 Z "/>
        </symbol>
        <symbol id="g34F9A16B4E8FD5AA002F5AB712E7DDF8" overflow="visible">
            <path d="M 0 0m -2.7016 0.8096 v 1.584 h -1.5752001 v 1.0208001 h 1.5752001 v 1.5839996 h 1.0912001 v -1.5839996 h 3.2208 v 1.5839996 h 1.0912001 v -1.5839996 h 1.5752001 v -1.0208001 h -1.5752001 v -1.584 h -1.0912001 v 1.584 h -3.2208 v -1.584 h -1.0912001 Z "/>
        </symbol>
    </defs>
</svg>
