<svg class="typst-doc" viewBox="0 0 107.70645669291339 125.6584566929134" width="107.70645669291339pt" height="125.6584566929134pt" xmlns="http://www.w3.org/2000/svg" xmlns:xlink="http://www.w3.org/1999/xlink" xmlns:h5="http://www.w3.org/1999/xhtml">
    <path class="typst-shape" fill="#ffffff" fill-rule="nonzero" d="M 0 0v 125.658455 h 107.70646 v -125.658455 Z "/>
    <g>
        <g class="typst-group" transform="matrix(1 0 0 1 14.173228346456693 14.173228346456693)">
            <g>
                <path class="typst-shape" fill="#000000" fill-rule="nonzero" d="M 0 0m 0 5 c 0 -2.7614238 2.2385762 -5 5 -5 h 69.36 c 2.7614212 0 5 2.2385762 5 5 v 87.312 c 0 2.7614288 -2.2385788 5 -5 5 h -69.36 c -2.7614238 0 -5 -2.2385712 -5 -5 Z "/>
                <g class="typst-group" transform="matrix(1 0 0 1 8 19.616)">
                    <g/>
                </g>
                <g class="typst-group" transform="matrix(1 0 0 1 8 19.616)">
                    <g/>
                </g>
                <g class="typst-group" transform="matrix(1 0 0 1 8 8)">
                    <g>
                        <g class="typst-text" transform="matrix(1 0 0 -1 0 8.976000000000003)">
                            <use xlink:href="#g329E1E5C86563E90D78395271BEF269" x="21.12" y="0" fill="#0000ff" fill-rule="nonzero"/>
                            <use xlink:href="#g329E1E5C86563E90D78395271BEF269" x="36.96" y="0" fill="#0000ff" fill-rule="nonzero"/>
                        </g>
                    </g>
                </g>
                <g class="typst-group" transform="matrix(1 0 0 1 71.36000000000001 8)">
                    <g/>
                </g>
                <g class="typst-group">
                    <g>
                        <g class="typst-group" transform="matrix(1 0 0 1 8 31.232)">
                            <g/>
                        </g>
                        <g class="typst-group" transform="matrix(1 0 0 1 8 31.232)">
                            <g/>
                        </g>
                        <g class="typst-group" transform="matrix(1 0 0 1 8 19.616)">
                            <g>
                                <g class="typst-text" transform="matrix(1 0 0 -1 0 8.976000000000003)">
                                    <use xlink:href="#g4EE50823DE1072B888352BF5ED93E90B" x="10.56" y="0" fill="#0000ff" fill-rule="nonzero"/>
                                </g>
                            </g>
                        </g>
                        <g class="typst-group" transform="matrix(1 0 0 1 23.840000000000003 19.616)">
                            <g>
                                <g class="typst-text" transform="matrix(1 0 0 -1 0 8.976000000000003)">
                                    <use xlink:href="#g4EE50823DE1072B888352BF5ED93E90B" x="0" y="0" fill="#ffffff" fill-rule="nonzero"/>
                                </g>
                            </g>
                        </g>
                        <g class="typst-group" transform="matrix(1 0 0 1 34.4 19.616)">
                            <g>
                                <g class="typst-text" transform="matrix(1 0 0 -1 0 8.976000000000003)">
                                    <use xlink:href="#g553CA0615203AE7EF2B51E16776E3FE0" x="0" y="0" fill="#0000ff" fill-rule="nonzero"/>
                                    <use xlink:href="#g553CA0615203AE7EF2B51E16776E3FE0" x="15.84" y="0" fill="#0000ff" fill-rule="nonzero"/>
                                </g>
                            </g>
                        </g>
                        <g class="typst-group" transform="matrix(1 0 0 1 71.36000000000001 19.616)">
                            <g/>
                        </g>
                    </g>
                </g>
                <g class="typst-group">
                    <g>
                        <g class="typst-group" transform="matrix(1 0 0 1 8 42.848000000000006)">
                            <g/>
                        </g>
                        <g class="typst-group" transform="matrix(1 0 0 1 8 42.848000000000006)">
                            <g/>
                        </g>
                        <g class="typst-group" transform="matrix(1 0 0 1 8 31.232000000000003)">
                            <g>
                                <g class="typst-text" transform="matrix(1 0 0 -1 0 8.976000000000003)">
                                    <use xlink:href="#g4EE50823DE1072B888352BF5ED93E90B" x="5.28" y="0" fill="#0000ff" fill-rule="nonzero"/>
                                </g>
                            </g>
                        </g>
                        <g class="typst-group" transform="matrix(1 0 0 1 18.56 31.232000000000003)">
                            <g>
                                <g class="typst-text" transform="matrix(1 0 0 -1 0 8.976000000000003)">
                                    <use xlink:href="#g4EE50823DE1072B888352BF5ED93E90B" x="0" y="0" fill="#ffffff" fill-rule="nonzero"/>
                                </g>
                            </g>
                        </g>
                        <g class="typst-group" transform="matrix(1 0 0 1 39.68000000000001 31.232000000000003)">
                            <g>
                                <g class="typst-text" transform="matrix(1 0 0 -1 0 8.976000000000003)">
                                    <use xlink:href="#g553CA0615203AE7EF2B51E16776E3FE0" x="0" y="0" fill="#0000ff" fill-rule="nonzero"/>
                                    <use xlink:href="#g553CA0615203AE7EF2B51E16776E3FE0" x="15.84" y="0" fill="#0000ff" fill-rule="nonzero"/>
                                </g>
                            </g>
                        </g>
                        <g class="typst-group" transform="matrix(1 0 0 1 71.36000000000001 31.232000000000003)">
                            <g/>
                        </g>
                    </g>
                </g>
                <g class="typst-group">
                    <g>
                        <g class="typst-group" transform="matrix(1 0 0 1 8 54.464000000000006)">
                            <g/>
                        </g>
                        <g class="typst-group" transform="matrix(1 0 0 1 8 54.464000000000006)">
                            <g/>
                        </g>
                        <g class="typst-group" transform="matrix(1 0 0 1 8 42.848000000000006)">
                            <g>
                                <g class="typst-text" transform="matrix(1 0 0 -1 0 8.976000000000003)">
                                    <use xlink:href="#g4EE50823DE1072B888352BF5ED93E90B" x="0" y="0" fill="#0000ff" fill-rule="nonzero"/>
                                </g>
                            </g>
                        </g>
                        <g class="typst-group" transform="matrix(1 0 0 1 13.28 42.848000000000006)">
                            <g>
                                <g class="typst-text" transform="matrix(1 0 0 -1 0 8.976000000000003)">
                                    <use xlink:href="#g411C4DD6819AEB24427ECE171647BDC0" x="5.28" y="0" fill="#ffffff" fill-rule="nonzero"/>
                                </g>
                            </g>
                        </g>
                        <g class="typst-group" transform="matrix(1 0 0 1 44.96 42.848000000000006)">
                            <g>
                                <g class="typst-text" transform="matrix(1 0 0 -1 0 8.976000000000003)">
                                    <use xlink:href="#g553CA0615203AE7EF2B51E16776E3FE0" x="0" y="0" fill="#0000ff" fill-rule="nonzero"/>
                                    <use xlink:href="#g553CA0615203AE7EF2B51E16776E3FE0" x="15.84" y="0" fill="#0000ff" fill-rule="nonzero"/>
                                </g>
                            </g>
                        </g>
                        <g class="typst-group" transform="matrix(1 0 0 1 71.36000000000001 42.848000000000006)">
                            <g/>
                        </g>
                    </g>
                </g>
                <g class="typst-group">
                    <g>
                        <g class="typst-group" transform="matrix(1 0 0 1 8 66.08000000000001)">
                            <g/>
                        </g>
                        <g class="typst-group" transform="matrix(1 0 0 1 8 66.08000000000001)">
                            <g/>
                        </g>
                        <g class="typst-group" transform="matrix(1 0 0 1 8 66.08000000000001)">
                            <g/>
                        </g>
                        <g class="typst-group" transform="matrix(1 0 0 1 8 54.464000000000006)">
                            <g>
                                <g class="typst-text" transform="matrix(1 0 0 -1 0 8.976000000000003)">
                                    <use xlink:href="#g411C4DD6819AEB24427ECE171647BDC0" x="5.28" y="0" fill="#ffffff" fill-rule="nonzero"/>
                                </g>
                            </g>
                        </g>
                        <g class="typst-group" transform="matrix(1 0 0 1 50.24 54.464000000000006)">
                            <g>
                                <g class="typst-text" transform="matrix(1 0 0 -1 0 8.976000000000003)">
                                    <use xlink:href="#g553CA0615203AE7EF2B51E16776E3FE0" x="0" y="0" fill="#0000ff" fill-rule="nonzero"/>
                                    <use xlink:href="#g553CA0615203AE7EF2B51E16776E3FE0" x="15.84" y="0" fill="#0000ff" fill-rule="nonzero"/>
                                </g>
                            </g>
                        </g>
                        <g class="typst-group" transform="matrix(1 0 0 1 71.36000000000001 54.464000000000006)">
                            <g/>
                        </g>
                    </g>
                </g>
                <g class="typst-group" transform="matrix(1 0 0 1 8 77.69600000000001)">
                    <g/>
                </g>
                <g class="typst-group" transform="matrix(1 0 0 1 8 77.69600000000001)">
                    <g/>
                </g>
                <g class="typst-group" transform="matrix(1 0 0 1 8 66.08)">
                    <g>
                        <g class="typst-text" transform="matrix(1 0 0 -1 0 8.976000000000003)"/>
                    </g>
                </g>
                <g class="typst-group" transform="matrix(1 0 0 1 55.52000000000001 66.08)">
                    <g>
                        <g class="typst-text" transform="matrix(1 0 0 -1 0 8.976000000000003)">
                            <use xlink:href="#g553CA0615203AE7EF2B51E16776E3FE0" x="0" y="0" fill="#0000ff" fill-rule="nonzero"/>
                        </g>
                    </g>
                </g>
                <g class="typst-group" transform="matrix(1 0 0 1 71.36000000000001 66.08)">
                    <g/>
                </g>
                <g class="typst-group" transform="matrix(1 0 0 1 8 77.69600000000001)">
                    <g/>
                </g>
                <g class="typst-group" transform="matrix(1 0 0 1 8 89.31200000000001)">
                    <g/>
                </g>
            </g>
        </g>
    </g>
    <defs id="glyph">
        <symbol id="g329E1E5C86563E90D78395271BEF269" overflow="visible">
            <path d="M 0 0m -3.7048 -0.968 l 3.0623999 8.272 h 1.2848 l 3.0623999 -8.272 h -1.1439998 l -2.3232 6.3096 l -0.2376 0.77440023 l -0.2376 -0.77440023 l -2.3056 -6.3096 h -1.1615999 Z "/>
        </symbol>
        <symbol id="g4EE50823DE1072B888352BF5ED93E90B" overflow="visible">
            <path d="M 0 0m 0.528 -0.968 l 3.08 8.272 h 1.1439998 l -3.08 -8.272 h -1.1439999 Z "/>
        </symbol>
        <symbol id="g553CA0615203AE7EF2B51E16776E3FE0" overflow="visible">
            <path d="M 0 0m 3.5992 -0.968 l -3.0712 8.272 h 1.1439999 l 3.0712 -8.272 h -1.1439998 Z "/>
        </symbol>
        <symbol id="g411C4DD6819AEB24427ECE171647BDC0" overflow="visible">
            <path d="M 0 0m -0.132 -0.968 l 3.08 8.272 h 1.144 l -3.08 -8.272 h -1.1439999 Z m -3.96 0 l 3.08 8.272 h 1.1439999 l -3.08 -8.272 h -1.144 Z "/>
        </symbol>
    </defs>
</svg>
