<svg class="typst-doc" viewBox="0 0 144.66645669291339 125.6584566929134" width="144.66645669291339pt" height="125.6584566929134pt" xmlns="http://www.w3.org/2000/svg" xmlns:xlink="http://www.w3.org/1999/xlink" xmlns:h5="http://www.w3.org/1999/xhtml">
    <path class="typst-shape" fill="#ffffff" fill-rule="nonzero" d="M 0 0v 125.658455 h 144.66646 v -125.658455 Z "/>
    <g>
        <g class="typst-group" transform="matrix(1 0 0 1 14.173228346456693 14.173228346456693)">
            <g>
                <path class="typst-shape" fill="#000000" fill-rule="nonzero" d="M 0 0m 0 5 c 0 -2.7614238 2.2385762 -5 5 -5 h 106.32 c 2.7614212 0 5 2.2385762 5 5 v 87.312 c 0 2.7614288 -2.2385788 5 -5 5 h -106.32 c -2.7614238 0 -5 -2.2385712 -5 -5 Z "/>
                <g class="typst-group" transform="matrix(1 0 0 1 8 19.616)">
                    <g/>
                </g>
                <g class="typst-group" transform="matrix(1 0 0 1 8 19.616)">
                    <g/>
                </g>
                <g class="typst-group" transform="matrix(1 0 0 1 8 8)">
                    <g>
                        <g class="typst-text" transform="matrix(1 0 0 -1 0 8.976000000000003)">
                            <use xlink:href="#gF487734A8DAA53A2D2317E425E86F6B1" x="10.56" y="0" fill="#00ff00" fill-rule="nonzero"/>
                            <use xlink:href="#gAA916D20060123FCDF49DDE23FB7E4B3" x="15.84" y="0" fill="#00ff00" fill-rule="nonzero"/>
                            <use xlink:href="#gAA916D20060123FCDF49DDE23FB7E4B3" x="79.2" y="0" fill="#00ff00" fill-rule="nonzero"/>
                            <use xlink:href="#gF487734A8DAA53A2D2317E425E86F6B1" x="84.48" y="0" fill="#00ff00" fill-rule="nonzero"/>
                        </g>
                    </g>
                </g>
                <g class="typst-group" transform="matrix(1 0 0 1 108.32 8)">
                    <g/>
                </g>
                <g class="typst-group" transform="matrix(1 0 0 1 8 31.232000000000003)">
                    <g/>
                </g>
                <g class="typst-group" transform="matrix(1 0 0 1 8 31.232000000000003)">
                    <g/>
                </g>
                <g class="typst-group" transform="matrix(1 0 0 1 8 31.232000000000003)">
                    <g/>
                </g>
                <g class="typst-group" transform="matrix(1 0 0 1 8 19.616)">
                    <g>
                        <g class="typst-text" transform="matrix(1 0 0 -1 0 8.976000000000003)">
                            <use xlink:href="#gFD5E24C590020160A507FE1B2B955D0E" x="15.84" y="0" fill="#00ff00" fill-rule="nonzero"/>
                            <use xlink:href="#gF487734A8DAA53A2D2317E425E86F6B1" x="21.12" y="0" fill="#00ff00" fill-rule="nonzero"/>
                            <use xlink:href="#gAA916D20060123FCDF49DDE23FB7E4B3" x="26.400000000000002" y="0" fill="#00ff00" fill-rule="nonzero"/>
                            <use xlink:href="#gEB20B197638B23C20845973F58CB19AC" x="31.680000000000003" y="0" fill="#00ff00" fill-rule="nonzero"/>
                            <use xlink:href="#g7F30B59DCAF383D6B34C412A1FA2300E" x="36.96" y="0" fill="#00ff00" fill-rule="nonzero"/>
                            <use xlink:href="#g7F30B59DCAF383D6B34C412A1FA2300E" x="42.24" y="0" fill="#00ff00" fill-rule="nonzero"/>
                            <use xlink:href="#g7F30B59DCAF383D6B34C412A1FA2300E" x="47.52" y="0" fill="#00ff00" fill-rule="nonzero"/>
                            <use xlink:href="#g7F30B59DCAF383D6B34C412A1FA2300E" x="52.800000000000004" y="0" fill="#00ff00" fill-rule="nonzero"/>
                            <use xlink:href="#g7F30B59DCAF383D6B34C412A1FA2300E" x="58.080000000000005" y="0" fill="#00ff00" fill-rule="nonzero"/>
                            <use xlink:href="#gEB20B197638B23C20845973F58CB19AC" x="63.36000000000001" y="0" fill="#00ff00" fill-rule="nonzero"/>
                            <use xlink:href="#gAA916D20060123FCDF49DDE23FB7E4B3" x="68.64" y="0" fill="#00ff00" fill-rule="nonzero"/>
                            <use xlink:href="#gF487734A8DAA53A2D2317E425E86F6B1" x="73.92" y="0" fill="#00ff00" fill-rule="nonzero"/>
                            <use xlink:href="#gFD5E24C590020160A507FE1B2B955D0E" x="79.2" y="0" fill="#00ff00" fill-rule="nonzero"/>
                        </g>
                    </g>
                </g>
                <g class="typst-group" transform="matrix(1 0 0 1 108.32 19.616)">
                    <g/>
                </g>
                <g class="typst-group" transform="matrix(1 0 0 1 8 42.848000000000006)">
                    <g/>
                </g>
                <g class="typst-group" transform="matrix(1 0 0 1 8 42.848000000000006)">
                    <g/>
                </g>
                <g class="typst-group" transform="matrix(1 0 0 1 8 42.848000000000006)">
                    <g/>
                </g>
                <g class="typst-group" transform="matrix(1 0 0 1 8 31.232000000000003)">
                    <g>
                        <g class="typst-text" transform="matrix(1 0 0 -1 0 8.976000000000003)">
                            <use xlink:href="#gAA916D20060123FCDF49DDE23FB7E4B3" x="10.56" y="0" fill="#00ff00" fill-rule="nonzero"/>
                            <use xlink:href="#gFD5E24C590020160A507FE1B2B955D0E" x="15.84" y="0" fill="#00ff00" fill-rule="nonzero"/>
                            <use xlink:href="#gFD5E24C590020160A507FE1B2B955D0E" x="79.2" y="0" fill="#00ff00" fill-rule="nonzero"/>
                            <use xlink:href="#gAA916D20060123FCDF49DDE23FB7E4B3" x="84.48" y="0" fill="#00ff00" fill-rule="nonzero"/>
                        </g>
                    </g>
                </g>
                <g class="typst-group" transform="matrix(1 0 0 1 108.32 31.232000000000003)">
                    <g/>
                </g>
                <g class="typst-group" transform="matrix(1 0 0 1 8 54.464000000000006)">
                    <g/>
                </g>
                <g class="typst-group" transform="matrix(1 0 0 1 8 54.464000000000006)">
                    <g/>
                </g>
                <g class="typst-group" transform="matrix(1 0 0 1 8 54.464000000000006)">
                    <g/>
                </g>
                <g class="typst-group" transform="matrix(1 0 0 1 8 42.848000000000006)">
                    <g>
                        <g class="typst-text" transform="matrix(1 0 0 -1 0 8.976000000000003)">
                            <use xlink:href="#g4EE50823DE1072B888352BF5ED93E90B" x="5.28" y="0" fill="#00ff00" fill-rule="nonzero"/>
                            <use xlink:href="#gCD8C839A032AA62331BC15E59B96C0F0" x="31.680000000000003" y="0" fill="#00ff00" fill-rule="nonzero"/>
                            <use xlink:href="#gCD8C839A032AA62331BC15E59B96C0F0" x="63.36000000000001" y="0" fill="#00ff00" fill-rule="nonzero"/>
                            <use xlink:href="#g553CA0615203AE7EF2B51E16776E3FE0" x="89.76" y="0" fill="#00ff00" fill-rule="nonzero"/>
                        </g>
                    </g>
                </g>
                <g class="typst-group" transform="matrix(1 0 0 1 108.32 42.848000000000006)">
                    <g/>
                </g>
                <g class="typst-group" transform="matrix(1 0 0 1 8 66.08)">
                    <g/>
                </g>
                <g class="typst-group" transform="matrix(1 0 0 1 8 66.08)">
                    <g/>
                </g>
                <g class="typst-group" transform="matrix(1 0 0 1 8 66.08)">
                    <g/>
                </g>
                <g class="typst-group" transform="matrix(1 0 0 1 8 54.464000000000006)">
                    <g>
                        <g class="typst-text" transform="matrix(1 0 0 -1 0 8.976000000000003)">
                            <use xlink:href="#gD7BC2388059FC0B3DF9C32F4768A0A47" x="0" y="0" fill="#00ff00" fill-rule="nonzero"/>
                            <use xlink:href="#gD7BC2388059FC0B3DF9C32F4768A0A47" x="95.04" y="0" fill="#00ff00" fill-rule="nonzero"/>
                        </g>
                    </g>
                </g>
                <g class="typst-group" transform="matrix(1 0 0 1 108.32 54.464000000000006)">
                    <g/>
                </g>
                <g class="typst-group" transform="matrix(1 0 0 1 8 77.69600000000001)">
                    <g/>
                </g>
                <g class="typst-group" transform="matrix(1 0 0 1 8 77.69600000000001)">
                    <g/>
                </g>
                <g class="typst-group" transform="matrix(1 0 0 1 8 77.69600000000001)">
                    <g/>
                </g>
                <g class="typst-group" transform="matrix(1 0 0 1 8 66.08)">
                    <g>
                        <g class="typst-text" transform="matrix(1 0 0 -1 0 8.976000000000003)">
                            <use xlink:href="#gFD5E24C590020160A507FE1B2B955D0E" x="0" y="0" fill="#00ff00" fill-rule="nonzero"/>
                            <use xlink:href="#g7F30B59DCAF383D6B34C412A1FA2300E" x="5.28" y="0" fill="#00ff00" fill-rule="nonzero"/>
                            <use xlink:href="#g7F30B59DCAF383D6B34C412A1FA2300E" x="10.56" y="0" fill="#00ff00" fill-rule="nonzero"/>
                            <use xlink:href="#g7F30B59DCAF383D6B34C412A1FA2300E" x="15.84" y="0" fill="#00ff00" fill-rule="nonzero"/>
                            <use xlink:href="#g7F30B59DCAF383D6B34C412A1FA2300E" x="21.12" y="0" fill="#00ff00" fill-rule="nonzero"/>
                            <use xlink:href="#g7F30B59DCAF383D6B34C412A1FA2300E" x="26.400000000000002" y="0" fill="#00ff00" fill-rule="nonzero"/>
                            <use xlink:href="#g7F30B59DCAF383D6B34C412A1FA2300E" x="31.680000000000003" y="0" fill="#00ff00" fill-rule="nonzero"/>
                            <use xlink:href="#g7F30B59DCAF383D6B34C412A1FA2300E" x="36.96" y="0" fill="#00ff00" fill-rule="nonzero"/>
                            <use xlink:href="#g7F30B59DCAF383D6B34C412A1FA2300E" x="42.24" y="0" fill="#00ff00" fill-rule="nonzero"/>
                            <use xlink:href="#g7F30B59DCAF383D6B34C412A1FA2300E" x="47.52" y="0" fill="#00ff00" fill-rule="nonzero"/>
                            <use xlink:href="#g7F30B59DCAF383D6B34C412A1FA2300E" x="52.800000000000004" y="0" fill="#00ff00" fill-rule="nonzero"/>
                            <use xlink:href="#g7F30B59DCAF383D6B34C412A1FA2300E" x="58.080000000000005" y="0" fill="#00ff00" fill-rule="nonzero"/>
                            <use xlink:href="#g7F30B59DCAF383D6B34C412A1FA2300E" x="63.36000000000001" y="0" fill="#00ff00" fill-rule="nonzero"/>
                            <use xlink:href="#g7F30B59DCAF383D6B34C412A1FA2300E" x="68.64" y="0" fill="#00ff00" fill-rule="nonzero"/>
                            <use xlink:href="#g7F30B59DCAF383D6B34C412A1FA2300E" x="73.92" y="0" fill="#00ff00" fill-rule="nonzero"/>
                            <use xlink:href="#g7F30B59DCAF383D6B34C412A1FA2300E" x="79.2" y="0" fill="#00ff00" fill-rule="nonzero"/>
                            <use xlink:href="#g7F30B59DCAF383D6B34C412A1FA2300E" x="84.48" y="0" fill="#00ff00" fill-rule="nonzero"/>
                            <use xlink:href="#g7F30B59DCAF383D6B34C412A1FA2300E" x="89.76" y="0" fill="#00ff00" fill-rule="nonzero"/>
                            <use xlink:href="#gFD5E24C590020160A507FE1B2B955D0E" x="95.04" y="0" fill="#00ff00" fill-rule="nonzero"/>
                        </g>
                    </g>
                </g>
                <g class="typst-group" transform="matrix(1 0 0 1 108.32 66.08)">
                    <g/>
                </g>
                <g class="typst-group" transform="matrix(1 0 0 1 8 77.69600000000001)">
                    <g/>
                </g>
                <g class="typst-group" transform="matrix(1 0 0 1 8 89.31200000000001)">
                    <g/>
                </g>
            </g>
        </g>
    </g>
    <defs id="glyph">
        <symbol id="gF487734A8DAA53A2D2317E425E86F6B1" overflow="visible">
            <path d="M 0 0m 2.552 3.4496 q -0.32560015 0 -0.53240013 0.2112 q -0.20679998 0.2112 -0.20679998 0.5279999 q 0 0.31680012 0.2112 0.5279999 q 0.2112 0.21120024 0.5280001 0.21120024 h 0.17599988 q 0.31680012 0 0.5280001 -0.21120024 q 0.2112 -0.21119976 0.2112 -0.5279999 q 0 -0.31679988 -0.20679998 -0.5279999 q -0.20679998 -0.2112 -0.53240013 -0.2112 h -0.17599988 Z m -0.924 -4.8576 l 0.4663999 2.6928 h 1.2584 l -0.6687999 -2.6928 h -1.056 Z "/>
        </symbol>
        <symbol id="gAA916D20060123FCDF49DDE23FB7E4B3" overflow="visible">
            <path d="M 0 0m 1.6719999 -1.408 l 0.46640015 2.6928 h 1.2584 l -0.6688001 -2.6928 h -1.056 Z "/>
        </symbol>
        <symbol id="gFD5E24C590020160A507FE1B2B955D0E" overflow="visible">
            <path d="M 0 0m 2.1296 3.784 l -0.07920003 2.6399999 h 1.1791999 l -0.0704 -2.6399999 h -1.0295999 Z "/>
        </symbol>
        <symbol id="gEB20B197638B23C20845973F58CB19AC" overflow="visible">
            <path d="M 0 0m 2.6399999 -0.088 q -0.36959982 0 -0.59399986 0.2244 q -0.22440004 0.2244 -0.22440004 0.5852 q 0 0.36079997 0.22440004 0.5896 q 0.22440004 0.22879994 0.59399986 0.22879994 q 0.36960006 0 0.5940001 -0.22879994 q 0.22440004 -0.22880006 0.22440004 -0.5896 q 0 -0.3608 -0.22440004 -0.5852 q -0.22440004 -0.2244 -0.5940001 -0.2244 Z "/>
        </symbol>
        <symbol id="g7F30B59DCAF383D6B34C412A1FA2300E" overflow="visible">
            <path d="M 0 0m 1.232 2.3936 v 1.0208001 h 2.816 v -1.0208001 h -2.816 Z "/>
        </symbol>
        <symbol id="g4EE50823DE1072B888352BF5ED93E90B" overflow="visible">
            <path d="M 0 0m 0.528 -0.968 l 3.08 8.272 h 1.1439998 l -3.08 -8.272 h -1.1439999 Z "/>
        </symbol>
        <symbol id="gCD8C839A032AA62331BC15E59B96C0F0" overflow="visible">
            <path d="M 0 0m 2.6399999 -0.088 q -0.9239999 0 -1.4651998 0.528 q -0.54120004 0.528 -0.54120004 1.4607999 v 2.6224 q 0 0.9327998 0.54120004 1.4608002 q 0.5411999 0.5279999 1.4651998 0.5279999 q 0.924 0 1.4652 -0.5279999 q 0.54120016 -0.52800035 0.54120016 -1.4520001 v -2.6312 q 0 -0.9328 -0.54120016 -1.4607999 q -0.5411999 -0.528 -1.4652 -0.528 Z m 0 0.968 q 0.4488001 0 0.67760015 0.24199998 q 0.22880006 0.24199998 0.22880006 0.69079995 v 2.7984 q 0 0.4488001 -0.22880006 0.6908002 q -0.22880006 0.2420001 -0.67760015 0.2420001 q -0.44879985 0 -0.6775999 -0.2420001 q -0.22879994 -0.2420001 -0.22879994 -0.6908002 v -2.7984 q 0 -0.44879997 0.22879994 -0.69079995 q 0.22880006 -0.24199998 0.6775999 -0.24199998 Z "/>
        </symbol>
        <symbol id="g553CA0615203AE7EF2B51E16776E3FE0" overflow="visible">
            <path d="M 0 0m 3.5992 -0.968 l -3.0712 8.272 h 1.1439999 l 3.0712 -8.272 h -1.1439998 Z "/>
        </symbol>
        <symbol id="gD7BC2388059FC0B3DF9C32F4768A0A47" overflow="visible">
            <path d="M 0 0m 2.0856 -0.968 v 8.272 h 1.1088002 v -8.272 h -1.1088002 Z "/>
        </symbol>
    </defs>
</svg>
