<svg class="typst-doc" viewBox="0 0 149.94645669291342 137.2744566929134" width="149.94645669291342pt" height="137.2744566929134pt" xmlns="http://www.w3.org/2000/svg" xmlns:xlink="http://www.w3.org/1999/xlink" xmlns:h5="http://www.w3.org/1999/xhtml">
    <path class="typst-shape" fill="#ffffff" fill-rule="nonzero" d="M 0 0v 137.27446 h 149.94646 v -137.27446 Z "/>
    <g>
        <g class="typst-group" transform="matrix(1 0 0 1 14.173228346456693 14.173228346456693)">
            <g>
                <path class="typst-shape" fill="#000000" fill-rule="nonzero" d="M 0 0m 0 5 c 0 -2.7614238 2.2385762 -5 5 -5 h 111.6 c 2.7614288 0 5 2.2385762 5 5 v 98.928 c 0 2.7614212 -2.2385712 5 -5 5 h -111.6 c -2.7614238 0 -5 -2.2385788 -5 -5 Z "/>
                <g class="typst-group" transform="matrix(1 0 0 1 8 19.616)">
                    <g/>
                </g>
                <g class="typst-group" transform="matrix(1 0 0 1 8 19.616)">
                    <g/>
                </g>
                <g class="typst-group" transform="matrix(1 0 0 1 8 8)">
                    <g>
                        <g class="typst-text" transform="matrix(1 0 0 -1 0 8.976000000000003)">
                            <use xlink:href="#gEB20B197638B23C20845973F58CB19AC" x="15.84" y="0" fill="#00875f" fill-rule="nonzero"/>
                            <use xlink:href="#gA40CBF0FFDD069C46DF04320D0CE76E2" x="26.400000000000002" y="0" fill="#00875f" fill-rule="nonzero"/>
                            <use xlink:href="#g553CA0615203AE7EF2B51E16776E3FE0" x="31.680000000000003" y="0" fill="#00875f" fill-rule="nonzero"/>
                            <use xlink:href="#gBAC9D87E2F0FD46689EF3845170B46DE" x="36.96" y="0" fill="#00875f" fill-rule="nonzero"/>
                            <use xlink:href="#gBAC9D87E2F0FD46689EF3845170B46DE" x="42.24" y="0" fill="#00875f" fill-rule="nonzero"/>
                            <use xlink:href="#gBAC9D87E2F0FD46689EF3845170B46DE" x="47.52" y="0" fill="#00875f" fill-rule="nonzero"/>
                            <use xlink:href="#gBAC9D87E2F0FD46689EF3845170B46DE" x="52.800000000000004" y="0" fill="#00875f" fill-rule="nonzero"/>
                            <use xlink:href="#gBAC9D87E2F0FD46689EF3845170B46DE" x="58.080000000000005" y="0" fill="#00875f" fill-rule="nonzero"/>
                            <use xlink:href="#g866CA4113798A6B82FC3659CB153531B" x="63.36000000000001" y="0" fill="#00875f" fill-rule="nonzero"/>
                        </g>
                    </g>
                </g>
                <g class="typst-group" transform="matrix(1 0 0 1 92.48 8)">
                    <g>
                        <g class="typst-text" transform="matrix(1 0 0 -1 0 8.976000000000003)">
                            <use xlink:href="#gF2B97E1828C86C53ED55366D14432730" x="0" y="0" fill="#00afaf" fill-rule="nonzero"/>
                        </g>
                    </g>
                </g>
                <g class="typst-group" transform="matrix(1 0 0 1 113.60000000000001 8)">
                    <g/>
                </g>
                <g class="typst-group" transform="matrix(1 0 0 1 8 31.232000000000003)">
                    <g/>
                </g>
                <g class="typst-group" transform="matrix(1 0 0 1 8 31.232000000000003)">
                    <g/>
                </g>
                <g class="typst-group" transform="matrix(1 0 0 1 8 31.232000000000003)">
                    <g/>
                </g>
                <g class="typst-group" transform="matrix(1 0 0 1 8 19.616)">
                    <g>
                        <g class="typst-text" transform="matrix(1 0 0 -1 0 8.976000000000003)">
                            <use xlink:href="#g4EE50823DE1072B888352BF5ED93E90B" x="10.56" y="0" fill="#00875f" fill-rule="nonzero"/>
                            <use xlink:href="#g553CA0615203AE7EF2B51E16776E3FE0" x="15.84" y="0" fill="#00875f" fill-rule="nonzero"/>
                            <use xlink:href="#gA40CBF0FFDD069C46DF04320D0CE76E2" x="26.400000000000002" y="0" fill="#00875f" fill-rule="nonzero"/>
                            <use xlink:href="#gD7A02C1C897F9E3A321398548C8C8B03" x="31.680000000000003" y="0" fill="#00875f" fill-rule="nonzero"/>
                            <use xlink:href="#g553CA0615203AE7EF2B51E16776E3FE0" x="36.96" y="0" fill="#00875f" fill-rule="nonzero"/>
                            <use xlink:href="#g234FC876FD426F781CD111EC289ED323" x="52.800000000000004" y="0" fill="#00875f" fill-rule="nonzero"/>
                            <use xlink:href="#gF9D31F08CF713FA33A044CE9199C2BD0" x="58.080000000000005" y="0" fill="#00875f" fill-rule="nonzero"/>
                        </g>
                    </g>
                </g>
                <g class="typst-group" transform="matrix(1 0 0 1 113.6 19.616)">
                    <g/>
                </g>
                <g class="typst-group">
                    <g>
                        <g class="typst-group" transform="matrix(1 0 0 1 8 42.848000000000006)">
                            <g/>
                        </g>
                        <g class="typst-group" transform="matrix(1 0 0 1 8 42.848000000000006)">
                            <g/>
                        </g>
                        <g class="typst-group" transform="matrix(1 0 0 1 8 42.848000000000006)">
                            <g/>
                        </g>
                        <g class="typst-group" transform="matrix(1 0 0 1 8 31.232000000000003)">
                            <g>
                                <g class="typst-text" transform="matrix(1 0 0 -1 0 8.976000000000003)">
                                    <use xlink:href="#g4EE50823DE1072B888352BF5ED93E90B" x="5.28" y="0" fill="#00875f" fill-rule="nonzero"/>
                                    <use xlink:href="#gFD5E24C590020160A507FE1B2B955D0E" x="10.56" y="0" fill="#00875f" fill-rule="nonzero"/>
                                    <use xlink:href="#gAA916D20060123FCDF49DDE23FB7E4B3" x="15.84" y="0" fill="#00875f" fill-rule="nonzero"/>
                                    <use xlink:href="#g553CA0615203AE7EF2B51E16776E3FE0" x="21.12" y="0" fill="#00875f" fill-rule="nonzero"/>
                                    <use xlink:href="#g4EE50823DE1072B888352BF5ED93E90B" x="26.400000000000002" y="0" fill="#00875f" fill-rule="nonzero"/>
                                </g>
                            </g>
                        </g>
                        <g class="typst-group" transform="matrix(1 0 0 1 81.92000000000002 31.232000000000003)">
                            <g>
                                <g class="typst-text" transform="matrix(1 0 0 -1 0 8.976000000000003)">
                                    <use xlink:href="#g866CA4113798A6B82FC3659CB153531B" x="0" y="0" fill="#00afaf" fill-rule="nonzero"/>
                                    <use xlink:href="#g48D32C86791098B8FBB2A4189AB7FAA5" x="5.28" y="0" fill="#00afaf" fill-rule="nonzero"/>
                                </g>
                            </g>
                        </g>
                        <g class="typst-group" transform="matrix(1 0 0 1 113.60000000000002 31.232000000000003)">
                            <g/>
                        </g>
                    </g>
                </g>
                <g class="typst-group">
                    <g>
                        <g class="typst-group" transform="matrix(1 0 0 1 8 54.464000000000006)">
                            <g/>
                        </g>
                        <g class="typst-group" transform="matrix(1 0 0 1 8 54.464000000000006)">
                            <g/>
                        </g>
                        <g class="typst-group" transform="matrix(1 0 0 1 8 54.464000000000006)">
                            <g/>
                        </g>
                        <g class="typst-group" transform="matrix(1 0 0 1 8 42.848000000000006)">
                            <g>
                                <g class="typst-text" transform="matrix(1 0 0 -1 0 8.976000000000003)">
                                    <use xlink:href="#g7F30B59DCAF383D6B34C412A1FA2300E" x="5.28" y="0" fill="#00875f" fill-rule="nonzero"/>
                                    <use xlink:href="#g3A9C2EE426056B9DC6076237A9EB4D3E" x="15.84" y="0" fill="#00875f" fill-rule="nonzero"/>
                                    <use xlink:href="#gD7BC2388059FC0B3DF9C32F4768A0A47" x="21.12" y="0" fill="#00875f" fill-rule="nonzero"/>
                                </g>
                            </g>
                        </g>
                        <g class="typst-group" transform="matrix(1 0 0 1 81.92000000000002 42.848000000000006)">
                            <g>
                                <g class="typst-text" transform="matrix(1 0 0 -1 0 8.976000000000003)">
                                    <use xlink:href="#g4A697F7B3D2427F4387CA23DB72B4782" x="0" y="0" fill="#00afaf" fill-rule="nonzero"/>
                                    <use xlink:href="#g4A697F7B3D2427F4387CA23DB72B4782" x="5.28" y="0" fill="#00afaf" fill-rule="nonzero"/>
                                    <use xlink:href="#gB3CB5C71C376FEAC35A5CE3E9D70B056" x="21.12" y="0" fill="#00afaf" fill-rule="nonzero"/>
                                </g>
                            </g>
                        </g>
                        <g class="typst-group" transform="matrix(1 0 0 1 113.60000000000002 42.848000000000006)">
                            <g/>
                        </g>
                    </g>
                </g>
                <g class="typst-group">
                    <g>
                        <g class="typst-group" transform="matrix(1 0 0 1 8 66.08000000000001)">
                            <g/>
                        </g>
                        <g class="typst-group" transform="matrix(1 0 0 1 8 66.08000000000001)">
                            <g/>
                        </g>
                        <g class="typst-group" transform="matrix(1 0 0 1 8 66.08000000000001)">
                            <g/>
                        </g>
                        <g class="typst-group" transform="matrix(1 0 0 1 8 54.464000000000006)">
                            <g>
                                <g class="typst-text" transform="matrix(1 0 0 -1 0 8.976000000000003)">
                                    <use xlink:href="#g553CA0615203AE7EF2B51E16776E3FE0" x="5.28" y="0" fill="#00875f" fill-rule="nonzero"/>
                                    <use xlink:href="#g234FC876FD426F781CD111EC289ED323" x="21.12" y="0" fill="#00875f" fill-rule="nonzero"/>
                                    <use xlink:href="#g553CA0615203AE7EF2B51E16776E3FE0" x="26.400000000000002" y="0" fill="#00875f" fill-rule="nonzero"/>
                                </g>
                            </g>
                        </g>
                        <g class="typst-group" transform="matrix(1 0 0 1 97.76 54.464000000000006)">
                            <g>
                                <g class="typst-text" transform="matrix(1 0 0 -1 0 8.976000000000003)">
                                    <use xlink:href="#g234FC876FD426F781CD111EC289ED323" x="10.56" y="0" fill="#00afaf" fill-rule="nonzero"/>
                                </g>
                            </g>
                        </g>
                        <g class="typst-group" transform="matrix(1 0 0 1 113.60000000000001 54.464000000000006)">
                            <g/>
                        </g>
                    </g>
                </g>
                <g class="typst-group" transform="matrix(1 0 0 1 8 77.69600000000001)">
                    <g/>
                </g>
                <g class="typst-group" transform="matrix(1 0 0 1 8 77.69600000000001)">
                    <g/>
                </g>
                <g class="typst-group" transform="matrix(1 0 0 1 8 77.69600000000001)">
                    <g/>
                </g>
                <g class="typst-group" transform="matrix(1 0 0 1 8 66.08)">
                    <g>
                        <g class="typst-text" transform="matrix(1 0 0 -1 0 8.976000000000003)">
                            <use xlink:href="#g553CA0615203AE7EF2B51E16776E3FE0" x="10.56" y="0" fill="#00875f" fill-rule="nonzero"/>
                            <use xlink:href="#gBAC9D87E2F0FD46689EF3845170B46DE" x="15.84" y="0" fill="#00875f" fill-rule="nonzero"/>
                            <use xlink:href="#gD7BC2388059FC0B3DF9C32F4768A0A47" x="21.12" y="0" fill="#00875f" fill-rule="nonzero"/>
                            <use xlink:href="#g4EE50823DE1072B888352BF5ED93E90B" x="26.400000000000002" y="0" fill="#00875f" fill-rule="nonzero"/>
                            <use xlink:href="#gBAC9D87E2F0FD46689EF3845170B46DE" x="31.680000000000003" y="0" fill="#00875f" fill-rule="nonzero"/>
                            <use xlink:href="#gBAC9D87E2F0FD46689EF3845170B46DE" x="36.96" y="0" fill="#00875f" fill-rule="nonzero"/>
                            <use xlink:href="#gBAC9D87E2F0FD46689EF3845170B46DE" x="42.24" y="0" fill="#00875f" fill-rule="nonzero"/>
                            <use xlink:href="#gBAC9D87E2F0FD46689EF3845170B46DE" x="47.52" y="0" fill="#00875f" fill-rule="nonzero"/>
                            <use xlink:href="#gBAC9D87E2F0FD46689EF3845170B46DE" x="52.800000000000004" y="0" fill="#00875f" fill-rule="nonzero"/>
                            <use xlink:href="#g553CA0615203AE7EF2B51E16776E3FE0" x="58.080000000000005" y="0" fill="#00875f" fill-rule="nonzero"/>
                            <use xlink:href="#gA40CBF0FFDD069C46DF04320D0CE76E2" x="68.64" y="0" fill="#00875f" fill-rule="nonzero"/>
                            <use xlink:href="#g866CA4113798A6B82FC3659CB153531B" x="73.92" y="0" fill="#00875f" fill-rule="nonzero"/>
                            <use xlink:href="#gF9D31F08CF713FA33A044CE9199C2BD0" x="95.04" y="0" fill="#00875f" fill-rule="nonzero"/>
                        </g>
                    </g>
                </g>
                <g class="typst-group" transform="matrix(1 0 0 1 113.6 66.08)">
                    <g/>
                </g>
                <g class="typst-group" transform="matrix(1 0 0 1 8 89.31200000000001)">
                    <g/>
                </g>
                <g class="typst-group" transform="matrix(1 0 0 1 8 89.31200000000001)">
                    <g/>
                </g>
                <g class="typst-group" transform="matrix(1 0 0 1 8 89.31200000000001)">
                    <g/>
                </g>
                <g class="typst-group" transform="matrix(1 0 0 1 8 77.69600000000001)">
                    <g>
                        <g class="typst-text" transform="matrix(1 0 0 -1 0 8.976000000000003)">
                            <use xlink:href="#gF9D31F08CF713FA33A044CE9199C2BD0" x="15.84" y="0" fill="#00875f" fill-rule="nonzero"/>
                            <use xlink:href="#g4EE50823DE1072B888352BF5ED93E90B" x="21.12" y="0" fill="#00875f" fill-rule="nonzero"/>
                            <use xlink:href="#gBAC9D87E2F0FD46689EF3845170B46DE" x="26.400000000000002" y="0" fill="#00875f" fill-rule="nonzero"/>
                            <use xlink:href="#gBAC9D87E2F0FD46689EF3845170B46DE" x="31.680000000000003" y="0" fill="#00875f" fill-rule="nonzero"/>
                            <use xlink:href="#gBAC9D87E2F0FD46689EF3845170B46DE" x="36.96" y="0" fill="#00875f" fill-rule="nonzero"/>
                            <use xlink:href="#gBAC9D87E2F0FD46689EF3845170B46DE" x="42.24" y="0" fill="#00875f" fill-rule="nonzero"/>
                            <use xlink:href="#gBAC9D87E2F0FD46689EF3845170B46DE" x="47.52" y="0" fill="#00875f" fill-rule="nonzero"/>
                            <use xlink:href="#gBAC9D87E2F0FD46689EF3845170B46DE" x="52.800000000000004" y="0" fill="#00875f" fill-rule="nonzero"/>
                            <use xlink:href="#gBAC9D87E2F0FD46689EF3845170B46DE" x="58.080000000000005" y="0" fill="#00875f" fill-rule="nonzero"/>
                            <use xlink:href="#gBAC9D87E2F0FD46689EF3845170B46DE" x="63.36000000000001" y="0" fill="#00875f" fill-rule="nonzero"/>
                            <use xlink:href="#gF9D31F08CF713FA33A044CE9199C2BD0" x="68.64" y="0" fill="#00875f" fill-rule="nonzero"/>
                        </g>
                    </g>
                </g>
                <g class="typst-group" transform="matrix(1 0 0 1 113.6 77.69600000000001)">
                    <g/>
                </g>
                <g class="typst-group" transform="matrix(1 0 0 1 8 89.31200000000001)">
                    <g/>
                </g>
                <g class="typst-group" transform="matrix(1 0 0 1 8 100.92800000000001)">
                    <g/>
                </g>
            </g>
        </g>
    </g>
    <defs id="glyph">
        <symbol id="gEB20B197638B23C20845973F58CB19AC" overflow="visible">
            <path d="M 0 0m 2.6399999 -0.088 q -0.36959982 0 -0.59399986 0.2244 q -0.22440004 0.2244 -0.22440004 0.5852 q 0 0.36079997 0.22440004 0.5896 q 0.22440004 0.22879994 0.59399986 0.22879994 q 0.36960006 0 0.5940001 -0.22879994 q 0.22440004 -0.22880006 0.22440004 -0.5896 q 0 -0.3608 -0.22440004 -0.5852 q -0.22440004 -0.2244 -0.5940001 -0.2244 Z "/>
        </symbol>
        <symbol id="gA40CBF0FFDD069C46DF04320D0CE76E2" overflow="visible">
            <path d="M 0 0m -4.3384 0 l 0.29040003 1.6719999 h -0.6687999 v 0.74800014 h 0.80079985 l 0.27279997 1.5840001 h -0.7656002 v 0.74799967 h 0.88880014 l 0.3080001 1.6719999 h 0.76559997 l -0.29920006 -1.6719999 h 1.2495999 l 0.3080001 1.6719999 h 0.76559997 l -0.2992 -1.6719999 h 1.9535999 l 0.30799997 1.6719999 h 0.76559997 l -0.29919982 -1.6719999 h 1.2495999 l 0.30799985 1.6719999 h 0.76559997 l -0.29920006 -1.6719999 h 0.66880035 v -0.74799967 h -0.8008001 l -0.2728002 -1.5840001 h 0.7656002 v -0.74800014 h -0.88880014 l -0.29920006 -1.6719999 h -0.76559997 l 0.29040003 1.6719999 h -1.2495999 l -0.29920006 -1.6719999 h -0.76559997 l 0.2904 1.6719999 h -1.9535999 l -0.29920006 -1.6719999 h -0.76559997 l 0.29040003 1.6719999 h -1.2496002 l -0.29919982 -1.6719999 h -0.76559997 Z m 1.188 2.42 h 1.2584 l 0.27279997 1.5840001 h -1.2584 l -0.27279997 -1.5840001 Z m 2.024 0 h 1.9624 l 0.27279997 1.5840001 h -1.9624 l -0.27279997 -1.5840001 Z m 2.728 0 h 1.2584 l 0.2728002 1.5840001 h -1.2584001 l -0.2728001 -1.5840001 Z "/>
        </symbol>
        <symbol id="g553CA0615203AE7EF2B51E16776E3FE0" overflow="visible">
            <path d="M 0 0m 3.5992 -0.968 l -3.0712 8.272 h 1.1439999 l 3.0712 -8.272 h -1.1439998 Z "/>
        </symbol>
        <symbol id="gBAC9D87E2F0FD46689EF3845170B46DE" overflow="visible">
            <path d="M 0 0m 0.6776 0 l 0.29919994 1.6719999 h -0.6688 v 0.74800014 h 0.79200006 l 0.27279997 1.5840001 h -0.7568 v 0.74799967 h 0.88879997 l 0.29920006 1.6719999 h 0.7743999 l -0.29919982 -1.6719999 h 1.2495999 l 0.29920006 1.6719999 h 0.77439976 l -0.29920006 -1.6719999 h 0.66880035 v -0.74799967 h -0.8008003 l -0.27279973 -1.5840001 h 0.76559997 v -0.74800014 h -0.8976002 l -0.2903998 -1.6719999 h -0.7744 l 0.29919982 1.6719999 h -1.2584 l -0.2903999 -1.6719999 h -0.7744 Z m 1.1968 2.42 h 1.2496 l 0.27279997 1.5840001 h -1.2495999 l -0.2728001 -1.5840001 Z "/>
        </symbol>
        <symbol id="g866CA4113798A6B82FC3659CB153531B" overflow="visible">
            <path d="M 0 0m 2.0944 0.8096 v 1.584 h -1.5752 v 1.0208001 h 1.5752 v 1.5839996 h 1.0912001 v -1.5839996 h 1.5751998 v -1.0208001 h -1.5751998 v -1.584 h -1.0912001 Z "/>
        </symbol>
        <symbol id="gF2B97E1828C86C53ED55366D14432730" overflow="visible">
            <path d="M 0 0m 2.6399999 -0.0792 q -0.9327998 0 -1.4783999 0.5236 q -0.5456 0.5236 -0.5456 1.4124 v 1.1264001 q 0 0.89759994 0.5456 1.4168 q 0.54560006 0.51919985 1.4783999 0.51919985 q 0.93280005 0 1.4784002 -0.51919985 q 0.54559994 -0.5192001 0.54559994 -1.4168 v -1.1264001 q 0 -0.88879997 -0.54559994 -1.4124 q -0.5456002 -0.5236 -1.4784002 -0.5236 Z m 0 0.9592 q 0.44000006 0 0.68200016 0.24199998 q 0.24199986 0.24199998 0.24199986 0.6996 v 1.1968 q 0 0.45760012 -0.24199986 0.6996 q -0.2420001 0.2420001 -0.68200016 0.2420001 q -0.43999982 0 -0.6819999 -0.2420001 q -0.24199998 -0.24199986 -0.24199998 -0.6996 v -1.1968 q 0 -0.4576 0.24199998 -0.6996 q 0.2420001 -0.24199998 0.6819999 -0.24199998 Z "/>
        </symbol>
        <symbol id="g4EE50823DE1072B888352BF5ED93E90B" overflow="visible">
            <path d="M 0 0m 0.528 -0.968 l 3.08 8.272 h 1.1439998 l -3.08 -8.272 h -1.1439999 Z "/>
        </symbol>
        <symbol id="gD7A02C1C897F9E3A321398548C8C8B03" overflow="visible">
            <path d="M 0 0m 1.0912 3.784 l -0.07920003 2.6399999 h 1.1792 l -0.0704 -2.6399999 h -1.0296 Z m 2.0767999 0 l -0.07920003 2.6399999 h 1.1792002 l -0.07040024 -2.6399999 h -1.0295999 Z "/>
        </symbol>
        <symbol id="g234FC876FD426F781CD111EC289ED323" overflow="visible">
            <path d="M 0 0m -9.6184 0 l 0.29039955 1.6719999 h -0.6687994 v 0.74800014 h 0.80079937 l 0.27280045 1.5840001 h -0.7656002 v 0.74799967 h 0.88879967 l 0.30800056 1.6719999 h 0.7655997 l -0.29920053 -1.6719999 h 1.2496004 l 0.3080001 1.6719999 h 0.7655997 l -0.29919958 -1.6719999 h 2.2175999 l 0.30799985 1.6719999 h 0.76559997 l -0.29919982 -1.6719999 h 1.2495999 l 0.30799997 1.6719999 h 0.7656 l -0.2992 -1.6719999 h 2.2175999 l 0.30799997 1.6719999 h 0.76559997 l -0.29919982 -1.6719999 h 1.2495999 l 0.30799985 1.6719999 h 0.76559997 l -0.29920006 -1.6719999 h 0.66880035 v -0.74799967 h -0.8008001 l -0.2728002 -1.5840001 h 0.7656002 v -0.74800014 h -0.88880014 l -0.29920006 -1.6719999 h -0.76559997 l 0.29040003 1.6719999 h -1.2495999 l -0.29920006 -1.6719999 h -0.76559997 l 0.2904 1.6719999 h -2.2175999 l -0.29919994 -1.6719999 h -0.76559997 l 0.2903998 1.6719999 h -1.2495999 l -0.29920006 -1.6719999 h -0.7655997 l 0.29040003 1.6719999 h -2.2176003 l -0.29920006 -1.6719999 h -0.7655997 l 0.29040003 1.6719999 h -1.2496004 l -0.29920006 -1.6719999 h -0.76559925 Z m 1.1879997 2.42 h 1.2584 l 0.27279997 1.5840001 h -1.2584004 l -0.2727995 -1.5840001 Z m 2.0240002 0 h 2.2264 l 0.27279997 1.5840001 h -2.2264 l -0.27279997 -1.5840001 Z m 2.9919996 0 h 1.2584002 l 0.27279997 1.5840001 h -1.2584 l -0.2728002 -1.5840001 Z m 2.0240002 0 h 2.2264 l 0.27279997 1.5840001 h -2.2264 l -0.27279997 -1.5840001 Z m 2.9919999 0 h 1.2584 l 0.2728002 1.5840001 h -1.2584001 l -0.2728001 -1.5840001 Z "/>
        </symbol>
        <symbol id="gF9D31F08CF713FA33A044CE9199C2BD0" overflow="visible">
            <path d="M 0 0m 2.2792 5.676 l -1.0208001 1.2319999 h 1.2144 l 0.9416001 -1.2319999 h -1.1352 Z "/>
        </symbol>
        <symbol id="gFD5E24C590020160A507FE1B2B955D0E" overflow="visible">
            <path d="M 0 0m 2.1296 3.784 l -0.07920003 2.6399999 h 1.1791999 l -0.0704 -2.6399999 h -1.0295999 Z "/>
        </symbol>
        <symbol id="gAA916D20060123FCDF49DDE23FB7E4B3" overflow="visible">
            <path d="M 0 0m 1.6719999 -1.408 l 0.46640015 2.6928 h 1.2584 l -0.6688001 -2.6928 h -1.056 Z "/>
        </symbol>
        <symbol id="g48D32C86791098B8FBB2A4189AB7FAA5" overflow="visible">
            <path d="M 0 0m 0.7216 3.476 v 1.0119998 h 3.8368 v -1.0119998 h -3.8368 Z m 0 -2.1560001 v 1.0120001 h 3.8368 v -1.0120001 h -3.8368 Z "/>
        </symbol>
        <symbol id="g7F30B59DCAF383D6B34C412A1FA2300E" overflow="visible">
            <path d="M 0 0m 1.232 2.3936 v 1.0208001 h 2.816 v -1.0208001 h -2.816 Z "/>
        </symbol>
        <symbol id="g3A9C2EE426056B9DC6076237A9EB4D3E" overflow="visible">
            <path d="M 0 0m -4.576 3.476 v 1.0119998 h 9.152 v -1.0119998 h -9.152 Z m 0 -2.1560001 v 1.0120001 h 9.152 v -1.0120001 h -9.152 Z "/>
        </symbol>
        <symbol id="gD7BC2388059FC0B3DF9C32F4768A0A47" overflow="visible">
            <path d="M 0 0m 2.0856 -0.968 v 8.272 h 1.1088002 v -8.272 h -1.1088002 Z "/>
        </symbol>
        <symbol id="g4A697F7B3D2427F4387CA23DB72B4782" overflow="visible">
            <path d="M 0 0m 2.2792 7.128 l -1.0208001 1.2319999 h 1.2144 l 0.9416001 -1.2319999 h -1.1352 Z "/>
        </symbol>
        <symbol id="gB3CB5C71C376FEAC35A5CE3E9D70B056" overflow="visible">
            <path d="M 0 0m 0.528 -1.2144 v 0.9944 h 4.224 v -0.9944 h -4.224 Z "/>
        </symbol>
    </defs>
</svg>
