<svg class="typst-doc" viewBox="0 0 112.9864566929134 160.5064566929134" width="112.9864566929134pt" height="160.5064566929134pt" xmlns="http://www.w3.org/2000/svg" xmlns:xlink="http://www.w3.org/1999/xlink" xmlns:h5="http://www.w3.org/1999/xhtml">
    <path class="typst-shape" fill="#ffffff" fill-rule="nonzero" d="M 0 0v 160.50645 h 112.98646 v -160.50645 Z "/>
    <g>
        <g class="typst-group" transform="matrix(1 0 0 1 14.173228346456693 14.173228346456693)">
            <g>
                <path class="typst-shape" fill="#000000" fill-rule="nonzero" d="M 0 0m 0 5 c 0 -2.7614238 2.2385762 -5 5 -5 h 74.64 c 2.7614212 0 5 2.2385762 5 5 v 122.16 c 0 2.7614136 -2.2385788 5 -5 5 h -74.64 c -2.7614238 0 -5 -2.2385864 -5 -5 Z "/>
                <g class="typst-group" transform="matrix(1 0 0 1 8 19.616)">
                    <g/>
                </g>
                <g class="typst-group" transform="matrix(1 0 0 1 8 19.616)">
                    <g/>
                </g>
                <g class="typst-group" transform="matrix(1 0 0 1 8 8)">
                    <g>
                        <g class="typst-text" transform="matrix(1 0 0 -1 0 8.976000000000003)">
                            <use xlink:href="#g7F30B59DCAF383D6B34C412A1FA2300E" x="42.24" y="0" fill="#ff00ff" fill-rule="nonzero"/>
                            <use xlink:href="#g411C4DD6819AEB24427ECE171647BDC0" x="52.800000000000004" y="0" fill="#ff00ff" fill-rule="nonzero"/>
                            <use xlink:href="#gEB20B197638B23C20845973F58CB19AC" x="58.080000000000005" y="0" fill="#ff00ff" fill-rule="nonzero"/>
                        </g>
                    </g>
                </g>
                <g class="typst-group" transform="matrix(1 0 0 1 76.64000000000001 8)">
                    <g/>
                </g>
                <g class="typst-group" transform="matrix(1 0 0 1 8 31.232000000000003)">
                    <g/>
                </g>
                <g class="typst-group" transform="matrix(1 0 0 1 8 31.232000000000003)">
                    <g/>
                </g>
                <g class="typst-group" transform="matrix(1 0 0 1 8 31.232000000000003)">
                    <g/>
                </g>
                <g class="typst-group" transform="matrix(1 0 0 1 8 19.616)">
                    <g>
                        <g class="typst-text" transform="matrix(1 0 0 -1 0 8.976000000000003)">
                            <use xlink:href="#g7F30B59DCAF383D6B34C412A1FA2300E" x="31.680000000000003" y="0" fill="#ff00ff" fill-rule="nonzero"/>
                            <use xlink:href="#g411C4DD6819AEB24427ECE171647BDC0" x="42.24" y="0" fill="#ff00ff" fill-rule="nonzero"/>
                            <use xlink:href="#gEB20B197638B23C20845973F58CB19AC" x="47.52" y="0" fill="#ff00ff" fill-rule="nonzero"/>
                        </g>
                    </g>
                </g>
                <g class="typst-group" transform="matrix(1 0 0 1 76.64000000000001 19.616)">
                    <g/>
                </g>
                <g class="typst-group" transform="matrix(1 0 0 1 8 42.848000000000006)">
                    <g/>
                </g>
                <g class="typst-group" transform="matrix(1 0 0 1 8 42.848000000000006)">
                    <g/>
                </g>
                <g class="typst-group" transform="matrix(1 0 0 1 8 42.848000000000006)">
                    <g/>
                </g>
                <g class="typst-group" transform="matrix(1 0 0 1 8 31.232000000000003)">
                    <g>
                        <g class="typst-text" transform="matrix(1 0 0 -1 0 8.976000000000003)">
                            <use xlink:href="#g7F30B59DCAF383D6B34C412A1FA2300E" x="21.12" y="0" fill="#ff00ff" fill-rule="nonzero"/>
                            <use xlink:href="#g411C4DD6819AEB24427ECE171647BDC0" x="31.680000000000003" y="0" fill="#ff00ff" fill-rule="nonzero"/>
                            <use xlink:href="#gEB20B197638B23C20845973F58CB19AC" x="36.96" y="0" fill="#ff00ff" fill-rule="nonzero"/>
                            <use xlink:href="#gEB20B197638B23C20845973F58CB19AC" x="47.52" y="0" fill="#ff00ff" fill-rule="nonzero"/>
                        </g>
                    </g>
                </g>
                <g class="typst-group" transform="matrix(1 0 0 1 76.64000000000001 31.232000000000003)">
                    <g/>
                </g>
                <g class="typst-group" transform="matrix(1 0 0 1 8 54.464000000000006)">
                    <g/>
                </g>
                <g class="typst-group" transform="matrix(1 0 0 1 8 54.464000000000006)">
                    <g/>
                </g>
                <g class="typst-group" transform="matrix(1 0 0 1 8 54.464000000000006)">
                    <g/>
                </g>
                <g class="typst-group" transform="matrix(1 0 0 1 8 42.848000000000006)">
                    <g>
                        <g class="typst-text" transform="matrix(1 0 0 -1 0 8.976000000000003)">
                            <use xlink:href="#g7F30B59DCAF383D6B34C412A1FA2300E" x="10.56" y="0" fill="#ff00ff" fill-rule="nonzero"/>
                            <use xlink:href="#g411C4DD6819AEB24427ECE171647BDC0" x="21.12" y="0" fill="#ff00ff" fill-rule="nonzero"/>
                            <use xlink:href="#gEB20B197638B23C20845973F58CB19AC" x="26.400000000000002" y="0" fill="#ff00ff" fill-rule="nonzero"/>
                            <use xlink:href="#gFD5E24C590020160A507FE1B2B955D0E" x="42.24" y="0" fill="#ff00ff" fill-rule="nonzero"/>
                            <use xlink:href="#g411C4DD6819AEB24427ECE171647BDC0" x="52.800000000000004" y="0" fill="#ff00ff" fill-rule="nonzero"/>
                            <use xlink:href="#g7F30B59DCAF383D6B34C412A1FA2300E" x="58.080000000000005" y="0" fill="#ff00ff" fill-rule="nonzero"/>
                        </g>
                    </g>
                </g>
                <g class="typst-group" transform="matrix(1 0 0 1 76.64000000000001 42.848000000000006)">
                    <g/>
                </g>
                <g class="typst-group" transform="matrix(1 0 0 1 8 66.08)">
                    <g/>
                </g>
                <g class="typst-group" transform="matrix(1 0 0 1 8 66.08)">
                    <g/>
                </g>
                <g class="typst-group" transform="matrix(1 0 0 1 8 66.08)">
                    <g/>
                </g>
                <g class="typst-group" transform="matrix(1 0 0 1 8 54.464000000000006)">
                    <g>
                        <g class="typst-text" transform="matrix(1 0 0 -1 0 8.976000000000003)">
                            <use xlink:href="#g4EE50823DE1072B888352BF5ED93E90B" x="5.28" y="0" fill="#ff00ff" fill-rule="nonzero"/>
                            <use xlink:href="#g866CA4113798A6B82FC3659CB153531B" x="10.56" y="0" fill="#ff00ff" fill-rule="nonzero"/>
                            <use xlink:href="#g1977475DBC59169954969A1DA0562274" x="15.84" y="0" fill="#ff00ff" fill-rule="nonzero"/>
                            <use xlink:href="#g1977475DBC59169954969A1DA0562274" x="52.800000000000004" y="0" fill="#ff00ff" fill-rule="nonzero"/>
                            <use xlink:href="#g866CA4113798A6B82FC3659CB153531B" x="58.080000000000005" y="0" fill="#ff00ff" fill-rule="nonzero"/>
                            <use xlink:href="#g4EE50823DE1072B888352BF5ED93E90B" x="63.36000000000001" y="0" fill="#ff00ff" fill-rule="nonzero"/>
                        </g>
                    </g>
                </g>
                <g class="typst-group" transform="matrix(1 0 0 1 76.64000000000001 54.464000000000006)">
                    <g/>
                </g>
                <g class="typst-group" transform="matrix(1 0 0 1 8 77.69600000000001)">
                    <g/>
                </g>
                <g class="typst-group" transform="matrix(1 0 0 1 8 77.69600000000001)">
                    <g/>
                </g>
                <g class="typst-group" transform="matrix(1 0 0 1 8 77.69600000000001)">
                    <g/>
                </g>
                <g class="typst-group" transform="matrix(1 0 0 1 8 66.08)">
                    <g>
                        <g class="typst-text" transform="matrix(1 0 0 -1 0 8.976000000000003)">
                            <use xlink:href="#gEB20B197638B23C20845973F58CB19AC" x="10.56" y="0" fill="#ff00ff" fill-rule="nonzero"/>
                            <use xlink:href="#g411C4DD6819AEB24427ECE171647BDC0" x="21.12" y="0" fill="#ff00ff" fill-rule="nonzero"/>
                            <use xlink:href="#gFD5E24C590020160A507FE1B2B955D0E" x="26.400000000000002" y="0" fill="#ff00ff" fill-rule="nonzero"/>
                            <use xlink:href="#gEB20B197638B23C20845973F58CB19AC" x="42.24" y="0" fill="#ff00ff" fill-rule="nonzero"/>
                            <use xlink:href="#g411C4DD6819AEB24427ECE171647BDC0" x="52.800000000000004" y="0" fill="#ff00ff" fill-rule="nonzero"/>
                            <use xlink:href="#gEB20B197638B23C20845973F58CB19AC" x="58.080000000000005" y="0" fill="#ff00ff" fill-rule="nonzero"/>
                        </g>
                    </g>
                </g>
                <g class="typst-group" transform="matrix(1 0 0 1 76.64000000000001 66.08)">
                    <g/>
                </g>
                <g class="typst-group" transform="matrix(1 0 0 1 8 89.31200000000001)">
                    <g/>
                </g>
                <g class="typst-group" transform="matrix(1 0 0 1 8 89.31200000000001)">
                    <g/>
                </g>
                <g class="typst-group" transform="matrix(1 0 0 1 8 89.31200000000001)">
                    <g/>
                </g>
                <g class="typst-group" transform="matrix(1 0 0 1 8 77.69600000000001)">
                    <g>
                        <g class="typst-text" transform="matrix(1 0 0 -1 0 8.976000000000003)">
                            <use xlink:href="#gEB20B197638B23C20845973F58CB19AC" x="21.12" y="0" fill="#ff00ff" fill-rule="nonzero"/>
                            <use xlink:href="#gEB20B197638B23C20845973F58CB19AC" x="31.680000000000003" y="0" fill="#ff00ff" fill-rule="nonzero"/>
                            <use xlink:href="#g411C4DD6819AEB24427ECE171647BDC0" x="42.24" y="0" fill="#ff00ff" fill-rule="nonzero"/>
                            <use xlink:href="#gEB20B197638B23C20845973F58CB19AC" x="47.52" y="0" fill="#ff00ff" fill-rule="nonzero"/>
                        </g>
                    </g>
                </g>
                <g class="typst-group" transform="matrix(1 0 0 1 76.64000000000001 77.69600000000001)">
                    <g/>
                </g>
                <g class="typst-group" transform="matrix(1 0 0 1 8 100.92800000000001)">
                    <g/>
                </g>
                <g class="typst-group" transform="matrix(1 0 0 1 8 100.92800000000001)">
                    <g/>
                </g>
                <g class="typst-group" transform="matrix(1 0 0 1 8 100.92800000000001)">
                    <g/>
                </g>
                <g class="typst-group" transform="matrix(1 0 0 1 8 89.31200000000001)">
                    <g>
                        <g class="typst-text" transform="matrix(1 0 0 -1 0 8.976000000000003)">
                            <use xlink:href="#gEB20B197638B23C20845973F58CB19AC" x="21.12" y="0" fill="#ff00ff" fill-rule="nonzero"/>
                            <use xlink:href="#g411C4DD6819AEB24427ECE171647BDC0" x="31.680000000000003" y="0" fill="#ff00ff" fill-rule="nonzero"/>
                            <use xlink:href="#gEB20B197638B23C20845973F58CB19AC" x="36.96" y="0" fill="#ff00ff" fill-rule="nonzero"/>
                        </g>
                    </g>
                </g>
                <g class="typst-group" transform="matrix(1 0 0 1 76.64000000000001 89.31200000000001)">
                    <g/>
                </g>
                <g class="typst-group" transform="matrix(1 0 0 1 8 112.54400000000001)">
                    <g/>
                </g>
                <g class="typst-group" transform="matrix(1 0 0 1 8 112.54400000000001)">
                    <g/>
                </g>
                <g class="typst-group" transform="matrix(1 0 0 1 8 112.54400000000001)">
                    <g/>
                </g>
                <g class="typst-group" transform="matrix(1 0 0 1 8 100.92800000000001)">
                    <g>
                        <g class="typst-text" transform="matrix(1 0 0 -1 0 8.976000000000003)">
                            <use xlink:href="#gEB20B197638B23C20845973F58CB19AC" x="10.56" y="0" fill="#ff00ff" fill-rule="nonzero"/>
                            <use xlink:href="#g411C4DD6819AEB24427ECE171647BDC0" x="21.12" y="0" fill="#ff00ff" fill-rule="nonzero"/>
                            <use xlink:href="#gEB20B197638B23C20845973F58CB19AC" x="26.400000000000002" y="0" fill="#ff00ff" fill-rule="nonzero"/>
                        </g>
                    </g>
                </g>
                <g class="typst-group" transform="matrix(1 0 0 1 76.64000000000001 100.92800000000001)">
                    <g/>
                </g>
                <g class="typst-group" transform="matrix(1 0 0 1 8 112.54400000000001)">
                    <g/>
                </g>
                <g class="typst-group" transform="matrix(1 0 0 1 8 124.16000000000001)">
                    <g/>
                </g>
            </g>
        </g>
    </g>
    <defs id="glyph">
        <symbol id="g7F30B59DCAF383D6B34C412A1FA2300E" overflow="visible">
            <path d="M 0 0m 1.232 2.3936 v 1.0208001 h 2.816 v -1.0208001 h -2.816 Z "/>
        </symbol>
        <symbol id="g411C4DD6819AEB24427ECE171647BDC0" overflow="visible">
            <path d="M 0 0m -0.132 -0.968 l 3.08 8.272 h 1.144 l -3.08 -8.272 h -1.1439999 Z m -3.96 0 l 3.08 8.272 h 1.1439999 l -3.08 -8.272 h -1.144 Z "/>
        </symbol>
        <symbol id="gEB20B197638B23C20845973F58CB19AC" overflow="visible">
            <path d="M 0 0m 2.6399999 -0.088 q -0.36959982 0 -0.59399986 0.2244 q -0.22440004 0.2244 -0.22440004 0.5852 q 0 0.36079997 0.22440004 0.5896 q 0.22440004 0.22879994 0.59399986 0.22879994 q 0.36960006 0 0.5940001 -0.22879994 q 0.22440004 -0.22880006 0.22440004 -0.5896 q 0 -0.3608 -0.22440004 -0.5852 q -0.22440004 -0.2244 -0.5940001 -0.2244 Z "/>
        </symbol>
        <symbol id="gFD5E24C590020160A507FE1B2B955D0E" overflow="visible">
            <path d="M 0 0m 2.1296 3.784 l -0.07920003 2.6399999 h 1.1791999 l -0.0704 -2.6399999 h -1.0295999 Z "/>
        </symbol>
        <symbol id="g4EE50823DE1072B888352BF5ED93E90B" overflow="visible">
            <path d="M 0 0m 0.528 -0.968 l 3.08 8.272 h 1.1439998 l -3.08 -8.272 h -1.1439999 Z "/>
        </symbol>
        <symbol id="g866CA4113798A6B82FC3659CB153531B" overflow="visible">
            <path d="M 0 0m 2.0944 0.8096 v 1.584 h -1.5752 v 1.0208001 h 1.5752 v 1.5839996 h 1.0912001 v -1.5839996 h 1.5751998 v -1.0208001 h -1.5751998 v -1.584 h -1.0912001 Z "/>
        </symbol>
        <symbol id="g1977475DBC59169954969A1DA0562274" overflow="visible">
            <path d="M 0 0m 2.6399999 3.4584 q -0.37839985 0 -0.5983999 0.20239997 q -0.22000003 0.20239997 -0.22000003 0.5367999 q 0 0.32560015 0.22000003 0.5279999 q 0.22000003 0.20240021 0.5983999 0.20240021 q 0.3784001 0 0.5984001 -0.20240021 q 0.22000003 -0.20239973 0.22000003 -0.5279999 q 0 -0.33439994 -0.22000003 -0.5367999 q -0.22000003 -0.20239997 -0.5984001 -0.20239997 Z m 0 -3.5464 q -0.37839985 0 -0.5983999 0.2024 q -0.22000003 0.2024 -0.22000003 0.528 q 0 0.33439994 0.22000003 0.5367999 q 0.22000003 0.20240009 0.5983999 0.20240009 q 0.3784001 0 0.5984001 -0.20240009 q 0.22000003 -0.20239997 0.22000003 -0.5367999 q 0 -0.32560003 -0.22000003 -0.528 q -0.22000003 -0.2024 -0.5984001 -0.2024 Z "/>
        </symbol>
    </defs>
</svg>
