<svg class="typst-doc" viewBox="0 0 97.14645669291339 137.2744566929134" width="97.14645669291339pt" height="137.2744566929134pt" xmlns="http://www.w3.org/2000/svg" xmlns:xlink="http://www.w3.org/1999/xlink" xmlns:h5="http://www.w3.org/1999/xhtml">
    <path class="typst-shape" fill="#ffffff" fill-rule="nonzero" d="M 0 0v 137.27446 h 97.146454 v -137.27446 Z "/>
    <g>
        <g class="typst-group" transform="matrix(1 0 0 1 14.173228346456693 14.173228346456693)">
            <g>
                <path class="typst-shape" fill="#000000" fill-rule="nonzero" d="M 0 0m 0 5 c 0 -2.7614238 2.2385762 -5 5 -5 h 58.8 c 2.761425 0 5.000004 2.2385762 5.000004 5 v 98.928 c 0 2.7614212 -2.2385788 5 -5.000004 5 h -58.8 c -2.7614238 0 -5 -2.2385788 -5 -5 Z "/>
                <g class="typst-group" transform="matrix(1 0 0 1 8 19.616)">
                    <g/>
                </g>
                <g class="typst-group" transform="matrix(1 0 0 1 8 19.616)">
                    <g/>
                </g>
                <g class="typst-group" transform="matrix(1 0 0 1 8 8)">
                    <g>
                        <g class="typst-text" transform="matrix(1 0 0 -1 0 8.976000000000003)">
                            <use xlink:href="#gAA916D20060123FCDF49DDE23FB7E4B3" x="21.12" y="0" fill="#ffffff" fill-rule="nonzero"/>
                        </g>
                    </g>
                </g>
                <g class="typst-group" transform="matrix(1 0 0 1 34.4 8)">
                    <g>
                        <g class="typst-text" transform="matrix(1 0 0 -1 0 8.976000000000003)">
                            <use xlink:href="#gB3CB5C71C376FEAC35A5CE3E9D70B056" x="0" y="0" fill="#ff0000" fill-rule="nonzero"/>
                        </g>
                    </g>
                </g>
                <g class="typst-group" transform="matrix(1 0 0 1 39.68000000000001 8)">
                    <g>
                        <g class="typst-text" transform="matrix(1 0 0 -1 0 8.976000000000003)">
                            <use xlink:href="#gAA916D20060123FCDF49DDE23FB7E4B3" x="0" y="0" fill="#ffffff" fill-rule="nonzero"/>
                        </g>
                    </g>
                </g>
                <g class="typst-group" transform="matrix(1 0 0 1 60.800000000000004 8)">
                    <g/>
                </g>
                <g class="typst-group">
                    <g>
                        <g class="typst-group" transform="matrix(1 0 0 1 8 31.232)">
                            <g/>
                        </g>
                        <g class="typst-group" transform="matrix(1 0 0 1 8 31.232)">
                            <g/>
                        </g>
                        <g class="typst-group" transform="matrix(1 0 0 1 8 19.616)">
                            <g>
                                <g class="typst-text" transform="matrix(1 0 0 -1 0 8.976000000000003)">
                                    <use xlink:href="#g1DC2B9F958B9FBE8E8310F083FFEC1D6" x="5.28" y="0" fill="#ffffff" fill-rule="nonzero"/>
                                    <use xlink:href="#gFD5E24C590020160A507FE1B2B955D0E" x="10.56" y="0" fill="#ffffff" fill-rule="nonzero"/>
                                    <use xlink:href="#g7F30B59DCAF383D6B34C412A1FA2300E" x="15.84" y="0" fill="#ffffff" fill-rule="nonzero"/>
                                    <use xlink:href="#gB3CB5C71C376FEAC35A5CE3E9D70B056" x="21.12" y="0" fill="#ffffff" fill-rule="nonzero"/>
                                </g>
                            </g>
                        </g>
                        <g class="typst-group" transform="matrix(1 0 0 1 34.4 19.616)">
                            <g>
                                <g class="typst-text" transform="matrix(1 0 0 -1 0 8.976000000000003)">
                                    <use xlink:href="#gD7BC2388059FC0B3DF9C32F4768A0A47" x="0" y="0" fill="#ff0000" fill-rule="nonzero"/>
                                </g>
                            </g>
                        </g>
                        <g class="typst-group" transform="matrix(1 0 0 1 39.68000000000001 19.616)">
                            <g>
                                <g class="typst-text" transform="matrix(1 0 0 -1 0 8.976000000000003)">
                                    <use xlink:href="#gB3CB5C71C376FEAC35A5CE3E9D70B056" x="0" y="0" fill="#ffffff" fill-rule="nonzero"/>
                                    <use xlink:href="#g7F30B59DCAF383D6B34C412A1FA2300E" x="5.28" y="0" fill="#ffffff" fill-rule="nonzero"/>
                                    <use xlink:href="#gFD5E24C590020160A507FE1B2B955D0E" x="10.56" y="0" fill="#ffffff" fill-rule="nonzero"/>
                                    <use xlink:href="#gCCDBD5FC51A6BA89CB64A6B230E95E13" x="15.84" y="0" fill="#ffffff" fill-rule="nonzero"/>
                                </g>
                            </g>
                        </g>
                        <g class="typst-group" transform="matrix(1 0 0 1 60.800000000000004 19.616)">
                            <g/>
                        </g>
                    </g>
                </g>
                <g class="typst-group">
                    <g>
                        <g class="typst-group" transform="matrix(1 0 0 1 8 42.848000000000006)">
                            <g/>
                        </g>
                        <g class="typst-group" transform="matrix(1 0 0 1 8 42.848000000000006)">
                            <g/>
                        </g>
                        <g class="typst-group" transform="matrix(1 0 0 1 8 31.232000000000003)">
                            <g>
                                <g class="typst-text" transform="matrix(1 0 0 -1 0 8.976000000000003)">
                                    <use xlink:href="#gCC0D317154CCA833F2BC9C86696866BB" x="10.56" y="0" fill="#ffffff" fill-rule="nonzero"/>
                                    <use xlink:href="#g161F6AFB6E58763D1E79D160BDCEFAFA" x="21.12" y="0" fill="#ffffff" fill-rule="nonzero"/>
                                </g>
                            </g>
                        </g>
                        <g class="typst-group" transform="matrix(1 0 0 1 34.4 31.232000000000003)">
                            <g>
                                <g class="typst-text" transform="matrix(1 0 0 -1 0 8.976000000000003)">
                                    <use xlink:href="#gD7BC2388059FC0B3DF9C32F4768A0A47" x="0" y="0" fill="#ff0000" fill-rule="nonzero"/>
                                </g>
                            </g>
                        </g>
                        <g class="typst-group" transform="matrix(1 0 0 1 39.68000000000001 31.232000000000003)">
                            <g>
                                <g class="typst-text" transform="matrix(1 0 0 -1 0 8.976000000000003)">
                                    <use xlink:href="#g161F6AFB6E58763D1E79D160BDCEFAFA" x="5.28" y="0" fill="#ffffff" fill-rule="nonzero"/>
                                    <use xlink:href="#g394A9A1A0F3923DD318435562CD8A156" x="10.56" y="0" fill="#ffffff" fill-rule="nonzero"/>
                                </g>
                            </g>
                        </g>
                        <g class="typst-group" transform="matrix(1 0 0 1 60.800000000000004 31.232000000000003)">
                            <g/>
                        </g>
                    </g>
                </g>
                <g class="typst-group">
                    <g>
                        <g class="typst-group" transform="matrix(1 0 0 1 8 54.464000000000006)">
                            <g/>
                        </g>
                        <g class="typst-group" transform="matrix(1 0 0 1 8 54.464000000000006)">
                            <g/>
                        </g>
                        <g class="typst-group" transform="matrix(1 0 0 1 8 42.848000000000006)">
                            <g>
                                <g class="typst-text" transform="matrix(1 0 0 -1 0 8.976000000000003)">
                                    <use xlink:href="#g1DC2B9F958B9FBE8E8310F083FFEC1D6" x="5.28" y="0" fill="#ffffff" fill-rule="nonzero"/>
                                    <use xlink:href="#gB3CB5C71C376FEAC35A5CE3E9D70B056" x="10.56" y="0" fill="#ffffff" fill-rule="nonzero"/>
                                    <use xlink:href="#g7F30B59DCAF383D6B34C412A1FA2300E" x="15.84" y="0" fill="#ffffff" fill-rule="nonzero"/>
                                    <use xlink:href="#gFD5E24C590020160A507FE1B2B955D0E" x="21.12" y="0" fill="#ffffff" fill-rule="nonzero"/>
                                </g>
                            </g>
                        </g>
                        <g class="typst-group" transform="matrix(1 0 0 1 34.4 42.848000000000006)">
                            <g>
                                <g class="typst-text" transform="matrix(1 0 0 -1 0 8.976000000000003)">
                                    <use xlink:href="#gD7BC2388059FC0B3DF9C32F4768A0A47" x="0" y="0" fill="#ff0000" fill-rule="nonzero"/>
                                </g>
                            </g>
                        </g>
                        <g class="typst-group" transform="matrix(1 0 0 1 39.68000000000001 42.848000000000006)">
                            <g>
                                <g class="typst-text" transform="matrix(1 0 0 -1 0 8.976000000000003)">
                                    <use xlink:href="#gFD5E24C590020160A507FE1B2B955D0E" x="0" y="0" fill="#ffffff" fill-rule="nonzero"/>
                                    <use xlink:href="#g7F30B59DCAF383D6B34C412A1FA2300E" x="5.28" y="0" fill="#ffffff" fill-rule="nonzero"/>
                                    <use xlink:href="#gB3CB5C71C376FEAC35A5CE3E9D70B056" x="10.56" y="0" fill="#ffffff" fill-rule="nonzero"/>
                                    <use xlink:href="#gCCDBD5FC51A6BA89CB64A6B230E95E13" x="15.84" y="0" fill="#ffffff" fill-rule="nonzero"/>
                                </g>
                            </g>
                        </g>
                        <g class="typst-group" transform="matrix(1 0 0 1 60.800000000000004 42.848000000000006)">
                            <g/>
                        </g>
                    </g>
                </g>
                <g class="typst-group" transform="matrix(1 0 0 1 8 66.08)">
                    <g/>
                </g>
                <g class="typst-group" transform="matrix(1 0 0 1 8 66.08)">
                    <g/>
                </g>
                <g class="typst-group" transform="matrix(1 0 0 1 8 54.464000000000006)">
                    <g>
                        <g class="typst-text" transform="matrix(1 0 0 -1 0 8.976000000000003)"/>
                    </g>
                </g>
                <g class="typst-group" transform="matrix(1 0 0 1 34.4 54.464000000000006)">
                    <g>
                        <g class="typst-text" transform="matrix(1 0 0 -1 0 8.976000000000003)">
                            <use xlink:href="#gD7BC2388059FC0B3DF9C32F4768A0A47" x="0" y="0" fill="#ff0000" fill-rule="nonzero"/>
                        </g>
                    </g>
                </g>
                <g class="typst-group" transform="matrix(1 0 0 1 60.800000000000004 54.464000000000006)">
                    <g/>
                </g>
                <g class="typst-group" transform="matrix(1 0 0 1 8 77.69600000000001)">
                    <g/>
                </g>
                <g class="typst-group" transform="matrix(1 0 0 1 8 77.69600000000001)">
                    <g/>
                </g>
                <g class="typst-group" transform="matrix(1 0 0 1 8 66.08)">
                    <g>
                        <g class="typst-text" transform="matrix(1 0 0 -1 0 8.976000000000003)"/>
                    </g>
                </g>
                <g class="typst-group" transform="matrix(1 0 0 1 34.4 66.08)">
                    <g>
                        <g class="typst-text" transform="matrix(1 0 0 -1 0 8.976000000000003)">
                            <use xlink:href="#gD7BC2388059FC0B3DF9C32F4768A0A47" x="0" y="0" fill="#ff0000" fill-rule="nonzero"/>
                        </g>
                    </g>
                </g>
                <g class="typst-group" transform="matrix(1 0 0 1 60.800000000000004 66.08)">
                    <g/>
                </g>
                <g class="typst-group" transform="matrix(1 0 0 1 8 89.31200000000001)">
                    <g/>
                </g>
                <g class="typst-group" transform="matrix(1 0 0 1 8 89.31200000000001)">
                    <g/>
                </g>
                <g class="typst-group" transform="matrix(1 0 0 1 8 77.69600000000001)">
                    <g>
                        <g class="typst-text" transform="matrix(1 0 0 -1 0 8.976000000000003)"/>
                    </g>
                </g>
                <g class="typst-group" transform="matrix(1 0 0 1 34.4 77.69600000000001)">
                    <g>
                        <g class="typst-text" transform="matrix(1 0 0 -1 0 8.976000000000003)">
                            <use xlink:href="#gD7BC2388059FC0B3DF9C32F4768A0A47" x="0" y="0" fill="#ff0000" fill-rule="nonzero"/>
                        </g>
                    </g>
                </g>
                <g class="typst-group" transform="matrix(1 0 0 1 60.800000000000004 77.69600000000001)">
                    <g/>
                </g>
                <g class="typst-group" transform="matrix(1 0 0 1 8 89.31200000000001)">
                    <g/>
                </g>
                <g class="typst-group" transform="matrix(1 0 0 1 8 100.92800000000001)">
                    <g/>
                </g>
            </g>
        </g>
    </g>
    <defs id="glyph">
        <symbol id="gAA916D20060123FCDF49DDE23FB7E4B3" overflow="visible">
            <path d="M 0 0m 1.6719999 -1.408 l 0.46640015 2.6928 h 1.2584 l -0.6688001 -2.6928 h -1.056 Z "/>
        </symbol>
        <symbol id="gB3CB5C71C376FEAC35A5CE3E9D70B056" overflow="visible">
            <path d="M 0 0m 0.528 -1.2144 v 0.9944 h 4.224 v -0.9944 h -4.224 Z "/>
        </symbol>
        <symbol id="g1DC2B9F958B9FBE8E8310F083FFEC1D6" overflow="visible">
            <path d="M 0 0m 4.268 -1.056 q -1.3376002 0.30799997 -2.068 1.21 q -0.7304001 0.902 -0.7304001 2.2308 v 1.5752001 q 0 1.3199997 0.7304001 2.2175999 q 0.73039985 0.8976002 2.068 1.2144003 v -1.0912004 q -0.78320026 -0.18479967 -1.2364001 -0.81399965 q -0.4532001 -0.6292 -0.4532001 -1.5268002 v -1.5752001 q 0 -0.89759994 0.4532001 -1.5267999 q 0.45319986 -0.6292 1.2364001 -0.814 v -1.1 Z "/>
        </symbol>
        <symbol id="gFD5E24C590020160A507FE1B2B955D0E" overflow="visible">
            <path d="M 0 0m 2.1296 3.784 l -0.07920003 2.6399999 h 1.1791999 l -0.0704 -2.6399999 h -1.0295999 Z "/>
        </symbol>
        <symbol id="g7F30B59DCAF383D6B34C412A1FA2300E" overflow="visible">
            <path d="M 0 0m 1.232 2.3936 v 1.0208001 h 2.816 v -1.0208001 h -2.816 Z "/>
        </symbol>
        <symbol id="gD7BC2388059FC0B3DF9C32F4768A0A47" overflow="visible">
            <path d="M 0 0m 2.0856 -0.968 v 8.272 h 1.1088002 v -8.272 h -1.1088002 Z "/>
        </symbol>
        <symbol id="gCCDBD5FC51A6BA89CB64A6B230E95E13" overflow="visible">
            <path d="M 0 0m 1.012 -1.056 v 1.1 q 0.7832 0.1848 1.2364 0.814 q 0.4532001 0.62920004 0.4532001 1.5267999 v 1.5752001 q 0 0.8976002 -0.4532001 1.5268002 q -0.45319998 0.6292 -1.2364 0.81399965 v 1.0912004 q 1.3376001 -0.31680012 2.0679998 -1.2144003 q 0.7304001 -0.8976002 0.7304001 -2.2175999 v -1.5752001 q 0 -1.3288 -0.7304001 -2.2308 q -0.73039985 -0.902 -2.0679998 -1.21 Z "/>
        </symbol>
        <symbol id="gCC0D317154CCA833F2BC9C86696866BB" overflow="visible">
            <path d="M 0 0m 0.6688 0.4928 v 1.012 l 2.552 1.1792 q 0.17600012 0.07920003 0.34759998 0.13199997 q 0.1716001 0.05279994 0.2684002 0.07920003 q -0.09680009 0.01760006 -0.2728002 0.0704 q -0.17599988 0.05279994 -0.34319997 0.12319994 l -2.552 1.1880002 v 1.0295997 l 3.9424 -1.8567998 v -1.0999999 l -3.9424 -1.8568001 Z "/>
        </symbol>
        <symbol id="g161F6AFB6E58763D1E79D160BDCEFAFA" overflow="visible">
            <path d="M 0 0m 0.396 2.3936 v 1.0208001 h 3.652 v -1.0208001 h -3.652 Z m -4.444 0 v 1.0208001 h 3.652 v -1.0208001 h -3.652 Z "/>
        </symbol>
        <symbol id="g394A9A1A0F3923DD318435562CD8A156" overflow="visible">
            <path d="M 0 0m 4.6112 0.4928 l -3.9424 1.8568001 v 1.0999999 l 3.9424 1.8567998 v -1.0119996 l -2.5519998 -1.1792002 q -0.17600012 -0.07920003 -0.3476001 -0.13639998 q -0.17159998 -0.057200193 -0.26839995 -0.074800014 q 0.09679997 -0.01760006 0.27279997 -0.0704 q 0.176 -0.05280018 0.3432001 -0.13199997 l 2.5519998 -1.1792 v -1.0296 Z "/>
        </symbol>
    </defs>
</svg>
