<svg class="typst-doc" viewBox="0 0 112.9864566929134 125.6584566929134" width="112.9864566929134pt" height="125.6584566929134pt" xmlns="http://www.w3.org/2000/svg" xmlns:xlink="http://www.w3.org/1999/xlink" xmlns:h5="http://www.w3.org/1999/xhtml">
    <path class="typst-shape" fill="#ffffff" fill-rule="nonzero" d="M 0 0v 125.658455 h 112.98646 v -125.658455 Z "/>
    <g>
        <g class="typst-group" transform="matrix(1 0 0 1 14.173228346456693 14.173228346456693)">
            <g>
                <path class="typst-shape" fill="#000000" fill-rule="nonzero" d="M 0 0m 0 5 c 0 -2.7614238 2.2385762 -5 5 -5 h 74.64 c 2.7614212 0 5 2.2385762 5 5 v 87.312 c 0 2.7614288 -2.2385788 5 -5 5 h -74.64 c -2.7614238 0 -5 -2.2385712 -5 -5 Z "/>
                <g class="typst-group" transform="matrix(1 0 0 1 8 19.616)">
                    <g/>
                </g>
                <g class="typst-group" transform="matrix(1 0 0 1 8 19.616)">
                    <g/>
                </g>
                <g class="typst-group" transform="matrix(1 0 0 1 8 8)">
                    <g>
                        <g class="typst-text" transform="matrix(1 0 0 -1 0 8.976000000000003)"/>
                    </g>
                </g>
                <g class="typst-group" transform="matrix(1 0 0 1 39.68000000000001 8)">
                    <g>
                        <g class="typst-text" transform="matrix(1 0 0 -1 0 8.976000000000003)">
                            <use xlink:href="#g4EE50823DE1072B888352BF5ED93E90B" x="0" y="0" fill="#ff0000" fill-rule="nonzero"/>
                        </g>
                    </g>
                </g>
                <g class="typst-group" transform="matrix(1 0 0 1 44.96 8)">
                    <g>
                        <g class="typst-text" transform="matrix(1 0 0 -1 0 8.976000000000003)">
                            <use xlink:href="#g553CA0615203AE7EF2B51E16776E3FE0" x="0" y="0" fill="#ff00ff" fill-rule="nonzero"/>
                        </g>
                    </g>
                </g>
                <g class="typst-group" transform="matrix(1 0 0 1 76.64 8)">
                    <g/>
                </g>
                <g class="typst-group">
                    <g>
                        <g class="typst-group" transform="matrix(1 0 0 1 8 31.232)">
                            <g/>
                        </g>
                        <g class="typst-group" transform="matrix(1 0 0 1 8 31.232)">
                            <g/>
                        </g>
                        <g class="typst-group" transform="matrix(1 0 0 1 8 19.616)">
                            <g>
                                <g class="typst-text" transform="matrix(1 0 0 -1 0 8.976000000000003)"/>
                            </g>
                        </g>
                        <g class="typst-group" transform="matrix(1 0 0 1 29.12 19.616)">
                            <g>
                                <g class="typst-text" transform="matrix(1 0 0 -1 0 8.976000000000003)">
                                    <use xlink:href="#g4EE50823DE1072B888352BF5ED93E90B" x="0" y="0" fill="#ff0000" fill-rule="nonzero"/>
                                </g>
                            </g>
                        </g>
                        <g class="typst-group" transform="matrix(1 0 0 1 34.4 19.616)">
                            <g>
                                <g class="typst-text" transform="matrix(1 0 0 -1 0 8.976000000000003)">
                                    <use xlink:href="#g4EE50823DE1072B888352BF5ED93E90B" x="0" y="0" fill="#ff00ff" fill-rule="nonzero"/>
                                    <use xlink:href="#g553CA0615203AE7EF2B51E16776E3FE0" x="15.84" y="0" fill="#ff00ff" fill-rule="nonzero"/>
                                </g>
                            </g>
                        </g>
                        <g class="typst-group" transform="matrix(1 0 0 1 55.52000000000001 19.616)">
                            <g>
                                <g class="typst-text" transform="matrix(1 0 0 -1 0 8.976000000000003)">
                                    <use xlink:href="#g553CA0615203AE7EF2B51E16776E3FE0" x="0" y="0" fill="#0000ff" fill-rule="nonzero"/>
                                </g>
                            </g>
                        </g>
                        <g class="typst-group" transform="matrix(1 0 0 1 76.64 19.616)">
                            <g/>
                        </g>
                    </g>
                </g>
                <g class="typst-group">
                    <g>
                        <g class="typst-group" transform="matrix(1 0 0 1 8 42.848000000000006)">
                            <g/>
                        </g>
                        <g class="typst-group" transform="matrix(1 0 0 1 8 42.848000000000006)">
                            <g/>
                        </g>
                        <g class="typst-group" transform="matrix(1 0 0 1 8 31.232000000000003)">
                            <g>
                                <g class="typst-text" transform="matrix(1 0 0 -1 0 8.976000000000003)"/>
                            </g>
                        </g>
                        <g class="typst-group" transform="matrix(1 0 0 1 23.840000000000003 31.232000000000003)">
                            <g>
                                <g class="typst-text" transform="matrix(1 0 0 -1 0 8.976000000000003)">
                                    <use xlink:href="#g4EE50823DE1072B888352BF5ED93E90B" x="0" y="0" fill="#ff0000" fill-rule="nonzero"/>
                                </g>
                            </g>
                        </g>
                        <g class="typst-group" transform="matrix(1 0 0 1 29.12 31.232000000000003)">
                            <g>
                                <g class="typst-text" transform="matrix(1 0 0 -1 0 8.976000000000003)">
                                    <use xlink:href="#g4EE50823DE1072B888352BF5ED93E90B" x="0" y="0" fill="#ff00ff" fill-rule="nonzero"/>
                                    <use xlink:href="#g553CA0615203AE7EF2B51E16776E3FE0" x="26.400000000000002" y="0" fill="#ff00ff" fill-rule="nonzero"/>
                                </g>
                            </g>
                        </g>
                        <g class="typst-group" transform="matrix(1 0 0 1 66.08 31.232000000000003)">
                            <g>
                                <g class="typst-text" transform="matrix(1 0 0 -1 0 8.976000000000003)">
                                    <use xlink:href="#g553CA0615203AE7EF2B51E16776E3FE0" x="0" y="0" fill="#0000ff" fill-rule="nonzero"/>
                                </g>
                            </g>
                        </g>
                        <g class="typst-group" transform="matrix(1 0 0 1 76.64 31.232000000000003)">
                            <g/>
                        </g>
                    </g>
                </g>
                <g class="typst-group">
                    <g>
                        <g class="typst-group" transform="matrix(1 0 0 1 8 54.464000000000006)">
                            <g/>
                        </g>
                        <g class="typst-group" transform="matrix(1 0 0 1 8 54.464000000000006)">
                            <g/>
                        </g>
                        <g class="typst-group" transform="matrix(1 0 0 1 8 42.848000000000006)">
                            <g>
                                <g class="typst-text" transform="matrix(1 0 0 -1 0 8.976000000000003)"/>
                            </g>
                        </g>
                        <g class="typst-group" transform="matrix(1 0 0 1 13.28 42.848000000000006)">
                            <g>
                                <g class="typst-text" transform="matrix(1 0 0 -1 0 8.976000000000003)">
                                    <use xlink:href="#g4EE50823DE1072B888352BF5ED93E90B" x="0" y="0" fill="#ff0000" fill-rule="nonzero"/>
                                </g>
                            </g>
                        </g>
                        <g class="typst-group" transform="matrix(1 0 0 1 23.840000000000003 42.848000000000006)">
                            <g>
                                <g class="typst-text" transform="matrix(1 0 0 -1 0 8.976000000000003)">
                                    <use xlink:href="#g4EE50823DE1072B888352BF5ED93E90B" x="0" y="0" fill="#ff00ff" fill-rule="nonzero"/>
                                    <use xlink:href="#gB3CB5C71C376FEAC35A5CE3E9D70B056" x="31.680000000000003" y="0" fill="#ff00ff" fill-rule="nonzero"/>
                                    <use xlink:href="#gCCDBD5FC51A6BA89CB64A6B230E95E13" x="36.96" y="0" fill="#ff00ff" fill-rule="nonzero"/>
                                </g>
                            </g>
                        </g>
                        <g class="typst-group" transform="matrix(1 0 0 1 71.36000000000001 42.848000000000006)">
                            <g>
                                <g class="typst-text" transform="matrix(1 0 0 -1 0 8.976000000000003)">
                                    <use xlink:href="#gCCDBD5FC51A6BA89CB64A6B230E95E13" x="0" y="0" fill="#0000ff" fill-rule="nonzero"/>
                                </g>
                            </g>
                        </g>
                        <g class="typst-group" transform="matrix(1 0 0 1 76.64 42.848000000000006)">
                            <g/>
                        </g>
                    </g>
                </g>
                <g class="typst-group">
                    <g>
                        <g class="typst-group" transform="matrix(1 0 0 1 8 66.08000000000001)">
                            <g/>
                        </g>
                        <g class="typst-group" transform="matrix(1 0 0 1 8 66.08000000000001)">
                            <g/>
                        </g>
                        <g class="typst-group" transform="matrix(1 0 0 1 8 66.08000000000001)">
                            <g/>
                        </g>
                        <g class="typst-group" transform="matrix(1 0 0 1 8 54.464000000000006)">
                            <g>
                                <g class="typst-text" transform="matrix(1 0 0 -1 0 8.976000000000003)">
                                    <use xlink:href="#g4EE50823DE1072B888352BF5ED93E90B" x="0" y="0" fill="#ff0000" fill-rule="nonzero"/>
                                    <use xlink:href="#gB3CB5C71C376FEAC35A5CE3E9D70B056" x="5.28" y="0" fill="#ff0000" fill-rule="nonzero"/>
                                </g>
                            </g>
                        </g>
                        <g class="typst-group" transform="matrix(1 0 0 1 18.56 54.464000000000006)">
                            <g>
                                <g class="typst-text" transform="matrix(1 0 0 -1 0 8.976000000000003)">
                                    <use xlink:href="#g4EE50823DE1072B888352BF5ED93E90B" x="0" y="0" fill="#ff00ff" fill-rule="nonzero"/>
                                    <use xlink:href="#gB3CB5C71C376FEAC35A5CE3E9D70B056" x="5.28" y="0" fill="#ff00ff" fill-rule="nonzero"/>
                                    <use xlink:href="#gB3CB5C71C376FEAC35A5CE3E9D70B056" x="10.56" y="0" fill="#ff00ff" fill-rule="nonzero"/>
                                    <use xlink:href="#gB3CB5C71C376FEAC35A5CE3E9D70B056" x="15.84" y="0" fill="#ff00ff" fill-rule="nonzero"/>
                                    <use xlink:href="#g161F6AFB6E58763D1E79D160BDCEFAFA" x="26.400000000000002" y="0" fill="#ff00ff" fill-rule="nonzero"/>
                                </g>
                            </g>
                        </g>
                        <g class="typst-group" transform="matrix(1 0 0 1 55.52 54.464000000000006)">
                            <g>
                                <g class="typst-text" transform="matrix(1 0 0 -1 0 8.976000000000003)">
                                    <use xlink:href="#g363496F2D5142F8F4982DAF4CE1D3779" x="5.28" y="0" fill="#0000ff" fill-rule="nonzero"/>
                                    <use xlink:href="#g7F30B59DCAF383D6B34C412A1FA2300E" x="10.56" y="0" fill="#0000ff" fill-rule="nonzero"/>
                                </g>
                            </g>
                        </g>
                        <g class="typst-group" transform="matrix(1 0 0 1 76.64 54.464000000000006)">
                            <g/>
                        </g>
                    </g>
                </g>
                <g class="typst-group" transform="matrix(1 0 0 1 8 77.69600000000001)">
                    <g/>
                </g>
                <g class="typst-group" transform="matrix(1 0 0 1 8 77.69600000000001)">
                    <g/>
                </g>
                <g class="typst-group" transform="matrix(1 0 0 1 8 66.08)">
                    <g>
                        <g class="typst-text" transform="matrix(1 0 0 -1 0 8.976000000000003)"/>
                    </g>
                </g>
                <g class="typst-group" transform="matrix(1 0 0 1 13.28 66.08)">
                    <g>
                        <g class="typst-text" transform="matrix(1 0 0 -1 0 8.976000000000003)">
                            <use xlink:href="#g4EE50823DE1072B888352BF5ED93E90B" x="0" y="0" fill="#0000ff" fill-rule="nonzero"/>
                            <use xlink:href="#gB3CB5C71C376FEAC35A5CE3E9D70B056" x="5.28" y="0" fill="#0000ff" fill-rule="nonzero"/>
                            <use xlink:href="#gB3CB5C71C376FEAC35A5CE3E9D70B056" x="10.56" y="0" fill="#0000ff" fill-rule="nonzero"/>
                            <use xlink:href="#gB3CB5C71C376FEAC35A5CE3E9D70B056" x="15.84" y="0" fill="#0000ff" fill-rule="nonzero"/>
                            <use xlink:href="#gB3CB5C71C376FEAC35A5CE3E9D70B056" x="21.12" y="0" fill="#0000ff" fill-rule="nonzero"/>
                            <use xlink:href="#g161F6AFB6E58763D1E79D160BDCEFAFA" x="31.680000000000003" y="0" fill="#0000ff" fill-rule="nonzero"/>
                        </g>
                    </g>
                </g>
                <g class="typst-group" transform="matrix(1 0 0 1 76.64000000000001 66.08)">
                    <g/>
                </g>
                <g class="typst-group" transform="matrix(1 0 0 1 8 77.69600000000001)">
                    <g/>
                </g>
                <g class="typst-group" transform="matrix(1 0 0 1 8 89.31200000000001)">
                    <g/>
                </g>
            </g>
        </g>
    </g>
    <defs id="glyph">
        <symbol id="g4EE50823DE1072B888352BF5ED93E90B" overflow="visible">
            <path d="M 0 0m 0.528 -0.968 l 3.08 8.272 h 1.1439998 l -3.08 -8.272 h -1.1439999 Z "/>
        </symbol>
        <symbol id="g553CA0615203AE7EF2B51E16776E3FE0" overflow="visible">
            <path d="M 0 0m 3.5992 -0.968 l -3.0712 8.272 h 1.1439999 l 3.0712 -8.272 h -1.1439998 Z "/>
        </symbol>
        <symbol id="gB3CB5C71C376FEAC35A5CE3E9D70B056" overflow="visible">
            <path d="M 0 0m 0.528 -1.2144 v 0.9944 h 4.224 v -0.9944 h -4.224 Z "/>
        </symbol>
        <symbol id="gCCDBD5FC51A6BA89CB64A6B230E95E13" overflow="visible">
            <path d="M 0 0m 1.012 -1.056 v 1.1 q 0.7832 0.1848 1.2364 0.814 q 0.4532001 0.62920004 0.4532001 1.5267999 v 1.5752001 q 0 0.8976002 -0.4532001 1.5268002 q -0.45319998 0.6292 -1.2364 0.81399965 v 1.0912004 q 1.3376001 -0.31680012 2.0679998 -1.2144003 q 0.7304001 -0.8976002 0.7304001 -2.2175999 v -1.5752001 q 0 -1.3288 -0.7304001 -2.2308 q -0.73039985 -0.902 -2.0679998 -1.21 Z "/>
        </symbol>
        <symbol id="g161F6AFB6E58763D1E79D160BDCEFAFA" overflow="visible">
            <path d="M 0 0m 0.396 2.3936 v 1.0208001 h 3.652 v -1.0208001 h -3.652 Z m -4.444 0 v 1.0208001 h 3.652 v -1.0208001 h -3.652 Z "/>
        </symbol>
        <symbol id="g363496F2D5142F8F4982DAF4CE1D3779" overflow="visible">
            <path d="M 0 0m -4.752 -1.2144 v 0.9944 h 9.504 v -0.9944 h -9.504 Z "/>
        </symbol>
        <symbol id="g7F30B59DCAF383D6B34C412A1FA2300E" overflow="visible">
            <path d="M 0 0m 1.232 2.3936 v 1.0208001 h 2.816 v -1.0208001 h -2.816 Z "/>
        </symbol>
    </defs>
</svg>
