<svg class="typst-doc" viewBox="0 0 128.8264566929134 160.5064566929134" width="128.8264566929134pt" height="160.5064566929134pt" xmlns="http://www.w3.org/2000/svg" xmlns:xlink="http://www.w3.org/1999/xlink" xmlns:h5="http://www.w3.org/1999/xhtml">
    <path class="typst-shape" fill="#ffffff" fill-rule="nonzero" d="M 0 0v 160.50645 h 128.82646 v -160.50645 Z "/>
    <g>
        <g class="typst-group" transform="matrix(1 0 0 1 14.173228346456693 14.173228346456693)">
            <g>
                <path class="typst-shape" fill="#000000" fill-rule="nonzero" d="M 0 0m 0 5 c 0 -2.7614238 2.2385762 -5 5 -5 h 90.48 c 2.7614212 0 5 2.2385762 5 5 v 122.16 c 0 2.7614136 -2.2385788 5 -5 5 h -90.48 c -2.7614238 0 -5 -2.2385864 -5 -5 Z "/>
                <g class="typst-group" transform="matrix(1 0 0 1 8 19.616)">
                    <g/>
                </g>
                <g class="typst-group" transform="matrix(1 0 0 1 8 19.616)">
                    <g/>
                </g>
                <g class="typst-group" transform="matrix(1 0 0 1 8 8)">
                    <g>
                        <g class="typst-text" transform="matrix(1 0 0 -1 0 8.976000000000003)"/>
                    </g>
                </g>
                <g class="typst-group" transform="matrix(1 0 0 1 50.24 8)">
                    <g>
                        <g class="typst-text" transform="matrix(1 0 0 -1 0 8.976000000000003)">
                            <use xlink:href="#gAA916D20060123FCDF49DDE23FB7E4B3" x="0" y="0" fill="#0000ff" fill-rule="nonzero"/>
                            <use xlink:href="#gFD5E24C590020160A507FE1B2B955D0E" x="5.28" y="0" fill="#0000ff" fill-rule="nonzero"/>
                            <use xlink:href="#gFD5E24C590020160A507FE1B2B955D0E" x="10.56" y="0" fill="#0000ff" fill-rule="nonzero"/>
                            <use xlink:href="#gFD5E24C590020160A507FE1B2B955D0E" x="15.84" y="0" fill="#0000ff" fill-rule="nonzero"/>
                            <use xlink:href="#gFD5E24C590020160A507FE1B2B955D0E" x="21.12" y="0" fill="#0000ff" fill-rule="nonzero"/>
                            <use xlink:href="#gFD5E24C590020160A507FE1B2B955D0E" x="26.400000000000002" y="0" fill="#0000ff" fill-rule="nonzero"/>
                            <use xlink:href="#gEB20B197638B23C20845973F58CB19AC" x="31.680000000000003" y="0" fill="#0000ff" fill-rule="nonzero"/>
                        </g>
                    </g>
                </g>
                <g class="typst-group" transform="matrix(1 0 0 1 92.48 8)">
                    <g/>
                </g>
                <g class="typst-group" transform="matrix(1 0 0 1 8 31.232000000000003)">
                    <g/>
                </g>
                <g class="typst-group" transform="matrix(1 0 0 1 8 31.232000000000003)">
                    <g/>
                </g>
                <g class="typst-group" transform="matrix(1 0 0 1 8 19.616)">
                    <g>
                        <g class="typst-text" transform="matrix(1 0 0 -1 0 8.976000000000003)"/>
                    </g>
                </g>
                <g class="typst-group" transform="matrix(1 0 0 1 44.96 19.616)">
                    <g>
                        <g class="typst-text" transform="matrix(1 0 0 -1 0 8.976000000000003)">
                            <use xlink:href="#gD7BC2388059FC0B3DF9C32F4768A0A47" x="0" y="0" fill="#0000ff" fill-rule="nonzero"/>
                            <use xlink:href="#gAA916D20060123FCDF49DDE23FB7E4B3" x="21.12" y="0" fill="#0000ff" fill-rule="nonzero"/>
                            <use xlink:href="#gEB20B197638B23C20845973F58CB19AC" x="26.400000000000002" y="0" fill="#0000ff" fill-rule="nonzero"/>
                            <use xlink:href="#gD7BC2388059FC0B3DF9C32F4768A0A47" x="42.24" y="0" fill="#0000ff" fill-rule="nonzero"/>
                        </g>
                    </g>
                </g>
                <g class="typst-group" transform="matrix(1 0 0 1 92.48 19.616)">
                    <g/>
                </g>
                <g class="typst-group" transform="matrix(1 0 0 1 8 42.848000000000006)">
                    <g/>
                </g>
                <g class="typst-group" transform="matrix(1 0 0 1 8 42.848000000000006)">
                    <g/>
                </g>
                <g class="typst-group" transform="matrix(1 0 0 1 8 31.232000000000003)">
                    <g>
                        <g class="typst-text" transform="matrix(1 0 0 -1 0 8.976000000000003)"/>
                    </g>
                </g>
                <g class="typst-group" transform="matrix(1 0 0 1 44.96 31.232000000000003)">
                    <g>
                        <g class="typst-text" transform="matrix(1 0 0 -1 0 8.976000000000003)">
                            <use xlink:href="#gD7BC2388059FC0B3DF9C32F4768A0A47" x="0" y="0" fill="#0000ff" fill-rule="nonzero"/>
                            <use xlink:href="#gD7BC2388059FC0B3DF9C32F4768A0A47" x="15.84" y="0" fill="#0000ff" fill-rule="nonzero"/>
                            <use xlink:href="#gFD5E24C590020160A507FE1B2B955D0E" x="31.680000000000003" y="0" fill="#0000ff" fill-rule="nonzero"/>
                            <use xlink:href="#gB3CB5C71C376FEAC35A5CE3E9D70B056" x="36.96" y="0" fill="#0000ff" fill-rule="nonzero"/>
                            <use xlink:href="#gFD5E24C590020160A507FE1B2B955D0E" x="42.24" y="0" fill="#0000ff" fill-rule="nonzero"/>
                        </g>
                    </g>
                </g>
                <g class="typst-group" transform="matrix(1 0 0 1 92.48 31.232000000000003)">
                    <g/>
                </g>
                <g class="typst-group" transform="matrix(1 0 0 1 8 54.464000000000006)">
                    <g/>
                </g>
                <g class="typst-group" transform="matrix(1 0 0 1 8 54.464000000000006)">
                    <g/>
                </g>
                <g class="typst-group" transform="matrix(1 0 0 1 8 54.464000000000006)">
                    <g/>
                </g>
                <g class="typst-group" transform="matrix(1 0 0 1 8 42.848000000000006)">
                    <g>
                        <g class="typst-text" transform="matrix(1 0 0 -1 0 8.976000000000003)">
                            <use xlink:href="#gAA916D20060123FCDF49DDE23FB7E4B3" x="10.56" y="0" fill="#0000ff" fill-rule="nonzero"/>
                            <use xlink:href="#gEB20B197638B23C20845973F58CB19AC" x="15.84" y="0" fill="#0000ff" fill-rule="nonzero"/>
                            <use xlink:href="#gEB20B197638B23C20845973F58CB19AC" x="21.12" y="0" fill="#0000ff" fill-rule="nonzero"/>
                            <use xlink:href="#gEB20B197638B23C20845973F58CB19AC" x="26.400000000000002" y="0" fill="#0000ff" fill-rule="nonzero"/>
                            <use xlink:href="#gEB20B197638B23C20845973F58CB19AC" x="31.680000000000003" y="0" fill="#0000ff" fill-rule="nonzero"/>
                            <use xlink:href="#gD7BC2388059FC0B3DF9C32F4768A0A47" x="36.96" y="0" fill="#0000ff" fill-rule="nonzero"/>
                            <use xlink:href="#gD7BC2388059FC0B3DF9C32F4768A0A47" x="52.800000000000004" y="0" fill="#0000ff" fill-rule="nonzero"/>
                            <use xlink:href="#g8D75FB073A7E7BB5ADF4E483BC2F0799" x="63.36000000000001" y="0" fill="#0000ff" fill-rule="nonzero"/>
                        </g>
                    </g>
                </g>
                <g class="typst-group" transform="matrix(1 0 0 1 92.48 42.848000000000006)">
                    <g/>
                </g>
                <g class="typst-group" transform="matrix(1 0 0 1 8 66.08)">
                    <g/>
                </g>
                <g class="typst-group" transform="matrix(1 0 0 1 8 66.08)">
                    <g/>
                </g>
                <g class="typst-group" transform="matrix(1 0 0 1 8 66.08)">
                    <g/>
                </g>
                <g class="typst-group" transform="matrix(1 0 0 1 8 54.464000000000006)">
                    <g>
                        <g class="typst-text" transform="matrix(1 0 0 -1 0 8.976000000000003)">
                            <use xlink:href="#gEB20B197638B23C20845973F58CB19AC" x="0" y="0" fill="#0000ff" fill-rule="nonzero"/>
                            <use xlink:href="#gFD5E24C590020160A507FE1B2B955D0E" x="5.28" y="0" fill="#0000ff" fill-rule="nonzero"/>
                            <use xlink:href="#gAA916D20060123FCDF49DDE23FB7E4B3" x="21.12" y="0" fill="#0000ff" fill-rule="nonzero"/>
                            <use xlink:href="#gB3CB5C71C376FEAC35A5CE3E9D70B056" x="26.400000000000002" y="0" fill="#0000ff" fill-rule="nonzero"/>
                            <use xlink:href="#gF487734A8DAA53A2D2317E425E86F6B1" x="31.680000000000003" y="0" fill="#0000ff" fill-rule="nonzero"/>
                            <use xlink:href="#gD7BC2388059FC0B3DF9C32F4768A0A47" x="36.96" y="0" fill="#0000ff" fill-rule="nonzero"/>
                            <use xlink:href="#g8D75FB073A7E7BB5ADF4E483BC2F0799" x="63.36000000000001" y="0" fill="#0000ff" fill-rule="nonzero"/>
                            <use xlink:href="#gFD5E24C590020160A507FE1B2B955D0E" x="68.64" y="0" fill="#0000ff" fill-rule="nonzero"/>
                        </g>
                    </g>
                </g>
                <g class="typst-group" transform="matrix(1 0 0 1 92.48 54.464000000000006)">
                    <g/>
                </g>
                <g class="typst-group" transform="matrix(1 0 0 1 8 77.69600000000001)">
                    <g/>
                </g>
                <g class="typst-group" transform="matrix(1 0 0 1 8 77.69600000000001)">
                    <g/>
                </g>
                <g class="typst-group" transform="matrix(1 0 0 1 8 77.69600000000001)">
                    <g/>
                </g>
                <g class="typst-group" transform="matrix(1 0 0 1 8 66.08)">
                    <g>
                        <g class="typst-text" transform="matrix(1 0 0 -1 0 8.976000000000003)">
                            <use xlink:href="#gD7BC2388059FC0B3DF9C32F4768A0A47" x="0" y="0" fill="#0000ff" fill-rule="nonzero"/>
                            <use xlink:href="#gD7BC2388059FC0B3DF9C32F4768A0A47" x="15.84" y="0" fill="#0000ff" fill-rule="nonzero"/>
                            <use xlink:href="#gD7BC2388059FC0B3DF9C32F4768A0A47" x="36.96" y="0" fill="#0000ff" fill-rule="nonzero"/>
                            <use xlink:href="#gD7BC2388059FC0B3DF9C32F4768A0A47" x="52.800000000000004" y="0" fill="#0000ff" fill-rule="nonzero"/>
                        </g>
                    </g>
                </g>
                <g class="typst-group" transform="matrix(1 0 0 1 92.48 66.08)">
                    <g/>
                </g>
                <g class="typst-group" transform="matrix(1 0 0 1 8 89.31200000000001)">
                    <g/>
                </g>
                <g class="typst-group" transform="matrix(1 0 0 1 8 89.31200000000001)">
                    <g/>
                </g>
                <g class="typst-group" transform="matrix(1 0 0 1 8 89.31200000000001)">
                    <g/>
                </g>
                <g class="typst-group" transform="matrix(1 0 0 1 8 77.69600000000001)">
                    <g>
                        <g class="typst-text" transform="matrix(1 0 0 -1 0 8.976000000000003)">
                            <use xlink:href="#gD7BC2388059FC0B3DF9C32F4768A0A47" x="0" y="0" fill="#0000ff" fill-rule="nonzero"/>
                            <use xlink:href="#gFD5E24C590020160A507FE1B2B955D0E" x="15.84" y="0" fill="#0000ff" fill-rule="nonzero"/>
                            <use xlink:href="#gAA916D20060123FCDF49DDE23FB7E4B3" x="21.12" y="0" fill="#0000ff" fill-rule="nonzero"/>
                            <use xlink:href="#gB3CB5C71C376FEAC35A5CE3E9D70B056" x="26.400000000000002" y="0" fill="#0000ff" fill-rule="nonzero"/>
                            <use xlink:href="#gAA916D20060123FCDF49DDE23FB7E4B3" x="31.680000000000003" y="0" fill="#0000ff" fill-rule="nonzero"/>
                            <use xlink:href="#gFD5E24C590020160A507FE1B2B955D0E" x="36.96" y="0" fill="#0000ff" fill-rule="nonzero"/>
                            <use xlink:href="#gD7BC2388059FC0B3DF9C32F4768A0A47" x="52.800000000000004" y="0" fill="#0000ff" fill-rule="nonzero"/>
                        </g>
                    </g>
                </g>
                <g class="typst-group" transform="matrix(1 0 0 1 92.48 77.69600000000001)">
                    <g/>
                </g>
                <g class="typst-group" transform="matrix(1 0 0 1 8 100.92800000000001)">
                    <g/>
                </g>
                <g class="typst-group" transform="matrix(1 0 0 1 8 100.92800000000001)">
                    <g/>
                </g>
                <g class="typst-group" transform="matrix(1 0 0 1 8 100.92800000000001)">
                    <g/>
                </g>
                <g class="typst-group" transform="matrix(1 0 0 1 8 89.31200000000001)">
                    <g>
                        <g class="typst-text" transform="matrix(1 0 0 -1 0 8.976000000000003)">
                            <use xlink:href="#gFD5E24C590020160A507FE1B2B955D0E" x="5.28" y="0" fill="#0000ff" fill-rule="nonzero"/>
                            <use xlink:href="#gEB20B197638B23C20845973F58CB19AC" x="10.56" y="0" fill="#0000ff" fill-rule="nonzero"/>
                            <use xlink:href="#gAA916D20060123FCDF49DDE23FB7E4B3" x="42.24" y="0" fill="#0000ff" fill-rule="nonzero"/>
                            <use xlink:href="#gFD5E24C590020160A507FE1B2B955D0E" x="47.52" y="0" fill="#0000ff" fill-rule="nonzero"/>
                        </g>
                    </g>
                </g>
                <g class="typst-group" transform="matrix(1 0 0 1 92.48 89.31200000000001)">
                    <g/>
                </g>
                <g class="typst-group" transform="matrix(1 0 0 1 8 112.54400000000001)">
                    <g/>
                </g>
                <g class="typst-group" transform="matrix(1 0 0 1 8 112.54400000000001)">
                    <g/>
                </g>
                <g class="typst-group" transform="matrix(1 0 0 1 8 100.92800000000001)">
                    <g>
                        <g class="typst-text" transform="matrix(1 0 0 -1 0 8.976000000000003)"/>
                    </g>
                </g>
                <g class="typst-group" transform="matrix(1 0 0 1 23.840000000000003 100.92800000000001)">
                    <g>
                        <g class="typst-text" transform="matrix(1 0 0 -1 0 8.976000000000003)">
                            <use xlink:href="#gFD5E24C590020160A507FE1B2B955D0E" x="0" y="0" fill="#0000ff" fill-rule="nonzero"/>
                            <use xlink:href="#gFD5E24C590020160A507FE1B2B955D0E" x="5.28" y="0" fill="#0000ff" fill-rule="nonzero"/>
                            <use xlink:href="#gFD5E24C590020160A507FE1B2B955D0E" x="10.56" y="0" fill="#0000ff" fill-rule="nonzero"/>
                            <use xlink:href="#gFD5E24C590020160A507FE1B2B955D0E" x="15.84" y="0" fill="#0000ff" fill-rule="nonzero"/>
                            <use xlink:href="#gFD5E24C590020160A507FE1B2B955D0E" x="21.12" y="0" fill="#0000ff" fill-rule="nonzero"/>
                        </g>
                    </g>
                </g>
                <g class="typst-group" transform="matrix(1 0 0 1 92.48000000000002 100.92800000000001)">
                    <g/>
                </g>
                <g class="typst-group" transform="matrix(1 0 0 1 8 112.54400000000001)">
                    <g/>
                </g>
                <g class="typst-group" transform="matrix(1 0 0 1 8 124.16000000000001)">
                    <g/>
                </g>
            </g>
        </g>
    </g>
    <defs id="glyph">
        <symbol id="gAA916D20060123FCDF49DDE23FB7E4B3" overflow="visible">
            <path d="M 0 0m 1.6719999 -1.408 l 0.46640015 2.6928 h 1.2584 l -0.6688001 -2.6928 h -1.056 Z "/>
        </symbol>
        <symbol id="gFD5E24C590020160A507FE1B2B955D0E" overflow="visible">
            <path d="M 0 0m 2.1296 3.784 l -0.07920003 2.6399999 h 1.1791999 l -0.0704 -2.6399999 h -1.0295999 Z "/>
        </symbol>
        <symbol id="gEB20B197638B23C20845973F58CB19AC" overflow="visible">
            <path d="M 0 0m 2.6399999 -0.088 q -0.36959982 0 -0.59399986 0.2244 q -0.22440004 0.2244 -0.22440004 0.5852 q 0 0.36079997 0.22440004 0.5896 q 0.22440004 0.22879994 0.59399986 0.22879994 q 0.36960006 0 0.5940001 -0.22879994 q 0.22440004 -0.22880006 0.22440004 -0.5896 q 0 -0.3608 -0.22440004 -0.5852 q -0.22440004 -0.2244 -0.5940001 -0.2244 Z "/>
        </symbol>
        <symbol id="gD7BC2388059FC0B3DF9C32F4768A0A47" overflow="visible">
            <path d="M 0 0m 2.0856 -0.968 v 8.272 h 1.1088002 v -8.272 h -1.1088002 Z "/>
        </symbol>
        <symbol id="gB3CB5C71C376FEAC35A5CE3E9D70B056" overflow="visible">
            <path d="M 0 0m 0.528 -1.2144 v 0.9944 h 4.224 v -0.9944 h -4.224 Z "/>
        </symbol>
        <symbol id="g8D75FB073A7E7BB5ADF4E483BC2F0799" overflow="visible">
            <path d="M 0 0m -1.9272 -0.088 q -0.36959994 0 -0.594 0.2244 q -0.22440004 0.2244 -0.22440004 0.5852 q 0 0.36079997 0.22440004 0.5896 q 0.22440004 0.22879994 0.594 0.22879994 q 0.36959994 0 0.594 -0.22879994 q 0.22440004 -0.22880006 0.22440004 -0.5896 q 0 -0.3608 -0.22440004 -0.5852 q -0.22440004 -0.2244 -0.594 -0.2244 Z m 3.8632 0 q -0.36959994 0 -0.594 0.2244 q -0.22440004 0.2244 -0.22440004 0.5852 q 0 0.36079997 0.22440004 0.5896 q 0.22440004 0.22879994 0.594 0.22879994 q 0.36959994 0 0.594 -0.22879994 q 0.22440004 -0.22880006 0.22440004 -0.5896 q 0 -0.3608 -0.22440004 -0.5852 q -0.22440004 -0.2244 -0.594 -0.2244 Z "/>
        </symbol>
        <symbol id="gF487734A8DAA53A2D2317E425E86F6B1" overflow="visible">
            <path d="M 0 0m 2.552 3.4496 q -0.32560015 0 -0.53240013 0.2112 q -0.20679998 0.2112 -0.20679998 0.5279999 q 0 0.31680012 0.2112 0.5279999 q 0.2112 0.21120024 0.5280001 0.21120024 h 0.17599988 q 0.31680012 0 0.5280001 -0.21120024 q 0.2112 -0.21119976 0.2112 -0.5279999 q 0 -0.31679988 -0.20679998 -0.5279999 q -0.20679998 -0.2112 -0.53240013 -0.2112 h -0.17599988 Z m -0.924 -4.8576 l 0.4663999 2.6928 h 1.2584 l -0.6687999 -2.6928 h -1.056 Z "/>
        </symbol>
    </defs>
</svg>
