<svg class="typst-doc" viewBox="0 0 112.9864566929134 125.6584566929134" width="112.9864566929134pt" height="125.6584566929134pt" xmlns="http://www.w3.org/2000/svg" xmlns:xlink="http://www.w3.org/1999/xlink" xmlns:h5="http://www.w3.org/1999/xhtml">
    <path class="typst-shape" fill="#ffffff" fill-rule="nonzero" d="M 0 0v 125.658455 h 112.98646 v -125.658455 Z "/>
    <g>
        <g class="typst-group" transform="matrix(1 0 0 1 14.173228346456693 14.173228346456693)">
            <g>
                <path class="typst-shape" fill="#000000" fill-rule="nonzero" d="M 0 0m 0 5 c 0 -2.7614238 2.2385762 -5 5 -5 h 74.64 c 2.7614212 0 5 2.2385762 5 5 v 87.312 c 0 2.7614288 -2.2385788 5 -5 5 h -74.64 c -2.7614238 0 -5 -2.2385712 -5 -5 Z "/>
                <g class="typst-group" transform="matrix(1 0 0 1 8 19.616)">
                    <g/>
                </g>
                <g class="typst-group" transform="matrix(1 0 0 1 8 19.616)">
                    <g/>
                </g>
                <g class="typst-group" transform="matrix(1 0 0 1 8 8)">
                    <g>
                        <g class="typst-text" transform="matrix(1 0 0 -1 0 8.976000000000003)">
                            <use xlink:href="#g631A384CAFCBE62688CFE764B7FFA88A" x="15.84" y="0" fill="#ffffff" fill-rule="nonzero"/>
                        </g>
                    </g>
                </g>
                <g class="typst-group" transform="matrix(1 0 0 1 29.12 8)">
                    <g>
                        <g class="typst-text" transform="matrix(1 0 0 -1 0 8.976000000000003)">
                            <use xlink:href="#g2A273DD274C0C070619BC427BBFAFAD" x="0" y="0" fill="#ffff00" fill-rule="nonzero"/>
                            <use xlink:href="#gF576B63931F8766E487E66C79504F668" x="10.56" y="0" fill="#ffff00" fill-rule="nonzero"/>
                        </g>
                    </g>
                </g>
                <g class="typst-group" transform="matrix(1 0 0 1 44.96 8)">
                    <g>
                        <g class="typst-text" transform="matrix(1 0 0 -1 0 8.976000000000003)">
                            <use xlink:href="#g394A9A1A0F3923DD318435562CD8A156" x="0" y="0" fill="#ffffff" fill-rule="nonzero"/>
                            <use xlink:href="#g7F30B59DCAF383D6B34C412A1FA2300E" x="5.28" y="0" fill="#ffffff" fill-rule="nonzero"/>
                            <use xlink:href="#g7F30B59DCAF383D6B34C412A1FA2300E" x="10.56" y="0" fill="#ffffff" fill-rule="nonzero"/>
                            <use xlink:href="#g7F30B59DCAF383D6B34C412A1FA2300E" x="15.84" y="0" fill="#ffffff" fill-rule="nonzero"/>
                            <use xlink:href="#g7F30B59DCAF383D6B34C412A1FA2300E" x="21.12" y="0" fill="#ffffff" fill-rule="nonzero"/>
                        </g>
                    </g>
                </g>
                <g class="typst-group" transform="matrix(1 0 0 1 76.64 8)">
                    <g/>
                </g>
                <g class="typst-group" transform="matrix(1 0 0 1 8 31.232000000000003)">
                    <g/>
                </g>
                <g class="typst-group" transform="matrix(1 0 0 1 8 31.232000000000003)">
                    <g/>
                </g>
                <g class="typst-group" transform="matrix(1 0 0 1 8 31.232000000000003)">
                    <g/>
                </g>
                <g class="typst-group" transform="matrix(1 0 0 1 8 19.616)">
                    <g>
                        <g class="typst-text" transform="matrix(1 0 0 -1 0 8.976000000000003)">
                            <use xlink:href="#g1DD39D4DBC4E707CA02FA0969C4E4C2" x="5.28" y="0" fill="#ffffff" fill-rule="nonzero"/>
                            <use xlink:href="#gD7BC2388059FC0B3DF9C32F4768A0A47" x="26.400000000000002" y="0" fill="#ffffff" fill-rule="nonzero"/>
                            <use xlink:href="#gD7BC2388059FC0B3DF9C32F4768A0A47" x="63.36000000000001" y="0" fill="#ffffff" fill-rule="nonzero"/>
                        </g>
                    </g>
                </g>
                <g class="typst-group" transform="matrix(1 0 0 1 76.64000000000001 19.616)">
                    <g/>
                </g>
                <g class="typst-group">
                    <g>
                        <g class="typst-group" transform="matrix(1 0 0 1 8 42.848000000000006)">
                            <g/>
                        </g>
                        <g class="typst-group" transform="matrix(1 0 0 1 8 42.848000000000006)">
                            <g/>
                        </g>
                        <g class="typst-group" transform="matrix(1 0 0 1 8 42.848000000000006)">
                            <g/>
                        </g>
                        <g class="typst-group" transform="matrix(1 0 0 1 8 31.232000000000003)">
                            <g>
                                <g class="typst-text" transform="matrix(1 0 0 -1 0 8.976000000000003)">
                                    <use xlink:href="#g2A273DD274C0C070619BC427BBFAFAD" x="0" y="0" fill="#ffff00" fill-rule="nonzero"/>
                                    <use xlink:href="#gF576B63931F8766E487E66C79504F668" x="10.56" y="0" fill="#ffff00" fill-rule="nonzero"/>
                                </g>
                            </g>
                        </g>
                        <g class="typst-group" transform="matrix(1 0 0 1 23.840000000000003 31.232000000000003)">
                            <g>
                                <g class="typst-text" transform="matrix(1 0 0 -1 0 8.976000000000003)">
                                    <use xlink:href="#g631A384CAFCBE62688CFE764B7FFA88A" x="21.12" y="0" fill="#ffffff" fill-rule="nonzero"/>
                                    <use xlink:href="#gCC0D317154CCA833F2BC9C86696866BB" x="26.400000000000002" y="0" fill="#ffffff" fill-rule="nonzero"/>
                                </g>
                            </g>
                        </g>
                        <g class="typst-group" transform="matrix(1 0 0 1 55.52000000000001 31.232000000000003)">
                            <g>
                                <g class="typst-text" transform="matrix(1 0 0 -1 0 8.976000000000003)">
                                    <use xlink:href="#g2A273DD274C0C070619BC427BBFAFAD" x="0" y="0" fill="#ffff00" fill-rule="nonzero"/>
                                    <use xlink:href="#gF576B63931F8766E487E66C79504F668" x="10.56" y="0" fill="#ffff00" fill-rule="nonzero"/>
                                </g>
                            </g>
                        </g>
                        <g class="typst-group" transform="matrix(1 0 0 1 71.36000000000001 31.232000000000003)">
                            <g>
                                <g class="typst-text" transform="matrix(1 0 0 -1 0 8.976000000000003)">
                                    <use xlink:href="#gD7BC2388059FC0B3DF9C32F4768A0A47" x="0" y="0" fill="#ffffff" fill-rule="nonzero"/>
                                </g>
                            </g>
                        </g>
                        <g class="typst-group" transform="matrix(1 0 0 1 76.64 31.232000000000003)">
                            <g/>
                        </g>
                    </g>
                </g>
                <g class="typst-group" transform="matrix(1 0 0 1 8 54.464000000000006)">
                    <g/>
                </g>
                <g class="typst-group" transform="matrix(1 0 0 1 8 54.464000000000006)">
                    <g/>
                </g>
                <g class="typst-group" transform="matrix(1 0 0 1 8 54.464000000000006)">
                    <g/>
                </g>
                <g class="typst-group" transform="matrix(1 0 0 1 8 42.848000000000006)">
                    <g>
                        <g class="typst-text" transform="matrix(1 0 0 -1 0 8.976000000000003)">
                            <use xlink:href="#g689AC205999FB3D3BCEB3E546391F2C3" x="5.28" y="0" fill="#ffffff" fill-rule="nonzero"/>
                            <use xlink:href="#gD7BC2388059FC0B3DF9C32F4768A0A47" x="52.800000000000004" y="0" fill="#ffffff" fill-rule="nonzero"/>
                            <use xlink:href="#gD7BC2388059FC0B3DF9C32F4768A0A47" x="63.36000000000001" y="0" fill="#ffffff" fill-rule="nonzero"/>
                        </g>
                    </g>
                </g>
                <g class="typst-group" transform="matrix(1 0 0 1 76.64000000000001 42.848000000000006)">
                    <g/>
                </g>
                <g class="typst-group">
                    <g>
                        <g class="typst-group" transform="matrix(1 0 0 1 8 66.08000000000001)">
                            <g/>
                        </g>
                        <g class="typst-group" transform="matrix(1 0 0 1 8 66.08000000000001)">
                            <g/>
                        </g>
                        <g class="typst-group" transform="matrix(1 0 0 1 8 66.08000000000001)">
                            <g/>
                        </g>
                        <g class="typst-group" transform="matrix(1 0 0 1 8 54.464000000000006)">
                            <g>
                                <g class="typst-text" transform="matrix(1 0 0 -1 0 8.976000000000003)">
                                    <use xlink:href="#gD7BC2388059FC0B3DF9C32F4768A0A47" x="5.28" y="0" fill="#ffffff" fill-rule="nonzero"/>
                                </g>
                            </g>
                        </g>
                        <g class="typst-group" transform="matrix(1 0 0 1 29.12 54.464000000000006)">
                            <g>
                                <g class="typst-text" transform="matrix(1 0 0 -1 0 8.976000000000003)">
                                    <use xlink:href="#g2A273DD274C0C070619BC427BBFAFAD" x="0" y="0" fill="#ffff00" fill-rule="nonzero"/>
                                    <use xlink:href="#gF576B63931F8766E487E66C79504F668" x="10.56" y="0" fill="#ffff00" fill-rule="nonzero"/>
                                </g>
                            </g>
                        </g>
                        <g class="typst-group" transform="matrix(1 0 0 1 44.96 54.464000000000006)">
                            <g>
                                <g class="typst-text" transform="matrix(1 0 0 -1 0 8.976000000000003)">
                                    <use xlink:href="#g631A384CAFCBE62688CFE764B7FFA88A" x="10.56" y="0" fill="#ffffff" fill-rule="nonzero"/>
                                    <use xlink:href="#gD7BC2388059FC0B3DF9C32F4768A0A47" x="15.84" y="0" fill="#ffffff" fill-rule="nonzero"/>
                                    <use xlink:href="#g161F6AFB6E58763D1E79D160BDCEFAFA" x="26.400000000000002" y="0" fill="#ffffff" fill-rule="nonzero"/>
                                </g>
                            </g>
                        </g>
                        <g class="typst-group" transform="matrix(1 0 0 1 76.64 54.464000000000006)">
                            <g/>
                        </g>
                    </g>
                </g>
                <g class="typst-group" transform="matrix(1 0 0 1 8 77.69600000000001)">
                    <g/>
                </g>
                <g class="typst-group" transform="matrix(1 0 0 1 8 77.69600000000001)">
                    <g/>
                </g>
                <g class="typst-group" transform="matrix(1 0 0 1 8 77.69600000000001)">
                    <g/>
                </g>
                <g class="typst-group" transform="matrix(1 0 0 1 8 66.08)">
                    <g>
                        <g class="typst-text" transform="matrix(1 0 0 -1 0 8.976000000000003)">
                            <use xlink:href="#g7F30B59DCAF383D6B34C412A1FA2300E" x="10.56" y="0" fill="#ffffff" fill-rule="nonzero"/>
                            <use xlink:href="#g7F30B59DCAF383D6B34C412A1FA2300E" x="15.84" y="0" fill="#ffffff" fill-rule="nonzero"/>
                            <use xlink:href="#g7F30B59DCAF383D6B34C412A1FA2300E" x="21.12" y="0" fill="#ffffff" fill-rule="nonzero"/>
                            <use xlink:href="#g7F30B59DCAF383D6B34C412A1FA2300E" x="26.400000000000002" y="0" fill="#ffffff" fill-rule="nonzero"/>
                            <use xlink:href="#g7F30B59DCAF383D6B34C412A1FA2300E" x="31.680000000000003" y="0" fill="#ffffff" fill-rule="nonzero"/>
                            <use xlink:href="#g7F30B59DCAF383D6B34C412A1FA2300E" x="36.96" y="0" fill="#ffffff" fill-rule="nonzero"/>
                            <use xlink:href="#g7F30B59DCAF383D6B34C412A1FA2300E" x="42.24" y="0" fill="#ffffff" fill-rule="nonzero"/>
                            <use xlink:href="#g7F30B59DCAF383D6B34C412A1FA2300E" x="47.52" y="0" fill="#ffffff" fill-rule="nonzero"/>
                            <use xlink:href="#g7F30B59DCAF383D6B34C412A1FA2300E" x="52.800000000000004" y="0" fill="#ffffff" fill-rule="nonzero"/>
                        </g>
                    </g>
                </g>
                <g class="typst-group" transform="matrix(1 0 0 1 76.64000000000001 66.08)">
                    <g/>
                </g>
                <g class="typst-group" transform="matrix(1 0 0 1 8 77.69600000000001)">
                    <g/>
                </g>
                <g class="typst-group" transform="matrix(1 0 0 1 8 89.31200000000001)">
                    <g/>
                </g>
            </g>
        </g>
    </g>
    <defs id="glyph">
        <symbol id="g631A384CAFCBE62688CFE764B7FFA88A" overflow="visible">
            <path d="M 0 0m 0.132 2.3936 v 1.0208001 h 3.916 v -1.0208001 h -3.916 Z m -9.46 0 v 1.0208001 h 3.916 v -1.0208001 h -3.916 Z m 4.752 0 v 1.0208001 h 3.8720002 v -1.0208001 h -3.8720002 Z "/>
        </symbol>
        <symbol id="g2A273DD274C0C070619BC427BBFAFAD" overflow="visible">
            <path d="M 0 0m 1.628 -0.968 v 8.272 h 2.464 v -1.0120001 h -1.3640001 v -6.2479997 h 1.3640001 v -1.012 h -2.464 Z "/>
        </symbol>
        <symbol id="gF576B63931F8766E487E66C79504F668" overflow="visible">
            <path d="M 0 0m 1.188 -0.968 v 1.012 h 1.3640001 v 6.2479997 h -1.3640001 v 1.0120001 h 2.464 v -8.272 h -2.464 Z "/>
        </symbol>
        <symbol id="g394A9A1A0F3923DD318435562CD8A156" overflow="visible">
            <path d="M 0 0m 4.6112 0.4928 l -3.9424 1.8568001 v 1.0999999 l 3.9424 1.8567998 v -1.0119996 l -2.5519998 -1.1792002 q -0.17600012 -0.07920003 -0.3476001 -0.13639998 q -0.17159998 -0.057200193 -0.26839995 -0.074800014 q 0.09679997 -0.01760006 0.27279997 -0.0704 q 0.176 -0.05280018 0.3432001 -0.13199997 l 2.5519998 -1.1792 v -1.0296 Z "/>
        </symbol>
        <symbol id="g7F30B59DCAF383D6B34C412A1FA2300E" overflow="visible">
            <path d="M 0 0m 1.232 2.3936 v 1.0208001 h 2.816 v -1.0208001 h -2.816 Z "/>
        </symbol>
        <symbol id="g1DD39D4DBC4E707CA02FA0969C4E4C2" overflow="visible">
            <path d="M 0 0m 1.9448 0 l -1.628 4.84 h 1.1528 l 0.93280005 -2.9392002 q 0.08800006 -0.26399994 0.15400004 -0.5324 q 0.065999985 -0.26839995 0.092399836 -0.462 q 0.03520012 0.19360006 0.092400074 0.462 q 0.057199955 0.26840007 0.13639998 0.5236 l 0.924 2.9480002 h 1.1616001 l -1.6192002 -4.84 h -1.3991998 Z "/>
        </symbol>
        <symbol id="gD7BC2388059FC0B3DF9C32F4768A0A47" overflow="visible">
            <path d="M 0 0m 2.0856 -0.968 v 8.272 h 1.1088002 v -8.272 h -1.1088002 Z "/>
        </symbol>
        <symbol id="gCC0D317154CCA833F2BC9C86696866BB" overflow="visible">
            <path d="M 0 0m 0.6688 0.4928 v 1.012 l 2.552 1.1792 q 0.17600012 0.07920003 0.34759998 0.13199997 q 0.1716001 0.05279994 0.2684002 0.07920003 q -0.09680009 0.01760006 -0.2728002 0.0704 q -0.17599988 0.05279994 -0.34319997 0.12319994 l -2.552 1.1880002 v 1.0295997 l 3.9424 -1.8567998 v -1.0999999 l -3.9424 -1.8568001 Z "/>
        </symbol>
        <symbol id="g689AC205999FB3D3BCEB3E546391F2C3" overflow="visible">
            <path d="M 0 0m 0.5984 2.992 l 1.5224 3.4319997 h 1.056 l 1.5048001 -3.4319997 h -1.0296001 l -0.8095999 2.0239997 q -0.0704 0.18480015 -0.11880016 0.3564 q -0.048399925 0.17160034 -0.065999985 0.25960016 q -0.02639985 -0.08799982 -0.07920003 -0.25960016 q -0.05279994 -0.17159986 -0.12319994 -0.3564 l -0.83599997 -2.0239997 h -1.0208 Z "/>
        </symbol>
        <symbol id="g161F6AFB6E58763D1E79D160BDCEFAFA" overflow="visible">
            <path d="M 0 0m 0.396 2.3936 v 1.0208001 h 3.652 v -1.0208001 h -3.652 Z m -4.444 0 v 1.0208001 h 3.652 v -1.0208001 h -3.652 Z "/>
        </symbol>
    </defs>
</svg>
