<svg class="typst-doc" viewBox="0 0 134.10645669291338 148.8904566929134" width="134.10645669291338pt" height="148.8904566929134pt" xmlns="http://www.w3.org/2000/svg" xmlns:xlink="http://www.w3.org/1999/xlink" xmlns:h5="http://www.w3.org/1999/xhtml">
    <path class="typst-shape" fill="#ffffff" fill-rule="nonzero" d="M 0 0v 148.89046 h 134.10646 v -148.89046 Z "/>
    <g>
        <g class="typst-group" transform="matrix(1 0 0 1 14.173228346456693 14.173228346456693)">
            <g>
                <path class="typst-shape" fill="#000000" fill-rule="nonzero" d="M 0 0m 0 5 c 0 -2.7614238 2.2385762 -5 5 -5 h 95.76 c 2.7614212 0 5 2.2385762 5 5 v 110.544 c 0 2.7614288 -2.2385788 5 -5 5 h -95.76 c -2.7614238 0 -5 -2.2385712 -5 -5 Z "/>
                <g class="typst-group" transform="matrix(1 0 0 1 8 19.616)">
                    <g/>
                </g>
                <g class="typst-group" transform="matrix(1 0 0 1 8 19.616)">
                    <g/>
                </g>
                <g class="typst-group" transform="matrix(1 0 0 1 8 8)">
                    <g>
                        <g class="typst-text" transform="matrix(1 0 0 -1 0 8.976000000000003)">
                            <use xlink:href="#gAA916D20060123FCDF49DDE23FB7E4B3" x="36.96" y="0" fill="#ffff00" fill-rule="nonzero"/>
                            <use xlink:href="#g689AC205999FB3D3BCEB3E546391F2C3" x="42.24" y="0" fill="#ffff00" fill-rule="nonzero"/>
                            <use xlink:href="#gAA916D20060123FCDF49DDE23FB7E4B3" x="47.52" y="0" fill="#ffff00" fill-rule="nonzero"/>
                        </g>
                    </g>
                </g>
                <g class="typst-group" transform="matrix(1 0 0 1 97.76 8)">
                    <g/>
                </g>
                <g class="typst-group" transform="matrix(1 0 0 1 8 31.232000000000003)">
                    <g/>
                </g>
                <g class="typst-group" transform="matrix(1 0 0 1 8 31.232000000000003)">
                    <g/>
                </g>
                <g class="typst-group" transform="matrix(1 0 0 1 8 19.616)">
                    <g>
                        <g class="typst-text" transform="matrix(1 0 0 -1 0 8.976000000000003)"/>
                    </g>
                </g>
                <g class="typst-group" transform="matrix(1 0 0 1 13.28 19.616)">
                    <g>
                        <g class="typst-text" transform="matrix(1 0 0 -1 0 8.976000000000003)">
                            <use xlink:href="#g4EE50823DE1072B888352BF5ED93E90B" x="26.400000000000002" y="0" fill="#ffff00" fill-rule="nonzero"/>
                            <use xlink:href="#g553CA0615203AE7EF2B51E16776E3FE0" x="47.52" y="0" fill="#ffff00" fill-rule="nonzero"/>
                        </g>
                    </g>
                </g>
                <g class="typst-group" transform="matrix(1 0 0 1 97.76 19.616)">
                    <g/>
                </g>
                <g class="typst-group" transform="matrix(1 0 0 1 8 42.848000000000006)">
                    <g/>
                </g>
                <g class="typst-group" transform="matrix(1 0 0 1 8 42.848000000000006)">
                    <g/>
                </g>
                <g class="typst-group" transform="matrix(1 0 0 1 8 42.848000000000006)">
                    <g/>
                </g>
                <g class="typst-group" transform="matrix(1 0 0 1 8 31.232000000000003)">
                    <g>
                        <g class="typst-text" transform="matrix(1 0 0 -1 0 8.976000000000003)">
                            <use xlink:href="#g73844AEACD1F735BA3E0A045A5FAC82D" x="0" y="0" fill="#ffff00" fill-rule="nonzero"/>
                            <use xlink:href="#g161F6AFB6E58763D1E79D160BDCEFAFA" x="10.56" y="0" fill="#ffff00" fill-rule="nonzero"/>
                            <use xlink:href="#gB3CB5C71C376FEAC35A5CE3E9D70B056" x="15.84" y="0" fill="#ffff00" fill-rule="nonzero"/>
                            <use xlink:href="#gF487734A8DAA53A2D2317E425E86F6B1" x="26.400000000000002" y="0" fill="#ffff00" fill-rule="nonzero"/>
                            <use xlink:href="#gF487734A8DAA53A2D2317E425E86F6B1" x="58.080000000000005" y="0" fill="#ffff00" fill-rule="nonzero"/>
                            <use xlink:href="#gB3CB5C71C376FEAC35A5CE3E9D70B056" x="68.64" y="0" fill="#ffff00" fill-rule="nonzero"/>
                            <use xlink:href="#g161F6AFB6E58763D1E79D160BDCEFAFA" x="79.2" y="0" fill="#ffff00" fill-rule="nonzero"/>
                            <use xlink:href="#g73844AEACD1F735BA3E0A045A5FAC82D" x="84.48" y="0" fill="#ffff00" fill-rule="nonzero"/>
                        </g>
                    </g>
                </g>
                <g class="typst-group" transform="matrix(1 0 0 1 97.76 31.232000000000003)">
                    <g/>
                </g>
                <g class="typst-group" transform="matrix(1 0 0 1 8 54.464000000000006)">
                    <g/>
                </g>
                <g class="typst-group" transform="matrix(1 0 0 1 8 54.464000000000006)">
                    <g/>
                </g>
                <g class="typst-group" transform="matrix(1 0 0 1 8 54.464000000000006)">
                    <g/>
                </g>
                <g class="typst-group" transform="matrix(1 0 0 1 8 42.848000000000006)">
                    <g>
                        <g class="typst-text" transform="matrix(1 0 0 -1 0 8.976000000000003)">
                            <use xlink:href="#g553CA0615203AE7EF2B51E16776E3FE0" x="0" y="0" fill="#ffff00" fill-rule="nonzero"/>
                            <use xlink:href="#gFD5E24C590020160A507FE1B2B955D0E" x="21.12" y="0" fill="#ffff00" fill-rule="nonzero"/>
                            <use xlink:href="#gD7A02C1C897F9E3A321398548C8C8B03" x="26.400000000000002" y="0" fill="#ffff00" fill-rule="nonzero"/>
                            <use xlink:href="#gD7A02C1C897F9E3A321398548C8C8B03" x="58.080000000000005" y="0" fill="#ffff00" fill-rule="nonzero"/>
                            <use xlink:href="#gFD5E24C590020160A507FE1B2B955D0E" x="63.36000000000001" y="0" fill="#ffff00" fill-rule="nonzero"/>
                            <use xlink:href="#g4EE50823DE1072B888352BF5ED93E90B" x="84.48" y="0" fill="#ffff00" fill-rule="nonzero"/>
                        </g>
                    </g>
                </g>
                <g class="typst-group" transform="matrix(1 0 0 1 97.76 42.848000000000006)">
                    <g/>
                </g>
                <g class="typst-group" transform="matrix(1 0 0 1 8 66.08)">
                    <g/>
                </g>
                <g class="typst-group" transform="matrix(1 0 0 1 8 66.08)">
                    <g/>
                </g>
                <g class="typst-group" transform="matrix(1 0 0 1 8 54.464000000000006)">
                    <g>
                        <g class="typst-text" transform="matrix(1 0 0 -1 0 8.976000000000003)"/>
                    </g>
                </g>
                <g class="typst-group" transform="matrix(1 0 0 1 13.28 54.464000000000006)">
                    <g>
                        <g class="typst-text" transform="matrix(1 0 0 -1 0 8.976000000000003)">
                            <use xlink:href="#gFD5E24C590020160A507FE1B2B955D0E" x="0" y="0" fill="#ffff00" fill-rule="nonzero"/>
                            <use xlink:href="#gEB20B197638B23C20845973F58CB19AC" x="5.28" y="0" fill="#ffff00" fill-rule="nonzero"/>
                            <use xlink:href="#gEB20B197638B23C20845973F58CB19AC" x="68.64" y="0" fill="#ffff00" fill-rule="nonzero"/>
                            <use xlink:href="#gFD5E24C590020160A507FE1B2B955D0E" x="73.92" y="0" fill="#ffff00" fill-rule="nonzero"/>
                        </g>
                    </g>
                </g>
                <g class="typst-group" transform="matrix(1 0 0 1 97.76 54.464000000000006)">
                    <g/>
                </g>
                <g class="typst-group" transform="matrix(1 0 0 1 8 77.69600000000001)">
                    <g/>
                </g>
                <g class="typst-group" transform="matrix(1 0 0 1 8 77.69600000000001)">
                    <g/>
                </g>
                <g class="typst-group" transform="matrix(1 0 0 1 8 77.69600000000001)">
                    <g/>
                </g>
                <g class="typst-group" transform="matrix(1 0 0 1 8 66.08)">
                    <g>
                        <g class="typst-text" transform="matrix(1 0 0 -1 0 8.976000000000003)">
                            <use xlink:href="#gEB20B197638B23C20845973F58CB19AC" x="0" y="0" fill="#ffff00" fill-rule="nonzero"/>
                            <use xlink:href="#g7F30B59DCAF383D6B34C412A1FA2300E" x="5.28" y="0" fill="#ffff00" fill-rule="nonzero"/>
                            <use xlink:href="#gFD5E24C590020160A507FE1B2B955D0E" x="10.56" y="0" fill="#ffff00" fill-rule="nonzero"/>
                            <use xlink:href="#gD7A02C1C897F9E3A321398548C8C8B03" x="15.84" y="0" fill="#ffff00" fill-rule="nonzero"/>
                            <use xlink:href="#gD7A02C1C897F9E3A321398548C8C8B03" x="68.64" y="0" fill="#ffff00" fill-rule="nonzero"/>
                            <use xlink:href="#gFD5E24C590020160A507FE1B2B955D0E" x="73.92" y="0" fill="#ffff00" fill-rule="nonzero"/>
                            <use xlink:href="#g7F30B59DCAF383D6B34C412A1FA2300E" x="79.2" y="0" fill="#ffff00" fill-rule="nonzero"/>
                            <use xlink:href="#gEB20B197638B23C20845973F58CB19AC" x="84.48" y="0" fill="#ffff00" fill-rule="nonzero"/>
                        </g>
                    </g>
                </g>
                <g class="typst-group" transform="matrix(1 0 0 1 97.76 66.08)">
                    <g/>
                </g>
                <g class="typst-group" transform="matrix(1 0 0 1 8 89.31200000000001)">
                    <g/>
                </g>
                <g class="typst-group" transform="matrix(1 0 0 1 8 89.31200000000001)">
                    <g/>
                </g>
                <g class="typst-group" transform="matrix(1 0 0 1 8 77.69600000000001)">
                    <g>
                        <g class="typst-text" transform="matrix(1 0 0 -1 0 8.976000000000003)"/>
                    </g>
                </g>
                <g class="typst-group" transform="matrix(1 0 0 1 13.28 77.69600000000001)">
                    <g>
                        <g class="typst-text" transform="matrix(1 0 0 -1 0 8.976000000000003)">
                            <use xlink:href="#gFD5E24C590020160A507FE1B2B955D0E" x="0" y="0" fill="#ffff00" fill-rule="nonzero"/>
                            <use xlink:href="#g7F30B59DCAF383D6B34C412A1FA2300E" x="5.28" y="0" fill="#ffff00" fill-rule="nonzero"/>
                            <use xlink:href="#gEB20B197638B23C20845973F58CB19AC" x="10.56" y="0" fill="#ffff00" fill-rule="nonzero"/>
                            <use xlink:href="#g363496F2D5142F8F4982DAF4CE1D3779" x="21.12" y="0" fill="#ffff00" fill-rule="nonzero"/>
                            <use xlink:href="#gEB20B197638B23C20845973F58CB19AC" x="26.400000000000002" y="0" fill="#ffff00" fill-rule="nonzero"/>
                            <use xlink:href="#gEB20B197638B23C20845973F58CB19AC" x="47.52" y="0" fill="#ffff00" fill-rule="nonzero"/>
                            <use xlink:href="#g363496F2D5142F8F4982DAF4CE1D3779" x="58.080000000000005" y="0" fill="#ffff00" fill-rule="nonzero"/>
                            <use xlink:href="#gEB20B197638B23C20845973F58CB19AC" x="63.36000000000001" y="0" fill="#ffff00" fill-rule="nonzero"/>
                            <use xlink:href="#g7F30B59DCAF383D6B34C412A1FA2300E" x="68.64" y="0" fill="#ffff00" fill-rule="nonzero"/>
                            <use xlink:href="#gFD5E24C590020160A507FE1B2B955D0E" x="73.92" y="0" fill="#ffff00" fill-rule="nonzero"/>
                        </g>
                    </g>
                </g>
                <g class="typst-group" transform="matrix(1 0 0 1 97.76 77.69600000000001)">
                    <g/>
                </g>
                <g class="typst-group" transform="matrix(1 0 0 1 8 100.92800000000001)">
                    <g/>
                </g>
                <g class="typst-group" transform="matrix(1 0 0 1 8 100.92800000000001)">
                    <g/>
                </g>
                <g class="typst-group" transform="matrix(1 0 0 1 8 89.31200000000001)">
                    <g>
                        <g class="typst-text" transform="matrix(1 0 0 -1 0 8.976000000000003)"/>
                    </g>
                </g>
                <g class="typst-group" transform="matrix(1 0 0 1 44.96 89.31200000000001)">
                    <g>
                        <g class="typst-text" transform="matrix(1 0 0 -1 0 8.976000000000003)">
                            <use xlink:href="#gD7BC2388059FC0B3DF9C32F4768A0A47" x="0" y="0" fill="#ffff00" fill-rule="nonzero"/>
                            <use xlink:href="#gB3CB5C71C376FEAC35A5CE3E9D70B056" x="5.28" y="0" fill="#ffff00" fill-rule="nonzero"/>
                            <use xlink:href="#gD7BC2388059FC0B3DF9C32F4768A0A47" x="10.56" y="0" fill="#ffff00" fill-rule="nonzero"/>
                        </g>
                    </g>
                </g>
                <g class="typst-group" transform="matrix(1 0 0 1 97.76 89.31200000000001)">
                    <g/>
                </g>
                <g class="typst-group" transform="matrix(1 0 0 1 8 100.92800000000001)">
                    <g/>
                </g>
                <g class="typst-group" transform="matrix(1 0 0 1 8 112.54400000000001)">
                    <g/>
                </g>
            </g>
        </g>
    </g>
    <defs id="glyph">
        <symbol id="gAA916D20060123FCDF49DDE23FB7E4B3" overflow="visible">
            <path d="M 0 0m 1.6719999 -1.408 l 0.46640015 2.6928 h 1.2584 l -0.6688001 -2.6928 h -1.056 Z "/>
        </symbol>
        <symbol id="g689AC205999FB3D3BCEB3E546391F2C3" overflow="visible">
            <path d="M 0 0m 0.5984 2.992 l 1.5224 3.4319997 h 1.056 l 1.5048001 -3.4319997 h -1.0296001 l -0.8095999 2.0239997 q -0.0704 0.18480015 -0.11880016 0.3564 q -0.048399925 0.17160034 -0.065999985 0.25960016 q -0.02639985 -0.08799982 -0.07920003 -0.25960016 q -0.05279994 -0.17159986 -0.12319994 -0.3564 l -0.83599997 -2.0239997 h -1.0208 Z "/>
        </symbol>
        <symbol id="g4EE50823DE1072B888352BF5ED93E90B" overflow="visible">
            <path d="M 0 0m 0.528 -0.968 l 3.08 8.272 h 1.1439998 l -3.08 -8.272 h -1.1439999 Z "/>
        </symbol>
        <symbol id="g553CA0615203AE7EF2B51E16776E3FE0" overflow="visible">
            <path d="M 0 0m 3.5992 -0.968 l -3.0712 8.272 h 1.1439999 l 3.0712 -8.272 h -1.1439998 Z "/>
        </symbol>
        <symbol id="g73844AEACD1F735BA3E0A045A5FAC82D" overflow="visible">
            <path d="M 0 0m 1.6104 0.8624 l -0.73039997 0.5192 l 0.61600006 0.87119997 q 0.12319994 0.17600012 0.27719998 0.33879995 q 0.15399992 0.16280007 0.32999992 0.3124001 q -0.4663999 0.04399991 -0.82719994 0.17599988 l -0.9944 0.36960006 l 0.30799997 0.8360002 l 0.9944 -0.36080027 q 0.352 -0.13199997 0.73039997 -0.37839985 q -0.05279994 0.20239997 -0.08800006 0.40919995 q -0.03519988 0.20679975 -0.03519988 0.43560004 v 1.0647998 h 0.89759994 v -1.0647998 q 0 -0.2288003 -0.03519988 -0.43560004 q -0.03520012 -0.20679998 -0.09680009 -0.40919995 q 0.38719988 0.24639988 0.7392001 0.37839985 l 0.9944 0.36080027 l 0.3079996 -0.8360002 l -0.99439955 -0.36960006 q -0.36080027 -0.13199997 -0.8272002 -0.17599988 q 0.17599988 -0.14960003 0.32999992 -0.3124001 q 0.15400004 -0.16279984 0.27719998 -0.33879995 l 0.6160002 -0.87119997 l -0.7304001 -0.5192 l -0.62479997 0.8712 q -0.12320018 0.176 -0.22440004 0.37399995 q -0.101200104 0.19799995 -0.18040013 0.40919995 q -0.07919979 -0.20239997 -0.1803999 -0.40479994 q -0.101200104 -0.20239997 -0.22440004 -0.37839997 l -0.62479997 -0.8712 Z "/>
        </symbol>
        <symbol id="g161F6AFB6E58763D1E79D160BDCEFAFA" overflow="visible">
            <path d="M 0 0m 0.396 2.3936 v 1.0208001 h 3.652 v -1.0208001 h -3.652 Z m -4.444 0 v 1.0208001 h 3.652 v -1.0208001 h -3.652 Z "/>
        </symbol>
        <symbol id="gB3CB5C71C376FEAC35A5CE3E9D70B056" overflow="visible">
            <path d="M 0 0m 0.528 -1.2144 v 0.9944 h 4.224 v -0.9944 h -4.224 Z "/>
        </symbol>
        <symbol id="gF487734A8DAA53A2D2317E425E86F6B1" overflow="visible">
            <path d="M 0 0m 2.552 3.4496 q -0.32560015 0 -0.53240013 0.2112 q -0.20679998 0.2112 -0.20679998 0.5279999 q 0 0.31680012 0.2112 0.5279999 q 0.2112 0.21120024 0.5280001 0.21120024 h 0.17599988 q 0.31680012 0 0.5280001 -0.21120024 q 0.2112 -0.21119976 0.2112 -0.5279999 q 0 -0.31679988 -0.20679998 -0.5279999 q -0.20679998 -0.2112 -0.53240013 -0.2112 h -0.17599988 Z m -0.924 -4.8576 l 0.4663999 2.6928 h 1.2584 l -0.6687999 -2.6928 h -1.056 Z "/>
        </symbol>
        <symbol id="gFD5E24C590020160A507FE1B2B955D0E" overflow="visible">
            <path d="M 0 0m 2.1296 3.784 l -0.07920003 2.6399999 h 1.1791999 l -0.0704 -2.6399999 h -1.0295999 Z "/>
        </symbol>
        <symbol id="gD7A02C1C897F9E3A321398548C8C8B03" overflow="visible">
            <path d="M 0 0m 1.0912 3.784 l -0.07920003 2.6399999 h 1.1792 l -0.0704 -2.6399999 h -1.0296 Z m 2.0767999 0 l -0.07920003 2.6399999 h 1.1792002 l -0.07040024 -2.6399999 h -1.0295999 Z "/>
        </symbol>
        <symbol id="gEB20B197638B23C20845973F58CB19AC" overflow="visible">
            <path d="M 0 0m 2.6399999 -0.088 q -0.36959982 0 -0.59399986 0.2244 q -0.22440004 0.2244 -0.22440004 0.5852 q 0 0.36079997 0.22440004 0.5896 q 0.22440004 0.22879994 0.59399986 0.22879994 q 0.36960006 0 0.5940001 -0.22879994 q 0.22440004 -0.22880006 0.22440004 -0.5896 q 0 -0.3608 -0.22440004 -0.5852 q -0.22440004 -0.2244 -0.5940001 -0.2244 Z "/>
        </symbol>
        <symbol id="g7F30B59DCAF383D6B34C412A1FA2300E" overflow="visible">
            <path d="M 0 0m 1.232 2.3936 v 1.0208001 h 2.816 v -1.0208001 h -2.816 Z "/>
        </symbol>
        <symbol id="g363496F2D5142F8F4982DAF4CE1D3779" overflow="visible">
            <path d="M 0 0m -4.752 -1.2144 v 0.9944 h 9.504 v -0.9944 h -9.504 Z "/>
        </symbol>
        <symbol id="gD7BC2388059FC0B3DF9C32F4768A0A47" overflow="visible">
            <path d="M 0 0m 2.0856 -0.968 v 8.272 h 1.1088002 v -8.272 h -1.1088002 Z "/>
        </symbol>
    </defs>
</svg>
