<svg class="typst-doc" viewBox="0 0 134.10645669291338 114.0424566929134" width="134.10645669291338pt" height="114.0424566929134pt" xmlns="http://www.w3.org/2000/svg" xmlns:xlink="http://www.w3.org/1999/xlink" xmlns:h5="http://www.w3.org/1999/xhtml">
    <path class="typst-shape" fill="#ffffff" fill-rule="nonzero" d="M 0 0v 114.04246 h 134.10646 v -114.04246 Z "/>
    <g>
        <g class="typst-group" transform="matrix(1 0 0 1 14.173228346456693 14.173228346456693)">
            <g>
                <path class="typst-shape" fill="#000000" fill-rule="nonzero" d="M 0 0m 0 5 c 0 -2.7614238 2.2385762 -5 5 -5 h 95.76 c 2.7614212 0 5 2.2385762 5 5 v 75.696 c 0 2.7614212 -2.2385788 5 -5 5 h -95.76 c -2.7614238 0 -5 -2.2385788 -5 -5 Z "/>
                <g class="typst-group" transform="matrix(1 0 0 1 8 19.616)">
                    <g/>
                </g>
                <g class="typst-group" transform="matrix(1 0 0 1 8 19.616)">
                    <g/>
                </g>
                <g class="typst-group" transform="matrix(1 0 0 1 8 8)">
                    <g>
                        <g class="typst-text" transform="matrix(1 0 0 -1 0 8.976000000000003)">
                            <use xlink:href="#gF320D7574F427789DB1C95627581EA64" x="0" y="0" fill="#ff0000" fill-rule="nonzero"/>
                            <use xlink:href="#g54EC8A78BBA280153A960C5799B466F8" x="5.28" y="0" fill="#ff0000" fill-rule="nonzero"/>
                            <use xlink:href="#gF320D7574F427789DB1C95627581EA64" x="10.56" y="0" fill="#ff0000" fill-rule="nonzero"/>
                            <use xlink:href="#g54EC8A78BBA280153A960C5799B466F8" x="15.84" y="0" fill="#ff0000" fill-rule="nonzero"/>
                            <use xlink:href="#g3862D2E5D78B2C7FB0F39DB8CBA12214" x="21.12" y="0" fill="#ff0000" fill-rule="nonzero"/>
                            <use xlink:href="#g3862D2E5D78B2C7FB0F39DB8CBA12214" x="26.400000000000002" y="0" fill="#ff0000" fill-rule="nonzero"/>
                            <use xlink:href="#gF320D7574F427789DB1C95627581EA64" x="31.680000000000003" y="0" fill="#ff0000" fill-rule="nonzero"/>
                            <use xlink:href="#g54EC8A78BBA280153A960C5799B466F8" x="36.96" y="0" fill="#ff0000" fill-rule="nonzero"/>
                            <use xlink:href="#g3862D2E5D78B2C7FB0F39DB8CBA12214" x="42.24" y="0" fill="#ff0000" fill-rule="nonzero"/>
                            <use xlink:href="#g3862D2E5D78B2C7FB0F39DB8CBA12214" x="47.52" y="0" fill="#ff0000" fill-rule="nonzero"/>
                            <use xlink:href="#g3862D2E5D78B2C7FB0F39DB8CBA12214" x="52.800000000000004" y="0" fill="#ff0000" fill-rule="nonzero"/>
                            <use xlink:href="#gF320D7574F427789DB1C95627581EA64" x="58.080000000000005" y="0" fill="#ff0000" fill-rule="nonzero"/>
                            <use xlink:href="#g28CA98DB718A335A909D8222BFD70AFC" x="63.36000000000001" y="0" fill="#ff0000" fill-rule="nonzero"/>
                            <use xlink:href="#g339A72322B4E75D8555B8EFD11D6D5CF" x="68.64" y="0" fill="#ff0000" fill-rule="nonzero"/>
                            <use xlink:href="#g28CA98DB718A335A909D8222BFD70AFC" x="73.92" y="0" fill="#ff0000" fill-rule="nonzero"/>
                            <use xlink:href="#g28CA98DB718A335A909D8222BFD70AFC" x="79.2" y="0" fill="#ff0000" fill-rule="nonzero"/>
                            <use xlink:href="#g54EC8A78BBA280153A960C5799B466F8" x="84.48" y="0" fill="#ff0000" fill-rule="nonzero"/>
                        </g>
                    </g>
                </g>
                <g class="typst-group" transform="matrix(1 0 0 1 97.76 8)">
                    <g/>
                </g>
                <g class="typst-group" transform="matrix(1 0 0 1 8 31.232000000000003)">
                    <g/>
                </g>
                <g class="typst-group" transform="matrix(1 0 0 1 8 31.232000000000003)">
                    <g/>
                </g>
                <g class="typst-group" transform="matrix(1 0 0 1 8 31.232000000000003)">
                    <g/>
                </g>
                <g class="typst-group" transform="matrix(1 0 0 1 8 19.616)">
                    <g>
                        <g class="typst-text" transform="matrix(1 0 0 -1 0 8.976000000000003)">
                            <use xlink:href="#g97C9F13EB0EA9347910E3D2AA3670346" x="0" y="0" fill="#ff0000" fill-rule="nonzero"/>
                            <use xlink:href="#gCBAE3CDC11B8DAF6CA146965E9D2F0FE" x="5.28" y="0" fill="#ff0000" fill-rule="nonzero"/>
                            <use xlink:href="#gBAAD914FCA2BAEAFB5D2B7C702CABD3" x="10.56" y="0" fill="#ff0000" fill-rule="nonzero"/>
                            <use xlink:href="#g7DDA134C77DABBCF65B19C8B04662B9E" x="15.84" y="0" fill="#ff0000" fill-rule="nonzero"/>
                            <use xlink:href="#g339A72322B4E75D8555B8EFD11D6D5CF" x="21.12" y="0" fill="#ff0000" fill-rule="nonzero"/>
                            <use xlink:href="#g339A72322B4E75D8555B8EFD11D6D5CF" x="26.400000000000002" y="0" fill="#ff0000" fill-rule="nonzero"/>
                            <use xlink:href="#gBAAD914FCA2BAEAFB5D2B7C702CABD3" x="31.680000000000003" y="0" fill="#ff0000" fill-rule="nonzero"/>
                            <use xlink:href="#g7DDA134C77DABBCF65B19C8B04662B9E" x="36.96" y="0" fill="#ff0000" fill-rule="nonzero"/>
                            <use xlink:href="#g339A72322B4E75D8555B8EFD11D6D5CF" x="42.24" y="0" fill="#ff0000" fill-rule="nonzero"/>
                            <use xlink:href="#g339A72322B4E75D8555B8EFD11D6D5CF" x="47.52" y="0" fill="#ff0000" fill-rule="nonzero"/>
                            <use xlink:href="#g28CA98DB718A335A909D8222BFD70AFC" x="52.800000000000004" y="0" fill="#ff0000" fill-rule="nonzero"/>
                            <use xlink:href="#gC7C6A5240B0091FBF519F9F6132235FF" x="58.080000000000005" y="0" fill="#ff0000" fill-rule="nonzero"/>
                            <use xlink:href="#g97C9F13EB0EA9347910E3D2AA3670346" x="63.36000000000001" y="0" fill="#ff0000" fill-rule="nonzero"/>
                            <use xlink:href="#g97C9F13EB0EA9347910E3D2AA3670346" x="68.64" y="0" fill="#ff0000" fill-rule="nonzero"/>
                            <use xlink:href="#g28CA98DB718A335A909D8222BFD70AFC" x="73.92" y="0" fill="#ff0000" fill-rule="nonzero"/>
                            <use xlink:href="#g28CA98DB718A335A909D8222BFD70AFC" x="79.2" y="0" fill="#ff0000" fill-rule="nonzero"/>
                            <use xlink:href="#gC7C6A5240B0091FBF519F9F6132235FF" x="84.48" y="0" fill="#ff0000" fill-rule="nonzero"/>
                        </g>
                    </g>
                </g>
                <g class="typst-group" transform="matrix(1 0 0 1 97.76 19.616)">
                    <g/>
                </g>
                <g class="typst-group" transform="matrix(1 0 0 1 8 42.848000000000006)">
                    <g/>
                </g>
                <g class="typst-group" transform="matrix(1 0 0 1 8 42.848000000000006)">
                    <g/>
                </g>
                <g class="typst-group" transform="matrix(1 0 0 1 8 42.848000000000006)">
                    <g/>
                </g>
                <g class="typst-group" transform="matrix(1 0 0 1 8 31.232000000000003)">
                    <g>
                        <g class="typst-text" transform="matrix(1 0 0 -1 0 8.976000000000003)">
                            <use xlink:href="#g97C9F13EB0EA9347910E3D2AA3670346" x="0" y="0" fill="#ff0000" fill-rule="nonzero"/>
                            <use xlink:href="#gF320D7574F427789DB1C95627581EA64" x="5.28" y="0" fill="#ff0000" fill-rule="nonzero"/>
                            <use xlink:href="#g54EC8A78BBA280153A960C5799B466F8" x="10.56" y="0" fill="#ff0000" fill-rule="nonzero"/>
                            <use xlink:href="#g97C9F13EB0EA9347910E3D2AA3670346" x="15.84" y="0" fill="#ff0000" fill-rule="nonzero"/>
                            <use xlink:href="#g97C9F13EB0EA9347910E3D2AA3670346" x="21.12" y="0" fill="#ff0000" fill-rule="nonzero"/>
                            <use xlink:href="#g97C9F13EB0EA9347910E3D2AA3670346" x="26.400000000000002" y="0" fill="#ff0000" fill-rule="nonzero"/>
                            <use xlink:href="#g2822D8928C00AB3EA1AD7B17C0860ACF" x="31.680000000000003" y="0" fill="#ff0000" fill-rule="nonzero"/>
                            <use xlink:href="#g97C9F13EB0EA9347910E3D2AA3670346" x="36.96" y="0" fill="#ff0000" fill-rule="nonzero"/>
                            <use xlink:href="#gF320D7574F427789DB1C95627581EA64" x="42.24" y="0" fill="#ff0000" fill-rule="nonzero"/>
                            <use xlink:href="#gC7C6A5240B0091FBF519F9F6132235FF" x="47.52" y="0" fill="#ff0000" fill-rule="nonzero"/>
                            <use xlink:href="#g2822D8928C00AB3EA1AD7B17C0860ACF" x="52.800000000000004" y="0" fill="#ff0000" fill-rule="nonzero"/>
                            <use xlink:href="#g97C9F13EB0EA9347910E3D2AA3670346" x="58.080000000000005" y="0" fill="#ff0000" fill-rule="nonzero"/>
                            <use xlink:href="#g97C9F13EB0EA9347910E3D2AA3670346" x="63.36000000000001" y="0" fill="#ff0000" fill-rule="nonzero"/>
                            <use xlink:href="#g7DDA134C77DABBCF65B19C8B04662B9E" x="68.64" y="0" fill="#ff0000" fill-rule="nonzero"/>
                            <use xlink:href="#g28CA98DB718A335A909D8222BFD70AFC" x="73.92" y="0" fill="#ff0000" fill-rule="nonzero"/>
                            <use xlink:href="#g28CA98DB718A335A909D8222BFD70AFC" x="79.2" y="0" fill="#ff0000" fill-rule="nonzero"/>
                            <use xlink:href="#g97C9F13EB0EA9347910E3D2AA3670346" x="84.48" y="0" fill="#ff0000" fill-rule="nonzero"/>
                        </g>
                    </g>
                </g>
                <g class="typst-group" transform="matrix(1 0 0 1 97.76 31.232000000000003)">
                    <g/>
                </g>
                <g class="typst-group" transform="matrix(1 0 0 1 8 54.464000000000006)">
                    <g/>
                </g>
                <g class="typst-group" transform="matrix(1 0 0 1 8 54.464000000000006)">
                    <g/>
                </g>
                <g class="typst-group" transform="matrix(1 0 0 1 8 54.464000000000006)">
                    <g/>
                </g>
                <g class="typst-group" transform="matrix(1 0 0 1 8 42.848000000000006)">
                    <g>
                        <g class="typst-text" transform="matrix(1 0 0 -1 0 8.976000000000003)">
                            <use xlink:href="#gCBAE3CDC11B8DAF6CA146965E9D2F0FE" x="0" y="0" fill="#ff0000" fill-rule="nonzero"/>
                            <use xlink:href="#gBAAD914FCA2BAEAFB5D2B7C702CABD3" x="5.28" y="0" fill="#ff0000" fill-rule="nonzero"/>
                            <use xlink:href="#gCBAE3CDC11B8DAF6CA146965E9D2F0FE" x="10.56" y="0" fill="#ff0000" fill-rule="nonzero"/>
                            <use xlink:href="#g2822D8928C00AB3EA1AD7B17C0860ACF" x="15.84" y="0" fill="#ff0000" fill-rule="nonzero"/>
                            <use xlink:href="#g54EC8A78BBA280153A960C5799B466F8" x="21.12" y="0" fill="#ff0000" fill-rule="nonzero"/>
                            <use xlink:href="#g7DDA134C77DABBCF65B19C8B04662B9E" x="26.400000000000002" y="0" fill="#ff0000" fill-rule="nonzero"/>
                            <use xlink:href="#g28CA98DB718A335A909D8222BFD70AFC" x="31.680000000000003" y="0" fill="#ff0000" fill-rule="nonzero"/>
                            <use xlink:href="#g2A34BED8A8539644017C007A7ACE4124" x="36.96" y="0" fill="#ff0000" fill-rule="nonzero"/>
                            <use xlink:href="#gBAAD914FCA2BAEAFB5D2B7C702CABD3" x="42.24" y="0" fill="#ff0000" fill-rule="nonzero"/>
                            <use xlink:href="#gCBAE3CDC11B8DAF6CA146965E9D2F0FE" x="47.52" y="0" fill="#ff0000" fill-rule="nonzero"/>
                            <use xlink:href="#g28CA98DB718A335A909D8222BFD70AFC" x="52.800000000000004" y="0" fill="#ff0000" fill-rule="nonzero"/>
                            <use xlink:href="#g2A34BED8A8539644017C007A7ACE4124" x="58.080000000000005" y="0" fill="#ff0000" fill-rule="nonzero"/>
                            <use xlink:href="#g28CA98DB718A335A909D8222BFD70AFC" x="63.36000000000001" y="0" fill="#ff0000" fill-rule="nonzero"/>
                            <use xlink:href="#g2A34BED8A8539644017C007A7ACE4124" x="68.64" y="0" fill="#ff0000" fill-rule="nonzero"/>
                            <use xlink:href="#g28CA98DB718A335A909D8222BFD70AFC" x="73.92" y="0" fill="#ff0000" fill-rule="nonzero"/>
                            <use xlink:href="#g28CA98DB718A335A909D8222BFD70AFC" x="79.2" y="0" fill="#ff0000" fill-rule="nonzero"/>
                            <use xlink:href="#gBAAD914FCA2BAEAFB5D2B7C702CABD3" x="84.48" y="0" fill="#ff0000" fill-rule="nonzero"/>
                        </g>
                    </g>
                </g>
                <g class="typst-group" transform="matrix(1 0 0 1 97.76 42.848000000000006)">
                    <g/>
                </g>
                <g class="typst-group" transform="matrix(1 0 0 1 8 66.08)">
                    <g/>
                </g>
                <g class="typst-group" transform="matrix(1 0 0 1 8 66.08)">
                    <g/>
                </g>
                <g class="typst-group" transform="matrix(1 0 0 1 8 66.08)">
                    <g/>
                </g>
                <g class="typst-group" transform="matrix(1 0 0 1 8 54.464000000000006)">
                    <g>
                        <g class="typst-text" transform="matrix(1 0 0 -1 0 8.976000000000003)">
                            <use xlink:href="#g3862D2E5D78B2C7FB0F39DB8CBA12214" x="0" y="0" fill="#ff0000" fill-rule="nonzero"/>
                            <use xlink:href="#g3862D2E5D78B2C7FB0F39DB8CBA12214" x="5.28" y="0" fill="#ff0000" fill-rule="nonzero"/>
                            <use xlink:href="#g3862D2E5D78B2C7FB0F39DB8CBA12214" x="10.56" y="0" fill="#ff0000" fill-rule="nonzero"/>
                            <use xlink:href="#gCBAE3CDC11B8DAF6CA146965E9D2F0FE" x="15.84" y="0" fill="#ff0000" fill-rule="nonzero"/>
                            <use xlink:href="#g28CA98DB718A335A909D8222BFD70AFC" x="21.12" y="0" fill="#ff0000" fill-rule="nonzero"/>
                            <use xlink:href="#gBAAD914FCA2BAEAFB5D2B7C702CABD3" x="26.400000000000002" y="0" fill="#ff0000" fill-rule="nonzero"/>
                        </g>
                    </g>
                </g>
                <g class="typst-group" transform="matrix(1 0 0 1 97.76 54.464000000000006)">
                    <g/>
                </g>
                <g class="typst-group" transform="matrix(1 0 0 1 8 66.08)">
                    <g/>
                </g>
                <g class="typst-group" transform="matrix(1 0 0 1 8 77.69600000000001)">
                    <g/>
                </g>
            </g>
        </g>
    </g>
    <defs id="glyph">
        <symbol id="gF320D7574F427789DB1C95627581EA64" overflow="visible">
            <path d="M 0 0m 1.3199999 -3.52 v 8.096001 h 4.1359997 v -0.8800001 h -3.2559998 v -7.216 h -0.8800001 Z m 1.76 0 v 6.336 h 2.376 v -0.88 h -1.4959998 v -5.456 h -0.8800001 Z "/>
        </symbol>
        <symbol id="g54EC8A78BBA280153A960C5799B466F8" overflow="visible">
            <path d="M 0 0m 3.08 -3.52 v 7.216 h -3.256 v 0.8800001 h 4.136 v -8.096001 h -0.8800001 Z m -1.76 0 v 5.456 h -1.4959999 v 0.88 h 2.376 v -6.336 h -0.8800001 Z "/>
        </symbol>
        <symbol id="g3862D2E5D78B2C7FB0F39DB8CBA12214" overflow="visible">
            <path d="M 0 0m -0.176 2.816 v 0.8800001 h 5.632 v -0.8800001 h -5.632 Z "/>
        </symbol>
        <symbol id="g28CA98DB718A335A909D8222BFD70AFC" overflow="visible">
            <path d="M 0 0m -0.176 3.696 v 0.8800001 h 5.632 v -0.8800001 h -5.632 Z m 0 -1.7600001 v 0.88 h 5.632 v -0.88 h -5.632 Z "/>
        </symbol>
        <symbol id="g339A72322B4E75D8555B8EFD11D6D5CF" overflow="visible">
            <path d="M 0 0m -0.176 3.696 v 0.8800001 h 5.632 v -0.8800001 h -5.632 Z m 3.256 -7.216 v 6.336 h 2.376 v -0.88 h -1.4959998 v -5.456 h -0.8800001 Z m -1.76 0 v 5.456 h -1.4959999 v 0.88 h 2.376 v -6.336 h -0.8800001 Z "/>
        </symbol>
        <symbol id="g97C9F13EB0EA9347910E3D2AA3670346" overflow="visible">
            <path d="M 0 0m 3.08 -3.52 v 13.375999 h 0.8800001 v -13.375999 h -0.8800001 Z m -1.76 0 v 13.375999 h 0.8800001 v -13.375999 h -0.8800001 Z "/>
        </symbol>
        <symbol id="gCBAE3CDC11B8DAF6CA146965E9D2F0FE" overflow="visible">
            <path d="M 0 0m 1.3199999 1.936 v 7.92 h 0.8800001 v -7.04 h 3.2559998 v -0.88 h -4.1359997 Z m 1.76 1.7600001 v 6.16 h 0.8800001 v -5.2799997 h 1.4959998 v -0.8800001 h -2.376 Z "/>
        </symbol>
        <symbol id="gBAAD914FCA2BAEAFB5D2B7C702CABD3" overflow="visible">
            <path d="M 0 0m -0.176 1.936 v 0.88 h 3.256 v 7.04 h 0.8800001 v -7.92 h -4.136 Z m 0 1.7600001 v 0.8800001 h 1.4959999 v 5.2799997 h 0.8800001 v -6.16 h -2.376 Z "/>
        </symbol>
        <symbol id="g7DDA134C77DABBCF65B19C8B04662B9E" overflow="visible">
            <path d="M 0 0m 1.3199999 -3.52 v 13.375999 h 0.8800001 v -13.375999 h -0.8800001 Z m 1.76 7.216 v 6.16 h 0.8800001 v -5.2799997 h 1.4959998 v -0.8800001 h -2.376 Z m 0 -7.216 v 6.336 h 2.376 v -0.88 h -1.4959998 v -5.456 h -0.8800001 Z "/>
        </symbol>
        <symbol id="gC7C6A5240B0091FBF519F9F6132235FF" overflow="visible">
            <path d="M 0 0m 3.08 -3.52 v 13.375999 h 0.8800001 v -13.375999 h -0.8800001 Z m -3.256 7.216 v 0.8800001 h 1.4959999 v 5.2799997 h 0.8800001 v -6.16 h -2.376 Z m 1.4959999 -7.216 v 5.456 h -1.4959999 v 0.88 h 2.376 v -6.336 h -0.8800001 Z "/>
        </symbol>
        <symbol id="g2822D8928C00AB3EA1AD7B17C0860ACF" overflow="visible">
            <path d="M 0 0m -0.176 3.696 v 0.8800001 h 1.4959999 v 5.2799997 h 0.8800001 v -6.16 h -2.376 Z m 3.256 0 v 6.16 h 0.8800001 v -5.2799997 h 1.4959998 v -0.8800001 h -2.376 Z m 0 -7.216 v 6.336 h 2.376 v -0.88 h -1.4959998 v -5.456 h -0.8800001 Z m -1.76 0 v 5.456 h -1.4959999 v 0.88 h 2.376 v -6.336 h -0.8800001 Z "/>
        </symbol>
        <symbol id="g2A34BED8A8539644017C007A7ACE4124" overflow="visible">
            <path d="M 0 0m 3.08 3.696 v 6.16 h 0.8800001 v -5.2799997 h 1.4959998 v -0.8800001 h -2.376 Z m -3.256 0 v 0.8800001 h 1.4959999 v 5.2799997 h 0.8800001 v -6.16 h -2.376 Z m 0 -1.7600001 v 0.88 h 5.632 v -0.88 h -5.632 Z "/>
        </symbol>
    </defs>
</svg>
