<svg class="typst-doc" viewBox="0 0 107.70645669291339 125.6584566929134" width="107.70645669291339pt" height="125.6584566929134pt" xmlns="http://www.w3.org/2000/svg" xmlns:xlink="http://www.w3.org/1999/xlink" xmlns:h5="http://www.w3.org/1999/xhtml">
    <path class="typst-shape" fill="#ffffff" fill-rule="nonzero" d="M 0 0v 125.658455 h 107.70646 v -125.658455 Z "/>
    <g>
        <g class="typst-group" transform="matrix(1 0 0 1 14.173228346456693 14.173228346456693)">
            <g>
                <path class="typst-shape" fill="#000000" fill-rule="nonzero" d="M 0 0m 0 5 c 0 -2.7614238 2.2385762 -5 5 -5 h 69.36 c 2.7614212 0 5 2.2385762 5 5 v 87.312 c 0 2.7614288 -2.2385788 5 -5 5 h -69.36 c -2.7614238 0 -5 -2.2385712 -5 -5 Z "/>
                <g class="typst-group" transform="matrix(1 0 0 1 8 19.616)">
                    <g/>
                </g>
                <g class="typst-group" transform="matrix(1 0 0 1 8 19.616)">
                    <g/>
                </g>
                <g class="typst-group" transform="matrix(1 0 0 1 8 8)">
                    <g>
                        <g class="typst-text" transform="matrix(1 0 0 -1 0 8.976000000000003)">
                            <use xlink:href="#gAA916D20060123FCDF49DDE23FB7E4B3" x="5.28" y="0" fill="#ffffff" fill-rule="nonzero"/>
                            <use xlink:href="#g7F30B59DCAF383D6B34C412A1FA2300E" x="10.56" y="0" fill="#ffffff" fill-rule="nonzero"/>
                            <use xlink:href="#gFD5E24C590020160A507FE1B2B955D0E" x="15.84" y="0" fill="#ffffff" fill-rule="nonzero"/>
                            <use xlink:href="#gFD5E24C590020160A507FE1B2B955D0E" x="21.12" y="0" fill="#ffffff" fill-rule="nonzero"/>
                            <use xlink:href="#g7F30B59DCAF383D6B34C412A1FA2300E" x="26.400000000000002" y="0" fill="#ffffff" fill-rule="nonzero"/>
                            <use xlink:href="#gAA916D20060123FCDF49DDE23FB7E4B3" x="31.680000000000003" y="0" fill="#ffffff" fill-rule="nonzero"/>
                        </g>
                    </g>
                </g>
                <g class="typst-group" transform="matrix(1 0 0 1 71.36000000000001 8)">
                    <g/>
                </g>
                <g class="typst-group" transform="matrix(1 0 0 1 8 31.232000000000003)">
                    <g/>
                </g>
                <g class="typst-group" transform="matrix(1 0 0 1 8 31.232000000000003)">
                    <g/>
                </g>
                <g class="typst-group" transform="matrix(1 0 0 1 8 31.232000000000003)">
                    <g/>
                </g>
                <g class="typst-group" transform="matrix(1 0 0 1 8 19.616)">
                    <g>
                        <g class="typst-text" transform="matrix(1 0 0 -1 0 8.976000000000003)">
                            <use xlink:href="#g1977475DBC59169954969A1DA0562274" x="0" y="0" fill="#ffffff" fill-rule="nonzero"/>
                            <use xlink:href="#gEB20B197638B23C20845973F58CB19AC" x="10.56" y="0" fill="#ffffff" fill-rule="nonzero"/>
                            <use xlink:href="#gFD5E24C590020160A507FE1B2B955D0E" x="15.84" y="0" fill="#ffffff" fill-rule="nonzero"/>
                            <use xlink:href="#gFD5E24C590020160A507FE1B2B955D0E" x="21.12" y="0" fill="#ffffff" fill-rule="nonzero"/>
                            <use xlink:href="#gEB20B197638B23C20845973F58CB19AC" x="26.400000000000002" y="0" fill="#ffffff" fill-rule="nonzero"/>
                            <use xlink:href="#g1977475DBC59169954969A1DA0562274" x="36.96" y="0" fill="#ffffff" fill-rule="nonzero"/>
                        </g>
                    </g>
                </g>
                <g class="typst-group" transform="matrix(1 0 0 1 71.36000000000001 19.616)">
                    <g/>
                </g>
                <g class="typst-group" transform="matrix(1 0 0 1 8 42.848000000000006)">
                    <g/>
                </g>
                <g class="typst-group" transform="matrix(1 0 0 1 8 42.848000000000006)">
                    <g/>
                </g>
                <g class="typst-group" transform="matrix(1 0 0 1 8 42.848000000000006)">
                    <g/>
                </g>
                <g class="typst-group" transform="matrix(1 0 0 1 8 31.232000000000003)">
                    <g>
                        <g class="typst-text" transform="matrix(1 0 0 -1 0 8.976000000000003)">
                            <use xlink:href="#g1977475DBC59169954969A1DA0562274" x="0" y="0" fill="#ffffff" fill-rule="nonzero"/>
                            <use xlink:href="#gFD5E24C590020160A507FE1B2B955D0E" x="10.56" y="0" fill="#ffffff" fill-rule="nonzero"/>
                            <use xlink:href="#gAA916D20060123FCDF49DDE23FB7E4B3" x="15.84" y="0" fill="#ffffff" fill-rule="nonzero"/>
                            <use xlink:href="#gAA916D20060123FCDF49DDE23FB7E4B3" x="21.12" y="0" fill="#ffffff" fill-rule="nonzero"/>
                            <use xlink:href="#gFD5E24C590020160A507FE1B2B955D0E" x="26.400000000000002" y="0" fill="#ffffff" fill-rule="nonzero"/>
                            <use xlink:href="#g1977475DBC59169954969A1DA0562274" x="36.96" y="0" fill="#ffffff" fill-rule="nonzero"/>
                        </g>
                    </g>
                </g>
                <g class="typst-group" transform="matrix(1 0 0 1 71.36000000000001 31.232000000000003)">
                    <g/>
                </g>
                <g class="typst-group" transform="matrix(1 0 0 1 8 54.464000000000006)">
                    <g/>
                </g>
                <g class="typst-group" transform="matrix(1 0 0 1 8 54.464000000000006)">
                    <g/>
                </g>
                <g class="typst-group" transform="matrix(1 0 0 1 8 54.464000000000006)">
                    <g/>
                </g>
                <g class="typst-group" transform="matrix(1 0 0 1 8 42.848000000000006)">
                    <g>
                        <g class="typst-text" transform="matrix(1 0 0 -1 0 8.976000000000003)">
                            <use xlink:href="#gFD5E24C590020160A507FE1B2B955D0E" x="5.28" y="0" fill="#ffffff" fill-rule="nonzero"/>
                            <use xlink:href="#g7F30B59DCAF383D6B34C412A1FA2300E" x="10.56" y="0" fill="#ffffff" fill-rule="nonzero"/>
                            <use xlink:href="#gB3CB5C71C376FEAC35A5CE3E9D70B056" x="15.84" y="0" fill="#ffffff" fill-rule="nonzero"/>
                            <use xlink:href="#gB3CB5C71C376FEAC35A5CE3E9D70B056" x="21.12" y="0" fill="#ffffff" fill-rule="nonzero"/>
                            <use xlink:href="#gB3CB5C71C376FEAC35A5CE3E9D70B056" x="26.400000000000002" y="0" fill="#ffffff" fill-rule="nonzero"/>
                            <use xlink:href="#gB3CB5C71C376FEAC35A5CE3E9D70B056" x="31.680000000000003" y="0" fill="#ffffff" fill-rule="nonzero"/>
                            <use xlink:href="#g1977475DBC59169954969A1DA0562274" x="36.96" y="0" fill="#ffffff" fill-rule="nonzero"/>
                            <use xlink:href="#g363496F2D5142F8F4982DAF4CE1D3779" x="47.52" y="0" fill="#ffffff" fill-rule="nonzero"/>
                        </g>
                    </g>
                </g>
                <g class="typst-group" transform="matrix(1 0 0 1 71.36000000000001 42.848000000000006)">
                    <g/>
                </g>
                <g class="typst-group" transform="matrix(1 0 0 1 8 66.08)">
                    <g/>
                </g>
                <g class="typst-group" transform="matrix(1 0 0 1 8 66.08)">
                    <g/>
                </g>
                <g class="typst-group" transform="matrix(1 0 0 1 8 66.08)">
                    <g/>
                </g>
                <g class="typst-group" transform="matrix(1 0 0 1 8 54.464000000000006)">
                    <g>
                        <g class="typst-text" transform="matrix(1 0 0 -1 0 8.976000000000003)">
                            <use xlink:href="#g1977475DBC59169954969A1DA0562274" x="36.96" y="0" fill="#ffffff" fill-rule="nonzero"/>
                            <use xlink:href="#gF9D31F08CF713FA33A044CE9199C2BD0" x="52.800000000000004" y="0" fill="#ffffff" fill-rule="nonzero"/>
                            <use xlink:href="#gEB20B197638B23C20845973F58CB19AC" x="58.080000000000005" y="0" fill="#ffffff" fill-rule="nonzero"/>
                        </g>
                    </g>
                </g>
                <g class="typst-group" transform="matrix(1 0 0 1 71.36000000000001 54.464000000000006)">
                    <g/>
                </g>
                <g class="typst-group" transform="matrix(1 0 0 1 8 77.69600000000001)">
                    <g/>
                </g>
                <g class="typst-group" transform="matrix(1 0 0 1 8 77.69600000000001)">
                    <g/>
                </g>
                <g class="typst-group" transform="matrix(1 0 0 1 8 77.69600000000001)">
                    <g/>
                </g>
                <g class="typst-group" transform="matrix(1 0 0 1 8 66.08)">
                    <g>
                        <g class="typst-text" transform="matrix(1 0 0 -1 0 8.976000000000003)">
                            <use xlink:href="#gF9D31F08CF713FA33A044CE9199C2BD0" x="36.96" y="0" fill="#ffffff" fill-rule="nonzero"/>
                            <use xlink:href="#gEB20B197638B23C20845973F58CB19AC" x="42.24" y="0" fill="#ffffff" fill-rule="nonzero"/>
                            <use xlink:href="#gB3CB5C71C376FEAC35A5CE3E9D70B056" x="47.52" y="0" fill="#ffffff" fill-rule="nonzero"/>
                            <use xlink:href="#gEB20B197638B23C20845973F58CB19AC" x="52.800000000000004" y="0" fill="#ffffff" fill-rule="nonzero"/>
                            <use xlink:href="#gFD5E24C590020160A507FE1B2B955D0E" x="58.080000000000005" y="0" fill="#ffffff" fill-rule="nonzero"/>
                        </g>
                    </g>
                </g>
                <g class="typst-group" transform="matrix(1 0 0 1 71.36000000000001 66.08)">
                    <g/>
                </g>
                <g class="typst-group" transform="matrix(1 0 0 1 8 77.69600000000001)">
                    <g/>
                </g>
                <g class="typst-group" transform="matrix(1 0 0 1 8 89.31200000000001)">
                    <g/>
                </g>
            </g>
        </g>
    </g>
    <defs id="glyph">
        <symbol id="gAA916D20060123FCDF49DDE23FB7E4B3" overflow="visible">
            <path d="M 0 0m 1.6719999 -1.408 l 0.46640015 2.6928 h 1.2584 l -0.6688001 -2.6928 h -1.056 Z "/>
        </symbol>
        <symbol id="g7F30B59DCAF383D6B34C412A1FA2300E" overflow="visible">
            <path d="M 0 0m 1.232 2.3936 v 1.0208001 h 2.816 v -1.0208001 h -2.816 Z "/>
        </symbol>
        <symbol id="gFD5E24C590020160A507FE1B2B955D0E" overflow="visible">
            <path d="M 0 0m 2.1296 3.784 l -0.07920003 2.6399999 h 1.1791999 l -0.0704 -2.6399999 h -1.0295999 Z "/>
        </symbol>
        <symbol id="g1977475DBC59169954969A1DA0562274" overflow="visible">
            <path d="M 0 0m 2.6399999 3.4584 q -0.37839985 0 -0.5983999 0.20239997 q -0.22000003 0.20239997 -0.22000003 0.5367999 q 0 0.32560015 0.22000003 0.5279999 q 0.22000003 0.20240021 0.5983999 0.20240021 q 0.3784001 0 0.5984001 -0.20240021 q 0.22000003 -0.20239973 0.22000003 -0.5279999 q 0 -0.33439994 -0.22000003 -0.5367999 q -0.22000003 -0.20239997 -0.5984001 -0.20239997 Z m 0 -3.5464 q -0.37839985 0 -0.5983999 0.2024 q -0.22000003 0.2024 -0.22000003 0.528 q 0 0.33439994 0.22000003 0.5367999 q 0.22000003 0.20240009 0.5983999 0.20240009 q 0.3784001 0 0.5984001 -0.20240009 q 0.22000003 -0.20239997 0.22000003 -0.5367999 q 0 -0.32560003 -0.22000003 -0.528 q -0.22000003 -0.2024 -0.5984001 -0.2024 Z "/>
        </symbol>
        <symbol id="gEB20B197638B23C20845973F58CB19AC" overflow="visible">
            <path d="M 0 0m 2.6399999 -0.088 q -0.36959982 0 -0.59399986 0.2244 q -0.22440004 0.2244 -0.22440004 0.5852 q 0 0.36079997 0.22440004 0.5896 q 0.22440004 0.22879994 0.59399986 0.22879994 q 0.36960006 0 0.5940001 -0.22879994 q 0.22440004 -0.22880006 0.22440004 -0.5896 q 0 -0.3608 -0.22440004 -0.5852 q -0.22440004 -0.2244 -0.5940001 -0.2244 Z "/>
        </symbol>
        <symbol id="gB3CB5C71C376FEAC35A5CE3E9D70B056" overflow="visible">
            <path d="M 0 0m 0.528 -1.2144 v 0.9944 h 4.224 v -0.9944 h -4.224 Z "/>
        </symbol>
        <symbol id="g363496F2D5142F8F4982DAF4CE1D3779" overflow="visible">
            <path d="M 0 0m -4.752 -1.2144 v 0.9944 h 9.504 v -0.9944 h -9.504 Z "/>
        </symbol>
        <symbol id="gF9D31F08CF713FA33A044CE9199C2BD0" overflow="visible">
            <path d="M 0 0m 2.2792 5.676 l -1.0208001 1.2319999 h 1.2144 l 0.9416001 -1.2319999 h -1.1352 Z "/>
        </symbol>
    </defs>
</svg>
