<svg class="typst-doc" viewBox="0 0 97.1464566929134 137.2744566929134" width="97.1464566929134pt" height="137.2744566929134pt" xmlns="http://www.w3.org/2000/svg" xmlns:xlink="http://www.w3.org/1999/xlink" xmlns:h5="http://www.w3.org/1999/xhtml">
    <path class="typst-shape" fill="#ffffff" fill-rule="nonzero" d="M 0 0v 137.27446 h 97.146454 v -137.27446 Z "/>
    <g>
        <g class="typst-group" transform="matrix(1 0 0 1 14.173228346456693 14.173228346456693)">
            <g>
                <path class="typst-shape" fill="#000000" fill-rule="nonzero" d="M 0 0m 0 5 c 0 -2.7614238 2.2385762 -5 5 -5 h 58.8 c 2.761425 0 5.000004 2.2385762 5.000004 5 v 98.928 c 0 2.7614212 -2.2385788 5 -5.000004 5 h -58.8 c -2.7614238 0 -5 -2.2385788 -5 -5 Z "/>
                <g class="typst-group" transform="matrix(1 0 0 1 8 19.616)">
                    <g/>
                </g>
                <g class="typst-group" transform="matrix(1 0 0 1 8 19.616)">
                    <g/>
                </g>
                <g class="typst-group" transform="matrix(1 0 0 1 8 8)">
                    <g>
                        <g class="typst-text" transform="matrix(1 0 0 -1 0 8.976000000000003)">
                            <use xlink:href="#g363496F2D5142F8F4982DAF4CE1D3779" x="10.56" y="0" fill="#ff0000" fill-rule="nonzero"/>
                        </g>
                    </g>
                </g>
                <g class="typst-group" transform="matrix(1 0 0 1 60.80000000000001 8)">
                    <g/>
                </g>
                <g class="typst-group" transform="matrix(1 0 0 1 8 31.232000000000003)">
                    <g/>
                </g>
                <g class="typst-group" transform="matrix(1 0 0 1 8 31.232000000000003)">
                    <g/>
                </g>
                <g class="typst-group" transform="matrix(1 0 0 1 8 31.232000000000003)">
                    <g/>
                </g>
                <g class="typst-group" transform="matrix(1 0 0 1 8 19.616)">
                    <g>
                        <g class="typst-text" transform="matrix(1 0 0 -1 0 8.976000000000003)">
                            <use xlink:href="#g553CA0615203AE7EF2B51E16776E3FE0" x="5.28" y="0" fill="#ff0000" fill-rule="nonzero"/>
                            <use xlink:href="#g553CA0615203AE7EF2B51E16776E3FE0" x="15.84" y="0" fill="#ff0000" fill-rule="nonzero"/>
                            <use xlink:href="#g363496F2D5142F8F4982DAF4CE1D3779" x="42.24" y="0" fill="#ff0000" fill-rule="nonzero"/>
                        </g>
                    </g>
                </g>
                <g class="typst-group" transform="matrix(1 0 0 1 60.80000000000001 19.616)">
                    <g/>
                </g>
                <g class="typst-group" transform="matrix(1 0 0 1 8 42.848000000000006)">
                    <g/>
                </g>
                <g class="typst-group" transform="matrix(1 0 0 1 8 42.848000000000006)">
                    <g/>
                </g>
                <g class="typst-group" transform="matrix(1 0 0 1 8 42.848000000000006)">
                    <g/>
                </g>
                <g class="typst-group" transform="matrix(1 0 0 1 8 31.232000000000003)">
                    <g>
                        <g class="typst-text" transform="matrix(1 0 0 -1 0 8.976000000000003)">
                            <use xlink:href="#g553CA0615203AE7EF2B51E16776E3FE0" x="10.56" y="0" fill="#ff0000" fill-rule="nonzero"/>
                            <use xlink:href="#g553CA0615203AE7EF2B51E16776E3FE0" x="21.12" y="0" fill="#ff0000" fill-rule="nonzero"/>
                            <use xlink:href="#g4EE50823DE1072B888352BF5ED93E90B" x="31.680000000000003" y="0" fill="#ff0000" fill-rule="nonzero"/>
                            <use xlink:href="#g4EE50823DE1072B888352BF5ED93E90B" x="42.24" y="0" fill="#ff0000" fill-rule="nonzero"/>
                        </g>
                    </g>
                </g>
                <g class="typst-group" transform="matrix(1 0 0 1 60.80000000000001 31.232000000000003)">
                    <g/>
                </g>
                <g class="typst-group" transform="matrix(1 0 0 1 8 54.464000000000006)">
                    <g/>
                </g>
                <g class="typst-group" transform="matrix(1 0 0 1 8 54.464000000000006)">
                    <g/>
                </g>
                <g class="typst-group" transform="matrix(1 0 0 1 8 54.464000000000006)">
                    <g/>
                </g>
                <g class="typst-group" transform="matrix(1 0 0 1 8 42.848000000000006)">
                    <g>
                        <g class="typst-text" transform="matrix(1 0 0 -1 0 8.976000000000003)">
                            <use xlink:href="#g553CA0615203AE7EF2B51E16776E3FE0" x="15.84" y="0" fill="#ff0000" fill-rule="nonzero"/>
                            <use xlink:href="#g1DD39D4DBC4E707CA02FA0969C4E4C2" x="26.400000000000002" y="0" fill="#ff0000" fill-rule="nonzero"/>
                            <use xlink:href="#g4EE50823DE1072B888352BF5ED93E90B" x="36.96" y="0" fill="#ff0000" fill-rule="nonzero"/>
                        </g>
                    </g>
                </g>
                <g class="typst-group" transform="matrix(1 0 0 1 60.80000000000001 42.848000000000006)">
                    <g/>
                </g>
                <g class="typst-group" transform="matrix(1 0 0 1 8 66.08)">
                    <g/>
                </g>
                <g class="typst-group" transform="matrix(1 0 0 1 8 66.08)">
                    <g/>
                </g>
                <g class="typst-group" transform="matrix(1 0 0 1 8 66.08)">
                    <g/>
                </g>
                <g class="typst-group" transform="matrix(1 0 0 1 8 54.464000000000006)">
                    <g>
                        <g class="typst-text" transform="matrix(1 0 0 -1 0 8.976000000000003)">
                            <use xlink:href="#g4EE50823DE1072B888352BF5ED93E90B" x="15.84" y="0" fill="#ff0000" fill-rule="nonzero"/>
                            <use xlink:href="#gEB20B197638B23C20845973F58CB19AC" x="26.400000000000002" y="0" fill="#ff0000" fill-rule="nonzero"/>
                            <use xlink:href="#g553CA0615203AE7EF2B51E16776E3FE0" x="36.96" y="0" fill="#ff0000" fill-rule="nonzero"/>
                        </g>
                    </g>
                </g>
                <g class="typst-group" transform="matrix(1 0 0 1 60.80000000000001 54.464000000000006)">
                    <g/>
                </g>
                <g class="typst-group" transform="matrix(1 0 0 1 8 77.69600000000001)">
                    <g/>
                </g>
                <g class="typst-group" transform="matrix(1 0 0 1 8 77.69600000000001)">
                    <g/>
                </g>
                <g class="typst-group" transform="matrix(1 0 0 1 8 77.69600000000001)">
                    <g/>
                </g>
                <g class="typst-group" transform="matrix(1 0 0 1 8 66.08)">
                    <g>
                        <g class="typst-text" transform="matrix(1 0 0 -1 0 8.976000000000003)">
                            <use xlink:href="#g4EE50823DE1072B888352BF5ED93E90B" x="10.56" y="0" fill="#ff0000" fill-rule="nonzero"/>
                            <use xlink:href="#gB3CB5C71C376FEAC35A5CE3E9D70B056" x="15.84" y="0" fill="#ff0000" fill-rule="nonzero"/>
                            <use xlink:href="#g4EE50823DE1072B888352BF5ED93E90B" x="21.12" y="0" fill="#ff0000" fill-rule="nonzero"/>
                            <use xlink:href="#g553CA0615203AE7EF2B51E16776E3FE0" x="31.680000000000003" y="0" fill="#ff0000" fill-rule="nonzero"/>
                            <use xlink:href="#g553CA0615203AE7EF2B51E16776E3FE0" x="42.24" y="0" fill="#ff0000" fill-rule="nonzero"/>
                        </g>
                    </g>
                </g>
                <g class="typst-group" transform="matrix(1 0 0 1 60.80000000000001 66.08)">
                    <g/>
                </g>
                <g class="typst-group" transform="matrix(1 0 0 1 8 89.31200000000001)">
                    <g/>
                </g>
                <g class="typst-group" transform="matrix(1 0 0 1 8 89.31200000000001)">
                    <g/>
                </g>
                <g class="typst-group" transform="matrix(1 0 0 1 8 89.31200000000001)">
                    <g/>
                </g>
                <g class="typst-group" transform="matrix(1 0 0 1 8 77.69600000000001)">
                    <g>
                        <g class="typst-text" transform="matrix(1 0 0 -1 0 8.976000000000003)">
                            <use xlink:href="#g553CA0615203AE7EF2B51E16776E3FE0" x="36.96" y="0" fill="#ff0000" fill-rule="nonzero"/>
                            <use xlink:href="#gB3CB5C71C376FEAC35A5CE3E9D70B056" x="42.24" y="0" fill="#ff0000" fill-rule="nonzero"/>
                            <use xlink:href="#g553CA0615203AE7EF2B51E16776E3FE0" x="47.52" y="0" fill="#ff0000" fill-rule="nonzero"/>
                        </g>
                    </g>
                </g>
                <g class="typst-group" transform="matrix(1 0 0 1 60.80000000000001 77.69600000000001)">
                    <g/>
                </g>
                <g class="typst-group" transform="matrix(1 0 0 1 8 89.31200000000001)">
                    <g/>
                </g>
                <g class="typst-group" transform="matrix(1 0 0 1 8 100.92800000000001)">
                    <g/>
                </g>
            </g>
        </g>
    </g>
    <defs id="glyph">
        <symbol id="g363496F2D5142F8F4982DAF4CE1D3779" overflow="visible">
            <path d="M 0 0m -4.752 -1.2144 v 0.9944 h 9.504 v -0.9944 h -9.504 Z "/>
        </symbol>
        <symbol id="g553CA0615203AE7EF2B51E16776E3FE0" overflow="visible">
            <path d="M 0 0m 3.5992 -0.968 l -3.0712 8.272 h 1.1439999 l 3.0712 -8.272 h -1.1439998 Z "/>
        </symbol>
        <symbol id="g4EE50823DE1072B888352BF5ED93E90B" overflow="visible">
            <path d="M 0 0m 0.528 -0.968 l 3.08 8.272 h 1.1439998 l -3.08 -8.272 h -1.1439999 Z "/>
        </symbol>
        <symbol id="g1DD39D4DBC4E707CA02FA0969C4E4C2" overflow="visible">
            <path d="M 0 0m 1.9448 0 l -1.628 4.84 h 1.1528 l 0.93280005 -2.9392002 q 0.08800006 -0.26399994 0.15400004 -0.5324 q 0.065999985 -0.26839995 0.092399836 -0.462 q 0.03520012 0.19360006 0.092400074 0.462 q 0.057199955 0.26840007 0.13639998 0.5236 l 0.924 2.9480002 h 1.1616001 l -1.6192002 -4.84 h -1.3991998 Z "/>
        </symbol>
        <symbol id="gEB20B197638B23C20845973F58CB19AC" overflow="visible">
            <path d="M 0 0m 2.6399999 -0.088 q -0.36959982 0 -0.59399986 0.2244 q -0.22440004 0.2244 -0.22440004 0.5852 q 0 0.36079997 0.22440004 0.5896 q 0.22440004 0.22879994 0.59399986 0.22879994 q 0.36960006 0 0.5940001 -0.22879994 q 0.22440004 -0.22880006 0.22440004 -0.5896 q 0 -0.3608 -0.22440004 -0.5852 q -0.22440004 -0.2244 -0.5940001 -0.2244 Z "/>
        </symbol>
        <symbol id="gB3CB5C71C376FEAC35A5CE3E9D70B056" overflow="visible">
            <path d="M 0 0m 0.528 -1.2144 v 0.9944 h 4.224 v -0.9944 h -4.224 Z "/>
        </symbol>
    </defs>
</svg>
