<svg class="typst-doc" viewBox="0 0 118.26645669291341 148.8904566929134" width="118.26645669291341pt" height="148.8904566929134pt" xmlns="http://www.w3.org/2000/svg" xmlns:xlink="http://www.w3.org/1999/xlink" xmlns:h5="http://www.w3.org/1999/xhtml">
    <path class="typst-shape" fill="#ffffff" fill-rule="nonzero" d="M 0 0v 148.89046 h 118.26646 v -148.89046 Z "/>
    <g>
        <g class="typst-group" transform="matrix(1 0 0 1 14.173228346456693 14.173228346456693)">
            <g>
                <path class="typst-shape" fill="#000000" fill-rule="nonzero" d="M 0 0m 0 5 c 0 -2.7614238 2.2385762 -5 5 -5 h 79.92 c 2.7614288 0 5 2.2385762 5 5 v 110.544 c 0 2.7614288 -2.2385712 5 -5 5 h -79.92 c -2.7614238 0 -5 -2.2385712 -5 -5 Z "/>
                <g class="typst-group" transform="matrix(1 0 0 1 8 19.616)">
                    <g/>
                </g>
                <g class="typst-group" transform="matrix(1 0 0 1 8 19.616)">
                    <g/>
                </g>
                <g class="typst-group" transform="matrix(1 0 0 1 8 8)">
                    <g>
                        <g class="typst-text" transform="matrix(1 0 0 -1 0 8.976000000000003)">
                            <use xlink:href="#gAA916D20060123FCDF49DDE23FB7E4B3" x="5.28" y="0" fill="#0000ff" fill-rule="nonzero"/>
                            <use xlink:href="#gAA916D20060123FCDF49DDE23FB7E4B3" x="10.56" y="0" fill="#0000ff" fill-rule="nonzero"/>
                            <use xlink:href="#gAA916D20060123FCDF49DDE23FB7E4B3" x="58.080000000000005" y="0" fill="#0000ff" fill-rule="nonzero"/>
                            <use xlink:href="#gAA916D20060123FCDF49DDE23FB7E4B3" x="63.36000000000001" y="0" fill="#0000ff" fill-rule="nonzero"/>
                        </g>
                    </g>
                </g>
                <g class="typst-group" transform="matrix(1 0 0 1 81.92000000000002 8)">
                    <g/>
                </g>
                <g class="typst-group">
                    <g>
                        <g class="typst-group" transform="matrix(1 0 0 1 8 31.232)">
                            <g/>
                        </g>
                        <g class="typst-group" transform="matrix(1 0 0 1 8 31.232)">
                            <g/>
                        </g>
                        <g class="typst-group" transform="matrix(1 0 0 1 8 31.232)">
                            <g/>
                        </g>
                        <g class="typst-group" transform="matrix(1 0 0 1 8 19.616)">
                            <g>
                                <g class="typst-text" transform="matrix(1 0 0 -1 0 8.976000000000003)">
                                    <use xlink:href="#gF487734A8DAA53A2D2317E425E86F6B1" x="0" y="0" fill="#0000ff" fill-rule="nonzero"/>
                                </g>
                            </g>
                        </g>
                        <g class="typst-group" transform="matrix(1 0 0 1 13.28 19.616)">
                            <g>
                                <g class="typst-text" transform="matrix(1 0 0 -1 0 8.976000000000003)">
                                    <use xlink:href="#gAA916D20060123FCDF49DDE23FB7E4B3" x="0" y="0" fill="#ffffff" fill-rule="nonzero"/>
                                </g>
                            </g>
                        </g>
                        <g class="typst-group" transform="matrix(1 0 0 1 18.56 19.616)">
                            <g>
                                <g class="typst-text" transform="matrix(1 0 0 -1 0 8.976000000000003)">
                                    <use xlink:href="#gFD5E24C590020160A507FE1B2B955D0E" x="5.28" y="0" fill="#0000ff" fill-rule="nonzero"/>
                                    <use xlink:href="#gAA916D20060123FCDF49DDE23FB7E4B3" x="10.56" y="0" fill="#0000ff" fill-rule="nonzero"/>
                                    <use xlink:href="#gAA916D20060123FCDF49DDE23FB7E4B3" x="36.96" y="0" fill="#0000ff" fill-rule="nonzero"/>
                                    <use xlink:href="#gFD5E24C590020160A507FE1B2B955D0E" x="42.24" y="0" fill="#0000ff" fill-rule="nonzero"/>
                                </g>
                            </g>
                        </g>
                        <g class="typst-group" transform="matrix(1 0 0 1 71.36000000000001 19.616)">
                            <g>
                                <g class="typst-text" transform="matrix(1 0 0 -1 0 8.976000000000003)">
                                    <use xlink:href="#gAA916D20060123FCDF49DDE23FB7E4B3" x="0" y="0" fill="#ffffff" fill-rule="nonzero"/>
                                </g>
                            </g>
                        </g>
                        <g class="typst-group" transform="matrix(1 0 0 1 76.64 19.616)">
                            <g>
                                <g class="typst-text" transform="matrix(1 0 0 -1 0 8.976000000000003)">
                                    <use xlink:href="#gF487734A8DAA53A2D2317E425E86F6B1" x="0" y="0" fill="#0000ff" fill-rule="nonzero"/>
                                </g>
                            </g>
                        </g>
                        <g class="typst-group" transform="matrix(1 0 0 1 81.92 19.616)">
                            <g/>
                        </g>
                    </g>
                </g>
                <g class="typst-group">
                    <g>
                        <g class="typst-group" transform="matrix(1 0 0 1 8 42.848000000000006)">
                            <g/>
                        </g>
                        <g class="typst-group" transform="matrix(1 0 0 1 8 42.848000000000006)">
                            <g/>
                        </g>
                        <g class="typst-group" transform="matrix(1 0 0 1 8 42.848000000000006)">
                            <g/>
                        </g>
                        <g class="typst-group" transform="matrix(1 0 0 1 8 31.232000000000003)">
                            <g>
                                <g class="typst-text" transform="matrix(1 0 0 -1 0 8.976000000000003)">
                                    <use xlink:href="#gF487734A8DAA53A2D2317E425E86F6B1" x="0" y="0" fill="#0000ff" fill-rule="nonzero"/>
                                </g>
                            </g>
                        </g>
                        <g class="typst-group" transform="matrix(1 0 0 1 18.56 31.232000000000003)">
                            <g>
                                <g class="typst-text" transform="matrix(1 0 0 -1 0 8.976000000000003)">
                                    <use xlink:href="#gFD5E24C590020160A507FE1B2B955D0E" x="0" y="0" fill="#ffffff" fill-rule="nonzero"/>
                                    <use xlink:href="#gAA916D20060123FCDF49DDE23FB7E4B3" x="5.28" y="0" fill="#ffffff" fill-rule="nonzero"/>
                                </g>
                            </g>
                        </g>
                        <g class="typst-group" transform="matrix(1 0 0 1 29.12 31.232000000000003)">
                            <g>
                                <g class="typst-text" transform="matrix(1 0 0 -1 0 8.976000000000003)">
                                    <use xlink:href="#gFD5E24C590020160A507FE1B2B955D0E" x="5.28" y="0" fill="#0000ff" fill-rule="nonzero"/>
                                    <use xlink:href="#gAA916D20060123FCDF49DDE23FB7E4B3" x="10.56" y="0" fill="#0000ff" fill-rule="nonzero"/>
                                    <use xlink:href="#gAA916D20060123FCDF49DDE23FB7E4B3" x="15.84" y="0" fill="#0000ff" fill-rule="nonzero"/>
                                    <use xlink:href="#gFD5E24C590020160A507FE1B2B955D0E" x="21.12" y="0" fill="#0000ff" fill-rule="nonzero"/>
                                </g>
                            </g>
                        </g>
                        <g class="typst-group" transform="matrix(1 0 0 1 60.800000000000004 31.232000000000003)">
                            <g>
                                <g class="typst-text" transform="matrix(1 0 0 -1 0 8.976000000000003)">
                                    <use xlink:href="#gAA916D20060123FCDF49DDE23FB7E4B3" x="0" y="0" fill="#ffffff" fill-rule="nonzero"/>
                                    <use xlink:href="#gFD5E24C590020160A507FE1B2B955D0E" x="5.28" y="0" fill="#ffffff" fill-rule="nonzero"/>
                                </g>
                            </g>
                        </g>
                        <g class="typst-group" transform="matrix(1 0 0 1 71.36000000000001 31.232000000000003)">
                            <g>
                                <g class="typst-text" transform="matrix(1 0 0 -1 0 8.976000000000003)">
                                    <use xlink:href="#gF487734A8DAA53A2D2317E425E86F6B1" x="5.28" y="0" fill="#0000ff" fill-rule="nonzero"/>
                                </g>
                            </g>
                        </g>
                        <g class="typst-group" transform="matrix(1 0 0 1 81.92 31.232000000000003)">
                            <g/>
                        </g>
                    </g>
                </g>
                <g class="typst-group">
                    <g>
                        <g class="typst-group" transform="matrix(1 0 0 1 8 54.464000000000006)">
                            <g/>
                        </g>
                        <g class="typst-group" transform="matrix(1 0 0 1 8 54.464000000000006)">
                            <g/>
                        </g>
                        <g class="typst-group" transform="matrix(1 0 0 1 8 54.464000000000006)">
                            <g/>
                        </g>
                        <g class="typst-group" transform="matrix(1 0 0 1 8 42.848000000000006)">
                            <g>
                                <g class="typst-text" transform="matrix(1 0 0 -1 0 8.976000000000003)">
                                    <use xlink:href="#gF487734A8DAA53A2D2317E425E86F6B1" x="0" y="0" fill="#0000ff" fill-rule="nonzero"/>
                                </g>
                            </g>
                        </g>
                        <g class="typst-group" transform="matrix(1 0 0 1 29.12 42.848000000000006)">
                            <g>
                                <g class="typst-text" transform="matrix(1 0 0 -1 0 8.976000000000003)">
                                    <use xlink:href="#gFD5E24C590020160A507FE1B2B955D0E" x="0" y="0" fill="#ffffff" fill-rule="nonzero"/>
                                    <use xlink:href="#gAA916D20060123FCDF49DDE23FB7E4B3" x="5.28" y="0" fill="#ffffff" fill-rule="nonzero"/>
                                </g>
                            </g>
                        </g>
                        <g class="typst-group" transform="matrix(1 0 0 1 39.68000000000001 42.848000000000006)">
                            <g>
                                <g class="typst-text" transform="matrix(1 0 0 -1 0 8.976000000000003)"/>
                            </g>
                        </g>
                        <g class="typst-group" transform="matrix(1 0 0 1 50.24 42.848000000000006)">
                            <g>
                                <g class="typst-text" transform="matrix(1 0 0 -1 0 8.976000000000003)">
                                    <use xlink:href="#gAA916D20060123FCDF49DDE23FB7E4B3" x="0" y="0" fill="#ffffff" fill-rule="nonzero"/>
                                    <use xlink:href="#gFD5E24C590020160A507FE1B2B955D0E" x="5.28" y="0" fill="#ffffff" fill-rule="nonzero"/>
                                </g>
                            </g>
                        </g>
                        <g class="typst-group" transform="matrix(1 0 0 1 60.800000000000004 42.848000000000006)">
                            <g>
                                <g class="typst-text" transform="matrix(1 0 0 -1 0 8.976000000000003)">
                                    <use xlink:href="#gF487734A8DAA53A2D2317E425E86F6B1" x="15.84" y="0" fill="#0000ff" fill-rule="nonzero"/>
                                </g>
                            </g>
                        </g>
                        <g class="typst-group" transform="matrix(1 0 0 1 81.92 42.848000000000006)">
                            <g/>
                        </g>
                    </g>
                </g>
                <g class="typst-group">
                    <g>
                        <g class="typst-group" transform="matrix(1 0 0 1 8 66.08000000000001)">
                            <g/>
                        </g>
                        <g class="typst-group" transform="matrix(1 0 0 1 8 66.08000000000001)">
                            <g/>
                        </g>
                        <g class="typst-group" transform="matrix(1 0 0 1 8 66.08000000000001)">
                            <g/>
                        </g>
                        <g class="typst-group" transform="matrix(1 0 0 1 8 54.464000000000006)">
                            <g>
                                <g class="typst-text" transform="matrix(1 0 0 -1 0 8.976000000000003)">
                                    <use xlink:href="#gF487734A8DAA53A2D2317E425E86F6B1" x="0" y="0" fill="#0000ff" fill-rule="nonzero"/>
                                </g>
                            </g>
                        </g>
                        <g class="typst-group" transform="matrix(1 0 0 1 23.840000000000003 54.464000000000006)">
                            <g>
                                <g class="typst-text" transform="matrix(1 0 0 -1 0 8.976000000000003)">
                                    <use xlink:href="#gF487734A8DAA53A2D2317E425E86F6B1" x="0" y="0" fill="#ffffff" fill-rule="nonzero"/>
                                    <use xlink:href="#gAA916D20060123FCDF49DDE23FB7E4B3" x="5.28" y="0" fill="#ffffff" fill-rule="nonzero"/>
                                    <use xlink:href="#gFD5E24C590020160A507FE1B2B955D0E" x="15.84" y="0" fill="#ffffff" fill-rule="nonzero"/>
                                    <use xlink:href="#gFD5E24C590020160A507FE1B2B955D0E" x="21.12" y="0" fill="#ffffff" fill-rule="nonzero"/>
                                    <use xlink:href="#gAA916D20060123FCDF49DDE23FB7E4B3" x="31.680000000000003" y="0" fill="#ffffff" fill-rule="nonzero"/>
                                    <use xlink:href="#gF487734A8DAA53A2D2317E425E86F6B1" x="36.96" y="0" fill="#ffffff" fill-rule="nonzero"/>
                                </g>
                            </g>
                        </g>
                        <g class="typst-group" transform="matrix(1 0 0 1 66.08 54.464000000000006)">
                            <g>
                                <g class="typst-text" transform="matrix(1 0 0 -1 0 8.976000000000003)">
                                    <use xlink:href="#gF487734A8DAA53A2D2317E425E86F6B1" x="10.56" y="0" fill="#0000ff" fill-rule="nonzero"/>
                                </g>
                            </g>
                        </g>
                        <g class="typst-group" transform="matrix(1 0 0 1 81.92 54.464000000000006)">
                            <g/>
                        </g>
                    </g>
                </g>
                <g class="typst-group">
                    <g>
                        <g class="typst-group" transform="matrix(1 0 0 1 8 77.696)">
                            <g/>
                        </g>
                        <g class="typst-group" transform="matrix(1 0 0 1 8 77.696)">
                            <g/>
                        </g>
                        <g class="typst-group" transform="matrix(1 0 0 1 8 77.696)">
                            <g/>
                        </g>
                        <g class="typst-group" transform="matrix(1 0 0 1 8 66.08)">
                            <g>
                                <g class="typst-text" transform="matrix(1 0 0 -1 0 8.976000000000003)">
                                    <use xlink:href="#gF487734A8DAA53A2D2317E425E86F6B1" x="0" y="0" fill="#0000ff" fill-rule="nonzero"/>
                                </g>
                            </g>
                        </g>
                        <g class="typst-group" transform="matrix(1 0 0 1 23.840000000000003 66.08)">
                            <g>
                                <g class="typst-text" transform="matrix(1 0 0 -1 0 8.976000000000003)">
                                    <use xlink:href="#gF487734A8DAA53A2D2317E425E86F6B1" x="0" y="0" fill="#ffffff" fill-rule="nonzero"/>
                                </g>
                            </g>
                        </g>
                        <g class="typst-group" transform="matrix(1 0 0 1 29.12 66.08)">
                            <g>
                                <g class="typst-text" transform="matrix(1 0 0 -1 0 8.976000000000003)">
                                    <use xlink:href="#gF487734A8DAA53A2D2317E425E86F6B1" x="0" y="0" fill="#0000ff" fill-rule="nonzero"/>
                                </g>
                            </g>
                        </g>
                        <g class="typst-group" transform="matrix(1 0 0 1 34.4 66.08)">
                            <g>
                                <g class="typst-text" transform="matrix(1 0 0 -1 0 8.976000000000003)">
                                    <use xlink:href="#gFD5E24C590020160A507FE1B2B955D0E" x="0" y="0" fill="#ffffff" fill-rule="nonzero"/>
                                    <use xlink:href="#gAA916D20060123FCDF49DDE23FB7E4B3" x="5.28" y="0" fill="#ffffff" fill-rule="nonzero"/>
                                    <use xlink:href="#gAA916D20060123FCDF49DDE23FB7E4B3" x="10.56" y="0" fill="#ffffff" fill-rule="nonzero"/>
                                    <use xlink:href="#gFD5E24C590020160A507FE1B2B955D0E" x="15.84" y="0" fill="#ffffff" fill-rule="nonzero"/>
                                </g>
                            </g>
                        </g>
                        <g class="typst-group" transform="matrix(1 0 0 1 55.52000000000001 66.08)">
                            <g>
                                <g class="typst-text" transform="matrix(1 0 0 -1 0 8.976000000000003)">
                                    <use xlink:href="#gF487734A8DAA53A2D2317E425E86F6B1" x="0" y="0" fill="#0000ff" fill-rule="nonzero"/>
                                </g>
                            </g>
                        </g>
                        <g class="typst-group" transform="matrix(1 0 0 1 60.80000000000001 66.08)">
                            <g>
                                <g class="typst-text" transform="matrix(1 0 0 -1 0 8.976000000000003)">
                                    <use xlink:href="#gF487734A8DAA53A2D2317E425E86F6B1" x="0" y="0" fill="#ffffff" fill-rule="nonzero"/>
                                </g>
                            </g>
                        </g>
                        <g class="typst-group" transform="matrix(1 0 0 1 66.08000000000001 66.08)">
                            <g>
                                <g class="typst-text" transform="matrix(1 0 0 -1 0 8.976000000000003)">
                                    <use xlink:href="#gF487734A8DAA53A2D2317E425E86F6B1" x="10.56" y="0" fill="#0000ff" fill-rule="nonzero"/>
                                </g>
                            </g>
                        </g>
                        <g class="typst-group" transform="matrix(1 0 0 1 81.92000000000002 66.08)">
                            <g/>
                        </g>
                    </g>
                </g>
                <g class="typst-group">
                    <g>
                        <g class="typst-group" transform="matrix(1 0 0 1 8 89.31200000000001)">
                            <g/>
                        </g>
                        <g class="typst-group" transform="matrix(1 0 0 1 8 89.31200000000001)">
                            <g/>
                        </g>
                        <g class="typst-group" transform="matrix(1 0 0 1 8 89.31200000000001)">
                            <g/>
                        </g>
                        <g class="typst-group" transform="matrix(1 0 0 1 8 77.69600000000001)">
                            <g>
                                <g class="typst-text" transform="matrix(1 0 0 -1 0 8.976000000000003)">
                                    <use xlink:href="#gFD5E24C590020160A507FE1B2B955D0E" x="0" y="0" fill="#0000ff" fill-rule="nonzero"/>
                                    <use xlink:href="#gAA916D20060123FCDF49DDE23FB7E4B3" x="5.28" y="0" fill="#0000ff" fill-rule="nonzero"/>
                                </g>
                            </g>
                        </g>
                        <g class="typst-group" transform="matrix(1 0 0 1 23.840000000000003 77.69600000000001)">
                            <g>
                                <g class="typst-text" transform="matrix(1 0 0 -1 0 8.976000000000003)">
                                    <use xlink:href="#gF487734A8DAA53A2D2317E425E86F6B1" x="0" y="0" fill="#ffffff" fill-rule="nonzero"/>
                                </g>
                            </g>
                        </g>
                        <g class="typst-group" transform="matrix(1 0 0 1 29.12 77.69600000000001)">
                            <g>
                                <g class="typst-text" transform="matrix(1 0 0 -1 0 8.976000000000003)">
                                    <use xlink:href="#g75F6E4C2EC65BB18E9FEC8CC10FB9D59" x="5.28" y="0" fill="#0000ff" fill-rule="nonzero"/>
                                    <use xlink:href="#g75F6E4C2EC65BB18E9FEC8CC10FB9D59" x="26.400000000000002" y="0" fill="#0000ff" fill-rule="nonzero"/>
                                </g>
                            </g>
                        </g>
                        <g class="typst-group" transform="matrix(1 0 0 1 60.800000000000004 77.69600000000001)">
                            <g>
                                <g class="typst-text" transform="matrix(1 0 0 -1 0 8.976000000000003)">
                                    <use xlink:href="#gF487734A8DAA53A2D2317E425E86F6B1" x="0" y="0" fill="#ffffff" fill-rule="nonzero"/>
                                </g>
                            </g>
                        </g>
                        <g class="typst-group" transform="matrix(1 0 0 1 66.08 77.69600000000001)">
                            <g>
                                <g class="typst-text" transform="matrix(1 0 0 -1 0 8.976000000000003)">
                                    <use xlink:href="#gAA916D20060123FCDF49DDE23FB7E4B3" x="5.28" y="0" fill="#0000ff" fill-rule="nonzero"/>
                                    <use xlink:href="#gFD5E24C590020160A507FE1B2B955D0E" x="10.56" y="0" fill="#0000ff" fill-rule="nonzero"/>
                                </g>
                            </g>
                        </g>
                        <g class="typst-group" transform="matrix(1 0 0 1 81.92 77.69600000000001)">
                            <g/>
                        </g>
                    </g>
                </g>
                <g class="typst-group">
                    <g>
                        <g class="typst-group" transform="matrix(1 0 0 1 8 100.92800000000001)">
                            <g/>
                        </g>
                        <g class="typst-group" transform="matrix(1 0 0 1 8 100.92800000000001)">
                            <g/>
                        </g>
                        <g class="typst-group" transform="matrix(1 0 0 1 8 89.31200000000001)">
                            <g>
                                <g class="typst-text" transform="matrix(1 0 0 -1 0 8.976000000000003)"/>
                            </g>
                        </g>
                        <g class="typst-group" transform="matrix(1 0 0 1 13.28 89.31200000000001)">
                            <g>
                                <g class="typst-text" transform="matrix(1 0 0 -1 0 8.976000000000003)">
                                    <use xlink:href="#gFD5E24C590020160A507FE1B2B955D0E" x="5.28" y="0" fill="#0000ff" fill-rule="nonzero"/>
                                </g>
                            </g>
                        </g>
                        <g class="typst-group" transform="matrix(1 0 0 1 23.840000000000003 89.31200000000001)">
                            <g>
                                <g class="typst-text" transform="matrix(1 0 0 -1 0 8.976000000000003)">
                                    <use xlink:href="#gF487734A8DAA53A2D2317E425E86F6B1" x="0" y="0" fill="#ffffff" fill-rule="nonzero"/>
                                </g>
                            </g>
                        </g>
                        <g class="typst-group" transform="matrix(1 0 0 1 29.12 89.31200000000001)">
                            <g>
                                <g class="typst-text" transform="matrix(1 0 0 -1 0 8.976000000000003)">
                                    <use xlink:href="#gFD5E24C590020160A507FE1B2B955D0E" x="0" y="0" fill="#0000ff" fill-rule="nonzero"/>
                                    <use xlink:href="#gFD5E24C590020160A507FE1B2B955D0E" x="26.400000000000002" y="0" fill="#0000ff" fill-rule="nonzero"/>
                                </g>
                            </g>
                        </g>
                        <g class="typst-group" transform="matrix(1 0 0 1 60.800000000000004 89.31200000000001)">
                            <g>
                                <g class="typst-text" transform="matrix(1 0 0 -1 0 8.976000000000003)">
                                    <use xlink:href="#gF487734A8DAA53A2D2317E425E86F6B1" x="0" y="0" fill="#ffffff" fill-rule="nonzero"/>
                                </g>
                            </g>
                        </g>
                        <g class="typst-group" transform="matrix(1 0 0 1 66.08 89.31200000000001)">
                            <g>
                                <g class="typst-text" transform="matrix(1 0 0 -1 0 8.976000000000003)">
                                    <use xlink:href="#gFD5E24C590020160A507FE1B2B955D0E" x="0" y="0" fill="#0000ff" fill-rule="nonzero"/>
                                </g>
                            </g>
                        </g>
                        <g class="typst-group" transform="matrix(1 0 0 1 81.92 89.31200000000001)">
                            <g/>
                        </g>
                    </g>
                </g>
                <g class="typst-group" transform="matrix(1 0 0 1 8 100.92800000000001)">
                    <g/>
                </g>
                <g class="typst-group" transform="matrix(1 0 0 1 8 112.54400000000001)">
                    <g/>
                </g>
            </g>
        </g>
    </g>
    <defs id="glyph">
        <symbol id="gAA916D20060123FCDF49DDE23FB7E4B3" overflow="visible">
            <path d="M 0 0m 1.6719999 -1.408 l 0.46640015 2.6928 h 1.2584 l -0.6688001 -2.6928 h -1.056 Z "/>
        </symbol>
        <symbol id="gF487734A8DAA53A2D2317E425E86F6B1" overflow="visible">
            <path d="M 0 0m 2.552 3.4496 q -0.32560015 0 -0.53240013 0.2112 q -0.20679998 0.2112 -0.20679998 0.5279999 q 0 0.31680012 0.2112 0.5279999 q 0.2112 0.21120024 0.5280001 0.21120024 h 0.17599988 q 0.31680012 0 0.5280001 -0.21120024 q 0.2112 -0.21119976 0.2112 -0.5279999 q 0 -0.31679988 -0.20679998 -0.5279999 q -0.20679998 -0.2112 -0.53240013 -0.2112 h -0.17599988 Z m -0.924 -4.8576 l 0.4663999 2.6928 h 1.2584 l -0.6687999 -2.6928 h -1.056 Z "/>
        </symbol>
        <symbol id="gFD5E24C590020160A507FE1B2B955D0E" overflow="visible">
            <path d="M 0 0m 2.1296 3.784 l -0.07920003 2.6399999 h 1.1791999 l -0.0704 -2.6399999 h -1.0295999 Z "/>
        </symbol>
        <symbol id="g75F6E4C2EC65BB18E9FEC8CC10FB9D59" overflow="visible">
            <path d="M 0 0m -2.024 3.4496 q -0.32560015 0 -0.53240013 0.2112 q -0.20679998 0.2112 -0.20679998 0.5279999 q 0 0.31680012 0.2112 0.5279999 q 0.2112 0.21120024 0.5280001 0.21120024 h 0.17599988 q 0.31680012 0 0.5280001 -0.21120024 q 0.2112 -0.21119976 0.2112 -0.5279999 q 0 -0.31679988 -0.2068001 -0.5279999 q -0.20679998 -0.2112 -0.5324 -0.2112 h -0.17599988 Z m -0.924 -4.8576 l 0.4663999 2.6928 h 1.2584001 l -0.6688 -2.6928 h -1.056 Z m 4.796 4.8576 q -0.32560003 0 -0.5324 0.2112 q -0.2068001 0.2112 -0.2068001 0.5279999 q 0 0.31680012 0.2112 0.5279999 q 0.2112 0.21120024 0.5280001 0.21120024 h 0.17599988 q 0.31680012 0 0.5280001 -0.21120024 q 0.2112 -0.21119976 0.2112 -0.5279999 q 0 -0.31679988 -0.20679998 -0.5279999 q -0.20679998 -0.2112 -0.53240013 -0.2112 h -0.17599988 Z m -0.924 -4.8576 l 0.4663999 2.6928 h 1.2584 l -0.6687999 -2.6928 h -1.056 Z "/>
        </symbol>
    </defs>
</svg>
