<svg class="typst-doc" viewBox="0 0 112.9864566929134 137.2744566929134" width="112.9864566929134pt" height="137.2744566929134pt" xmlns="http://www.w3.org/2000/svg" xmlns:xlink="http://www.w3.org/1999/xlink" xmlns:h5="http://www.w3.org/1999/xhtml">
    <path class="typst-shape" fill="#ffffff" fill-rule="nonzero" d="M 0 0v 137.27446 h 112.98646 v -137.27446 Z "/>
    <g>
        <g class="typst-group" transform="matrix(1 0 0 1 14.173228346456693 14.173228346456693)">
            <g>
                <path class="typst-shape" fill="#000000" fill-rule="nonzero" d="M 0 0m 0 5 c 0 -2.7614238 2.2385762 -5 5 -5 h 74.64 c 2.7614212 0 5 2.2385762 5 5 v 98.928 c 0 2.7614212 -2.2385788 5 -5 5 h -74.64 c -2.7614238 0 -5 -2.2385788 -5 -5 Z "/>
                <g class="typst-group" transform="matrix(1 0 0 1 8 19.616)">
                    <g/>
                </g>
                <g class="typst-group" transform="matrix(1 0 0 1 8 19.616)">
                    <g/>
                </g>
                <g class="typst-group" transform="matrix(1 0 0 1 8 8)">
                    <g>
                        <g class="typst-text" transform="matrix(1 0 0 -1 0 8.976000000000003)">
                            <use xlink:href="#gB3CB5C71C376FEAC35A5CE3E9D70B056" x="21.12" y="0" fill="#ffffff" fill-rule="nonzero"/>
                            <use xlink:href="#gB3CB5C71C376FEAC35A5CE3E9D70B056" x="26.400000000000002" y="0" fill="#ffffff" fill-rule="nonzero"/>
                            <use xlink:href="#gB3CB5C71C376FEAC35A5CE3E9D70B056" x="31.680000000000003" y="0" fill="#ffffff" fill-rule="nonzero"/>
                            <use xlink:href="#gB3CB5C71C376FEAC35A5CE3E9D70B056" x="36.96" y="0" fill="#ffffff" fill-rule="nonzero"/>
                            <use xlink:href="#gB3CB5C71C376FEAC35A5CE3E9D70B056" x="42.24" y="0" fill="#ffffff" fill-rule="nonzero"/>
                        </g>
                    </g>
                </g>
                <g class="typst-group" transform="matrix(1 0 0 1 76.64000000000001 8)">
                    <g/>
                </g>
                <g class="typst-group">
                    <g>
                        <g class="typst-group" transform="matrix(1 0 0 1 8 31.232)">
                            <g/>
                        </g>
                        <g class="typst-group" transform="matrix(1 0 0 1 8 31.232)">
                            <g/>
                        </g>
                        <g class="typst-group" transform="matrix(1 0 0 1 8 31.232)">
                            <g/>
                        </g>
                        <g class="typst-group" transform="matrix(1 0 0 1 8 19.616)">
                            <g>
                                <g class="typst-text" transform="matrix(1 0 0 -1 0 8.976000000000003)">
                                    <use xlink:href="#gAA916D20060123FCDF49DDE23FB7E4B3" x="10.56" y="0" fill="#ff0000" fill-rule="nonzero"/>
                                    <use xlink:href="#g7F30B59DCAF383D6B34C412A1FA2300E" x="15.84" y="0" fill="#ff0000" fill-rule="nonzero"/>
                                </g>
                            </g>
                        </g>
                        <g class="typst-group" transform="matrix(1 0 0 1 29.12 19.616)">
                            <g>
                                <g class="typst-text" transform="matrix(1 0 0 -1 0 8.976000000000003)">
                                    <use xlink:href="#g7F30B59DCAF383D6B34C412A1FA2300E" x="26.400000000000002" y="0" fill="#ffffff" fill-rule="nonzero"/>
                                    <use xlink:href="#gAA916D20060123FCDF49DDE23FB7E4B3" x="31.680000000000003" y="0" fill="#ffffff" fill-rule="nonzero"/>
                                </g>
                            </g>
                        </g>
                        <g class="typst-group" transform="matrix(1 0 0 1 76.64 19.616)">
                            <g/>
                        </g>
                    </g>
                </g>
                <g class="typst-group">
                    <g>
                        <g class="typst-group" transform="matrix(1 0 0 1 8 42.848000000000006)">
                            <g/>
                        </g>
                        <g class="typst-group" transform="matrix(1 0 0 1 8 42.848000000000006)">
                            <g/>
                        </g>
                        <g class="typst-group" transform="matrix(1 0 0 1 8 42.848000000000006)">
                            <g/>
                        </g>
                        <g class="typst-group" transform="matrix(1 0 0 1 8 31.232000000000003)">
                            <g>
                                <g class="typst-text" transform="matrix(1 0 0 -1 0 8.976000000000003)">
                                    <use xlink:href="#gF487734A8DAA53A2D2317E425E86F6B1" x="5.28" y="0" fill="#ff0000" fill-rule="nonzero"/>
                                </g>
                            </g>
                        </g>
                        <g class="typst-group" transform="matrix(1 0 0 1 18.56 31.232000000000003)">
                            <g>
                                <g class="typst-text" transform="matrix(1 0 0 -1 0 8.976000000000003)">
                                    <use xlink:href="#g1DC2B9F958B9FBE8E8310F083FFEC1D6" x="5.28" y="0" fill="#ffffff" fill-rule="nonzero"/>
                                    <use xlink:href="#gF487734A8DAA53A2D2317E425E86F6B1" x="47.52" y="0" fill="#ffffff" fill-rule="nonzero"/>
                                </g>
                            </g>
                        </g>
                        <g class="typst-group" transform="matrix(1 0 0 1 76.64000000000001 31.232000000000003)">
                            <g/>
                        </g>
                    </g>
                </g>
                <g class="typst-group">
                    <g>
                        <g class="typst-group" transform="matrix(1 0 0 1 8 54.464000000000006)">
                            <g/>
                        </g>
                        <g class="typst-group" transform="matrix(1 0 0 1 8 54.464000000000006)">
                            <g/>
                        </g>
                        <g class="typst-group" transform="matrix(1 0 0 1 8 54.464000000000006)">
                            <g/>
                        </g>
                        <g class="typst-group" transform="matrix(1 0 0 1 8 42.848000000000006)">
                            <g>
                                <g class="typst-text" transform="matrix(1 0 0 -1 0 8.976000000000003)">
                                    <use xlink:href="#gD7BC2388059FC0B3DF9C32F4768A0A47" x="0" y="0" fill="#ff0000" fill-rule="nonzero"/>
                                </g>
                            </g>
                        </g>
                        <g class="typst-group" transform="matrix(1 0 0 1 18.56 42.848000000000006)">
                            <g>
                                <g class="typst-text" transform="matrix(1 0 0 -1 0 8.976000000000003)">
                                    <use xlink:href="#gEB20B197638B23C20845973F58CB19AC" x="0" y="0" fill="#ffffff" fill-rule="nonzero"/>
                                    <use xlink:href="#g553CA0615203AE7EF2B51E16776E3FE0" x="10.56" y="0" fill="#ffffff" fill-rule="nonzero"/>
                                    <use xlink:href="#gB3CB5C71C376FEAC35A5CE3E9D70B056" x="15.84" y="0" fill="#ffffff" fill-rule="nonzero"/>
                                </g>
                            </g>
                        </g>
                        <g class="typst-group" transform="matrix(1 0 0 1 39.68000000000001 42.848000000000006)">
                            <g>
                                <g class="typst-text" transform="matrix(1 0 0 -1 0 8.976000000000003)">
                                    <use xlink:href="#gEB20B197638B23C20845973F58CB19AC" x="0" y="0" fill="#ff0000" fill-rule="nonzero"/>
                                    <use xlink:href="#gAA916D20060123FCDF49DDE23FB7E4B3" x="5.28" y="0" fill="#ff0000" fill-rule="nonzero"/>
                                </g>
                            </g>
                        </g>
                        <g class="typst-group" transform="matrix(1 0 0 1 50.24 42.848000000000006)">
                            <g>
                                <g class="typst-text" transform="matrix(1 0 0 -1 0 8.976000000000003)">
                                    <use xlink:href="#gD7BC2388059FC0B3DF9C32F4768A0A47" x="21.12" y="0" fill="#ffffff" fill-rule="nonzero"/>
                                </g>
                            </g>
                        </g>
                        <g class="typst-group" transform="matrix(1 0 0 1 76.64 42.848000000000006)">
                            <g/>
                        </g>
                    </g>
                </g>
                <g class="typst-group">
                    <g>
                        <g class="typst-group" transform="matrix(1 0 0 1 8 66.08000000000001)">
                            <g/>
                        </g>
                        <g class="typst-group" transform="matrix(1 0 0 1 8 66.08000000000001)">
                            <g/>
                        </g>
                        <g class="typst-group" transform="matrix(1 0 0 1 8 66.08000000000001)">
                            <g/>
                        </g>
                        <g class="typst-group" transform="matrix(1 0 0 1 8 54.464000000000006)">
                            <g>
                                <g class="typst-text" transform="matrix(1 0 0 -1 0 8.976000000000003)">
                                    <use xlink:href="#gD7BC2388059FC0B3DF9C32F4768A0A47" x="0" y="0" fill="#ff0000" fill-rule="nonzero"/>
                                </g>
                            </g>
                        </g>
                        <g class="typst-group" transform="matrix(1 0 0 1 23.840000000000003 54.464000000000006)">
                            <g>
                                <g class="typst-text" transform="matrix(1 0 0 -1 0 8.976000000000003)">
                                    <use xlink:href="#gF2B97E1828C86C53ED55366D14432730" x="0" y="0" fill="#ffffff" fill-rule="nonzero"/>
                                    <use xlink:href="#gB3CB5C71C376FEAC35A5CE3E9D70B056" x="15.84" y="0" fill="#ffffff" fill-rule="nonzero"/>
                                </g>
                            </g>
                        </g>
                        <g class="typst-group" transform="matrix(1 0 0 1 44.96 54.464000000000006)">
                            <g>
                                <g class="typst-text" transform="matrix(1 0 0 -1 0 8.976000000000003)">
                                    <use xlink:href="#gFD5E24C590020160A507FE1B2B955D0E" x="5.28" y="0" fill="#ff0000" fill-rule="nonzero"/>
                                    <use xlink:href="#gAA916D20060123FCDF49DDE23FB7E4B3" x="10.56" y="0" fill="#ff0000" fill-rule="nonzero"/>
                                </g>
                            </g>
                        </g>
                        <g class="typst-group" transform="matrix(1 0 0 1 60.800000000000004 54.464000000000006)">
                            <g>
                                <g class="typst-text" transform="matrix(1 0 0 -1 0 8.976000000000003)">
                                    <use xlink:href="#gD7BC2388059FC0B3DF9C32F4768A0A47" x="10.56" y="0" fill="#ffffff" fill-rule="nonzero"/>
                                </g>
                            </g>
                        </g>
                        <g class="typst-group" transform="matrix(1 0 0 1 76.64 54.464000000000006)">
                            <g/>
                        </g>
                    </g>
                </g>
                <g class="typst-group">
                    <g>
                        <g class="typst-group" transform="matrix(1 0 0 1 8 77.696)">
                            <g/>
                        </g>
                        <g class="typst-group" transform="matrix(1 0 0 1 8 77.696)">
                            <g/>
                        </g>
                        <g class="typst-group" transform="matrix(1 0 0 1 8 77.696)">
                            <g/>
                        </g>
                        <g class="typst-group" transform="matrix(1 0 0 1 8 66.08)">
                            <g>
                                <g class="typst-text" transform="matrix(1 0 0 -1 0 8.976000000000003)">
                                    <use xlink:href="#gF487734A8DAA53A2D2317E425E86F6B1" x="5.28" y="0" fill="#ff0000" fill-rule="nonzero"/>
                                </g>
                            </g>
                        </g>
                        <g class="typst-group" transform="matrix(1 0 0 1 34.4 66.08)">
                            <g>
                                <g class="typst-text" transform="matrix(1 0 0 -1 0 8.976000000000003)">
                                    <use xlink:href="#g1DC2B9F958B9FBE8E8310F083FFEC1D6" x="0" y="0" fill="#ffffff" fill-rule="nonzero"/>
                                    <use xlink:href="#gB3CB5C71C376FEAC35A5CE3E9D70B056" x="5.28" y="0" fill="#ffffff" fill-rule="nonzero"/>
                                    <use xlink:href="#gCCDBD5FC51A6BA89CB64A6B230E95E13" x="10.56" y="0" fill="#ffffff" fill-rule="nonzero"/>
                                </g>
                            </g>
                        </g>
                        <g class="typst-group" transform="matrix(1 0 0 1 50.24 66.08)">
                            <g>
                                <g class="typst-text" transform="matrix(1 0 0 -1 0 8.976000000000003)">
                                    <use xlink:href="#gCCDBD5FC51A6BA89CB64A6B230E95E13" x="5.28" y="0" fill="#ff0000" fill-rule="nonzero"/>
                                </g>
                            </g>
                        </g>
                        <g class="typst-group" transform="matrix(1 0 0 1 60.800000000000004 66.08)">
                            <g>
                                <g class="typst-text" transform="matrix(1 0 0 -1 0 8.976000000000003)">
                                    <use xlink:href="#gF487734A8DAA53A2D2317E425E86F6B1" x="5.28" y="0" fill="#ffffff" fill-rule="nonzero"/>
                                </g>
                            </g>
                        </g>
                        <g class="typst-group" transform="matrix(1 0 0 1 76.64 66.08)">
                            <g/>
                        </g>
                    </g>
                </g>
                <g class="typst-group">
                    <g>
                        <g class="typst-group" transform="matrix(1 0 0 1 8 89.31200000000001)">
                            <g/>
                        </g>
                        <g class="typst-group" transform="matrix(1 0 0 1 8 89.31200000000001)">
                            <g/>
                        </g>
                        <g class="typst-group" transform="matrix(1 0 0 1 8 89.31200000000001)">
                            <g/>
                        </g>
                        <g class="typst-group" transform="matrix(1 0 0 1 8 77.69600000000001)">
                            <g>
                                <g class="typst-text" transform="matrix(1 0 0 -1 0 8.976000000000003)">
                                    <use xlink:href="#gFD5E24C590020160A507FE1B2B955D0E" x="10.56" y="0" fill="#ff0000" fill-rule="nonzero"/>
                                    <use xlink:href="#g7F30B59DCAF383D6B34C412A1FA2300E" x="15.84" y="0" fill="#ff0000" fill-rule="nonzero"/>
                                    <use xlink:href="#gB3CB5C71C376FEAC35A5CE3E9D70B056" x="21.12" y="0" fill="#ff0000" fill-rule="nonzero"/>
                                    <use xlink:href="#gB3CB5C71C376FEAC35A5CE3E9D70B056" x="26.400000000000002" y="0" fill="#ff0000" fill-rule="nonzero"/>
                                    <use xlink:href="#gB3CB5C71C376FEAC35A5CE3E9D70B056" x="31.680000000000003" y="0" fill="#ff0000" fill-rule="nonzero"/>
                                    <use xlink:href="#gB3CB5C71C376FEAC35A5CE3E9D70B056" x="36.96" y="0" fill="#ff0000" fill-rule="nonzero"/>
                                    <use xlink:href="#gB3CB5C71C376FEAC35A5CE3E9D70B056" x="42.24" y="0" fill="#ff0000" fill-rule="nonzero"/>
                                    <use xlink:href="#g7F30B59DCAF383D6B34C412A1FA2300E" x="47.52" y="0" fill="#ff0000" fill-rule="nonzero"/>
                                </g>
                            </g>
                        </g>
                        <g class="typst-group" transform="matrix(1 0 0 1 60.80000000000001 77.69600000000001)">
                            <g>
                                <g class="typst-text" transform="matrix(1 0 0 -1 0 8.976000000000003)">
                                    <use xlink:href="#gFD5E24C590020160A507FE1B2B955D0E" x="0" y="0" fill="#ffffff" fill-rule="nonzero"/>
                                </g>
                            </g>
                        </g>
                        <g class="typst-group" transform="matrix(1 0 0 1 76.64000000000001 77.69600000000001)">
                            <g/>
                        </g>
                    </g>
                </g>
                <g class="typst-group" transform="matrix(1 0 0 1 8 89.31200000000001)">
                    <g/>
                </g>
                <g class="typst-group" transform="matrix(1 0 0 1 8 100.92800000000001)">
                    <g/>
                </g>
            </g>
        </g>
    </g>
    <defs id="glyph">
        <symbol id="gB3CB5C71C376FEAC35A5CE3E9D70B056" overflow="visible">
            <path d="M 0 0m 0.528 -1.2144 v 0.9944 h 4.224 v -0.9944 h -4.224 Z "/>
        </symbol>
        <symbol id="gAA916D20060123FCDF49DDE23FB7E4B3" overflow="visible">
            <path d="M 0 0m 1.6719999 -1.408 l 0.46640015 2.6928 h 1.2584 l -0.6688001 -2.6928 h -1.056 Z "/>
        </symbol>
        <symbol id="g7F30B59DCAF383D6B34C412A1FA2300E" overflow="visible">
            <path d="M 0 0m 1.232 2.3936 v 1.0208001 h 2.816 v -1.0208001 h -2.816 Z "/>
        </symbol>
        <symbol id="gF487734A8DAA53A2D2317E425E86F6B1" overflow="visible">
            <path d="M 0 0m 2.552 3.4496 q -0.32560015 0 -0.53240013 0.2112 q -0.20679998 0.2112 -0.20679998 0.5279999 q 0 0.31680012 0.2112 0.5279999 q 0.2112 0.21120024 0.5280001 0.21120024 h 0.17599988 q 0.31680012 0 0.5280001 -0.21120024 q 0.2112 -0.21119976 0.2112 -0.5279999 q 0 -0.31679988 -0.20679998 -0.5279999 q -0.20679998 -0.2112 -0.53240013 -0.2112 h -0.17599988 Z m -0.924 -4.8576 l 0.4663999 2.6928 h 1.2584 l -0.6687999 -2.6928 h -1.056 Z "/>
        </symbol>
        <symbol id="g1DC2B9F958B9FBE8E8310F083FFEC1D6" overflow="visible">
            <path d="M 0 0m 4.268 -1.056 q -1.3376002 0.30799997 -2.068 1.21 q -0.7304001 0.902 -0.7304001 2.2308 v 1.5752001 q 0 1.3199997 0.7304001 2.2175999 q 0.73039985 0.8976002 2.068 1.2144003 v -1.0912004 q -0.78320026 -0.18479967 -1.2364001 -0.81399965 q -0.4532001 -0.6292 -0.4532001 -1.5268002 v -1.5752001 q 0 -0.89759994 0.4532001 -1.5267999 q 0.45319986 -0.6292 1.2364001 -0.814 v -1.1 Z "/>
        </symbol>
        <symbol id="gD7BC2388059FC0B3DF9C32F4768A0A47" overflow="visible">
            <path d="M 0 0m 2.0856 -0.968 v 8.272 h 1.1088002 v -8.272 h -1.1088002 Z "/>
        </symbol>
        <symbol id="gEB20B197638B23C20845973F58CB19AC" overflow="visible">
            <path d="M 0 0m 2.6399999 -0.088 q -0.36959982 0 -0.59399986 0.2244 q -0.22440004 0.2244 -0.22440004 0.5852 q 0 0.36079997 0.22440004 0.5896 q 0.22440004 0.22879994 0.59399986 0.22879994 q 0.36960006 0 0.5940001 -0.22879994 q 0.22440004 -0.22880006 0.22440004 -0.5896 q 0 -0.3608 -0.22440004 -0.5852 q -0.22440004 -0.2244 -0.5940001 -0.2244 Z "/>
        </symbol>
        <symbol id="g553CA0615203AE7EF2B51E16776E3FE0" overflow="visible">
            <path d="M 0 0m 3.5992 -0.968 l -3.0712 8.272 h 1.1439999 l 3.0712 -8.272 h -1.1439998 Z "/>
        </symbol>
        <symbol id="gF2B97E1828C86C53ED55366D14432730" overflow="visible">
            <path d="M 0 0m 2.6399999 -0.0792 q -0.9327998 0 -1.4783999 0.5236 q -0.5456 0.5236 -0.5456 1.4124 v 1.1264001 q 0 0.89759994 0.5456 1.4168 q 0.54560006 0.51919985 1.4783999 0.51919985 q 0.93280005 0 1.4784002 -0.51919985 q 0.54559994 -0.5192001 0.54559994 -1.4168 v -1.1264001 q 0 -0.88879997 -0.54559994 -1.4124 q -0.5456002 -0.5236 -1.4784002 -0.5236 Z m 0 0.9592 q 0.44000006 0 0.68200016 0.24199998 q 0.24199986 0.24199998 0.24199986 0.6996 v 1.1968 q 0 0.45760012 -0.24199986 0.6996 q -0.2420001 0.2420001 -0.68200016 0.2420001 q -0.43999982 0 -0.6819999 -0.2420001 q -0.24199998 -0.24199986 -0.24199998 -0.6996 v -1.1968 q 0 -0.4576 0.24199998 -0.6996 q 0.2420001 -0.24199998 0.6819999 -0.24199998 Z "/>
        </symbol>
        <symbol id="gFD5E24C590020160A507FE1B2B955D0E" overflow="visible">
            <path d="M 0 0m 2.1296 3.784 l -0.07920003 2.6399999 h 1.1791999 l -0.0704 -2.6399999 h -1.0295999 Z "/>
        </symbol>
        <symbol id="gCCDBD5FC51A6BA89CB64A6B230E95E13" overflow="visible">
            <path d="M 0 0m 1.012 -1.056 v 1.1 q 0.7832 0.1848 1.2364 0.814 q 0.4532001 0.62920004 0.4532001 1.5267999 v 1.5752001 q 0 0.8976002 -0.4532001 1.5268002 q -0.45319998 0.6292 -1.2364 0.81399965 v 1.0912004 q 1.3376001 -0.31680012 2.0679998 -1.2144003 q 0.7304001 -0.8976002 0.7304001 -2.2175999 v -1.5752001 q 0 -1.3288 -0.7304001 -2.2308 q -0.73039985 -0.902 -2.0679998 -1.21 Z "/>
        </symbol>
    </defs>
</svg>
