<svg class="typst-doc" viewBox="0 0 144.66645669291339 160.5064566929134" width="144.66645669291339pt" height="160.5064566929134pt" xmlns="http://www.w3.org/2000/svg" xmlns:xlink="http://www.w3.org/1999/xlink" xmlns:h5="http://www.w3.org/1999/xhtml">
    <path class="typst-shape" fill="#ffffff" fill-rule="nonzero" d="M 0 0v 160.50645 h 144.66646 v -160.50645 Z "/>
    <g>
        <g class="typst-group" transform="matrix(1 0 0 1 14.173228346456693 14.173228346456693)">
            <g>
                <path class="typst-shape" fill="#000000" fill-rule="nonzero" d="M 0 0m 0 5 c 0 -2.7614238 2.2385762 -5 5 -5 h 106.32 c 2.7614212 0 5 2.2385762 5 5 v 122.16 c 0 2.7614136 -2.2385788 5 -5 5 h -106.32 c -2.7614238 0 -5 -2.2385864 -5 -5 Z "/>
                <g class="typst-group" transform="matrix(1 0 0 1 8 19.616)">
                    <g/>
                </g>
                <g class="typst-group" transform="matrix(1 0 0 1 8 19.616)">
                    <g/>
                </g>
                <g class="typst-group" transform="matrix(1 0 0 1 8 8)">
                    <g>
                        <g class="typst-text" transform="matrix(1 0 0 -1 0 8.976000000000003)">
                            <use xlink:href="#gEB20B197638B23C20845973F58CB19AC" x="42.24" y="0" fill="#ffff00" fill-rule="nonzero"/>
                            <use xlink:href="#gBAC9D87E2F0FD46689EF3845170B46DE" x="47.52" y="0" fill="#ffff00" fill-rule="nonzero"/>
                            <use xlink:href="#gEB20B197638B23C20845973F58CB19AC" x="52.800000000000004" y="0" fill="#ffff00" fill-rule="nonzero"/>
                        </g>
                    </g>
                </g>
                <g class="typst-group" transform="matrix(1 0 0 1 108.32 8)">
                    <g/>
                </g>
                <g class="typst-group" transform="matrix(1 0 0 1 8 31.232000000000003)">
                    <g/>
                </g>
                <g class="typst-group" transform="matrix(1 0 0 1 8 31.232000000000003)">
                    <g/>
                </g>
                <g class="typst-group" transform="matrix(1 0 0 1 8 31.232000000000003)">
                    <g/>
                </g>
                <g class="typst-group" transform="matrix(1 0 0 1 8 19.616)">
                    <g>
                        <g class="typst-text" transform="matrix(1 0 0 -1 0 8.976000000000003)">
                            <use xlink:href="#g1977475DBC59169954969A1DA0562274" x="36.96" y="0" fill="#ffff00" fill-rule="nonzero"/>
                            <use xlink:href="#g361F303F8230C64E864DF8C4F1A5A1AA" x="47.52" y="0" fill="#ffff00" fill-rule="nonzero"/>
                            <use xlink:href="#gBABB587C0C2F1CAF31150EAD6104282A" x="58.080000000000005" y="0" fill="#ffff00" fill-rule="nonzero"/>
                        </g>
                    </g>
                </g>
                <g class="typst-group" transform="matrix(1 0 0 1 108.32 19.616)">
                    <g/>
                </g>
                <g class="typst-group" transform="matrix(1 0 0 1 8 42.848000000000006)">
                    <g/>
                </g>
                <g class="typst-group" transform="matrix(1 0 0 1 8 42.848000000000006)">
                    <g/>
                </g>
                <g class="typst-group" transform="matrix(1 0 0 1 8 42.848000000000006)">
                    <g/>
                </g>
                <g class="typst-group" transform="matrix(1 0 0 1 8 31.232000000000003)">
                    <g>
                        <g class="typst-text" transform="matrix(1 0 0 -1 0 8.976000000000003)">
                            <use xlink:href="#gEB20B197638B23C20845973F58CB19AC" x="0" y="0" fill="#ffff00" fill-rule="nonzero"/>
                            <use xlink:href="#g361F303F8230C64E864DF8C4F1A5A1AA" x="10.56" y="0" fill="#ffff00" fill-rule="nonzero"/>
                            <use xlink:href="#gD7A02C1C897F9E3A321398548C8C8B03" x="15.84" y="0" fill="#ffff00" fill-rule="nonzero"/>
                            <use xlink:href="#g1977475DBC59169954969A1DA0562274" x="21.12" y="0" fill="#ffff00" fill-rule="nonzero"/>
                            <use xlink:href="#gEB20B197638B23C20845973F58CB19AC" x="26.400000000000002" y="0" fill="#ffff00" fill-rule="nonzero"/>
                            <use xlink:href="#g1977475DBC59169954969A1DA0562274" x="31.680000000000003" y="0" fill="#ffff00" fill-rule="nonzero"/>
                            <use xlink:href="#gA40CBF0FFDD069C46DF04320D0CE76E2" x="42.24" y="0" fill="#ffff00" fill-rule="nonzero"/>
                            <use xlink:href="#g48D32C86791098B8FBB2A4189AB7FAA5" x="47.52" y="0" fill="#ffff00" fill-rule="nonzero"/>
                            <use xlink:href="#gA40CBF0FFDD069C46DF04320D0CE76E2" x="58.080000000000005" y="0" fill="#ffff00" fill-rule="nonzero"/>
                            <use xlink:href="#g1977475DBC59169954969A1DA0562274" x="63.36000000000001" y="0" fill="#ffff00" fill-rule="nonzero"/>
                            <use xlink:href="#gEB20B197638B23C20845973F58CB19AC" x="68.64" y="0" fill="#ffff00" fill-rule="nonzero"/>
                            <use xlink:href="#g1977475DBC59169954969A1DA0562274" x="73.92" y="0" fill="#ffff00" fill-rule="nonzero"/>
                            <use xlink:href="#gD7A02C1C897F9E3A321398548C8C8B03" x="79.2" y="0" fill="#ffff00" fill-rule="nonzero"/>
                            <use xlink:href="#g48D32C86791098B8FBB2A4189AB7FAA5" x="84.48" y="0" fill="#ffff00" fill-rule="nonzero"/>
                            <use xlink:href="#gBAC9D87E2F0FD46689EF3845170B46DE" x="89.76" y="0" fill="#ffff00" fill-rule="nonzero"/>
                            <use xlink:href="#gEB20B197638B23C20845973F58CB19AC" x="95.04" y="0" fill="#ffff00" fill-rule="nonzero"/>
                        </g>
                    </g>
                </g>
                <g class="typst-group" transform="matrix(1 0 0 1 108.32 31.232000000000003)">
                    <g/>
                </g>
                <g class="typst-group" transform="matrix(1 0 0 1 8 54.464000000000006)">
                    <g/>
                </g>
                <g class="typst-group" transform="matrix(1 0 0 1 8 54.464000000000006)">
                    <g/>
                </g>
                <g class="typst-group" transform="matrix(1 0 0 1 8 54.464000000000006)">
                    <g/>
                </g>
                <g class="typst-group" transform="matrix(1 0 0 1 8 42.848000000000006)">
                    <g>
                        <g class="typst-text" transform="matrix(1 0 0 -1 0 8.976000000000003)">
                            <use xlink:href="#gF9D31F08CF713FA33A044CE9199C2BD0" x="0" y="0" fill="#ffff00" fill-rule="nonzero"/>
                            <use xlink:href="#g1977475DBC59169954969A1DA0562274" x="5.28" y="0" fill="#ffff00" fill-rule="nonzero"/>
                            <use xlink:href="#g361F303F8230C64E864DF8C4F1A5A1AA" x="15.84" y="0" fill="#ffff00" fill-rule="nonzero"/>
                            <use xlink:href="#gBAC9D87E2F0FD46689EF3845170B46DE" x="21.12" y="0" fill="#ffff00" fill-rule="nonzero"/>
                            <use xlink:href="#gBAC9D87E2F0FD46689EF3845170B46DE" x="26.400000000000002" y="0" fill="#ffff00" fill-rule="nonzero"/>
                            <use xlink:href="#gBAC9D87E2F0FD46689EF3845170B46DE" x="31.680000000000003" y="0" fill="#ffff00" fill-rule="nonzero"/>
                            <use xlink:href="#gBAC9D87E2F0FD46689EF3845170B46DE" x="36.96" y="0" fill="#ffff00" fill-rule="nonzero"/>
                            <use xlink:href="#gBAC9D87E2F0FD46689EF3845170B46DE" x="42.24" y="0" fill="#ffff00" fill-rule="nonzero"/>
                            <use xlink:href="#g48D32C86791098B8FBB2A4189AB7FAA5" x="47.52" y="0" fill="#ffff00" fill-rule="nonzero"/>
                            <use xlink:href="#gE5CD4D26D032384EBE5391AB057B0A31" x="68.64" y="0" fill="#ffff00" fill-rule="nonzero"/>
                            <use xlink:href="#g48D32C86791098B8FBB2A4189AB7FAA5" x="73.92" y="0" fill="#ffff00" fill-rule="nonzero"/>
                            <use xlink:href="#gA40CBF0FFDD069C46DF04320D0CE76E2" x="84.48" y="0" fill="#ffff00" fill-rule="nonzero"/>
                            <use xlink:href="#g1977475DBC59169954969A1DA0562274" x="89.76" y="0" fill="#ffff00" fill-rule="nonzero"/>
                            <use xlink:href="#gF9D31F08CF713FA33A044CE9199C2BD0" x="95.04" y="0" fill="#ffff00" fill-rule="nonzero"/>
                        </g>
                    </g>
                </g>
                <g class="typst-group" transform="matrix(1 0 0 1 108.32 42.848000000000006)">
                    <g/>
                </g>
                <g class="typst-group" transform="matrix(1 0 0 1 8 66.08)">
                    <g/>
                </g>
                <g class="typst-group" transform="matrix(1 0 0 1 8 66.08)">
                    <g/>
                </g>
                <g class="typst-group" transform="matrix(1 0 0 1 8 66.08)">
                    <g/>
                </g>
                <g class="typst-group" transform="matrix(1 0 0 1 8 54.464000000000006)">
                    <g>
                        <g class="typst-text" transform="matrix(1 0 0 -1 0 8.976000000000003)">
                            <use xlink:href="#gF9D31F08CF713FA33A044CE9199C2BD0" x="5.28" y="0" fill="#ffff00" fill-rule="nonzero"/>
                            <use xlink:href="#g1977475DBC59169954969A1DA0562274" x="10.56" y="0" fill="#ffff00" fill-rule="nonzero"/>
                            <use xlink:href="#gE5CD4D26D032384EBE5391AB057B0A31" x="31.680000000000003" y="0" fill="#ffff00" fill-rule="nonzero"/>
                            <use xlink:href="#g48D32C86791098B8FBB2A4189AB7FAA5" x="36.96" y="0" fill="#ffff00" fill-rule="nonzero"/>
                            <use xlink:href="#gF9D31F08CF713FA33A044CE9199C2BD0" x="42.24" y="0" fill="#ffff00" fill-rule="nonzero"/>
                            <use xlink:href="#gF9D31F08CF713FA33A044CE9199C2BD0" x="52.800000000000004" y="0" fill="#ffff00" fill-rule="nonzero"/>
                            <use xlink:href="#g48D32C86791098B8FBB2A4189AB7FAA5" x="58.080000000000005" y="0" fill="#ffff00" fill-rule="nonzero"/>
                            <use xlink:href="#gE5CD4D26D032384EBE5391AB057B0A31" x="79.2" y="0" fill="#ffff00" fill-rule="nonzero"/>
                            <use xlink:href="#g1977475DBC59169954969A1DA0562274" x="84.48" y="0" fill="#ffff00" fill-rule="nonzero"/>
                            <use xlink:href="#gF9D31F08CF713FA33A044CE9199C2BD0" x="89.76" y="0" fill="#ffff00" fill-rule="nonzero"/>
                        </g>
                    </g>
                </g>
                <g class="typst-group" transform="matrix(1 0 0 1 108.32 54.464000000000006)">
                    <g/>
                </g>
                <g class="typst-group" transform="matrix(1 0 0 1 8 77.69600000000001)">
                    <g/>
                </g>
                <g class="typst-group" transform="matrix(1 0 0 1 8 77.69600000000001)">
                    <g/>
                </g>
                <g class="typst-group" transform="matrix(1 0 0 1 8 77.69600000000001)">
                    <g/>
                </g>
                <g class="typst-group" transform="matrix(1 0 0 1 8 66.08)">
                    <g>
                        <g class="typst-text" transform="matrix(1 0 0 -1 0 8.976000000000003)">
                            <use xlink:href="#gEB20B197638B23C20845973F58CB19AC" x="15.84" y="0" fill="#ffff00" fill-rule="nonzero"/>
                            <use xlink:href="#g1977475DBC59169954969A1DA0562274" x="21.12" y="0" fill="#ffff00" fill-rule="nonzero"/>
                            <use xlink:href="#gA40CBF0FFDD069C46DF04320D0CE76E2" x="31.680000000000003" y="0" fill="#ffff00" fill-rule="nonzero"/>
                            <use xlink:href="#gAA916D20060123FCDF49DDE23FB7E4B3" x="36.96" y="0" fill="#ffff00" fill-rule="nonzero"/>
                            <use xlink:href="#gEB20B197638B23C20845973F58CB19AC" x="42.24" y="0" fill="#ffff00" fill-rule="nonzero"/>
                            <use xlink:href="#gEB20B197638B23C20845973F58CB19AC" x="52.800000000000004" y="0" fill="#ffff00" fill-rule="nonzero"/>
                            <use xlink:href="#gAA916D20060123FCDF49DDE23FB7E4B3" x="58.080000000000005" y="0" fill="#ffff00" fill-rule="nonzero"/>
                            <use xlink:href="#gA40CBF0FFDD069C46DF04320D0CE76E2" x="68.64" y="0" fill="#ffff00" fill-rule="nonzero"/>
                            <use xlink:href="#g1977475DBC59169954969A1DA0562274" x="73.92" y="0" fill="#ffff00" fill-rule="nonzero"/>
                            <use xlink:href="#gEB20B197638B23C20845973F58CB19AC" x="79.2" y="0" fill="#ffff00" fill-rule="nonzero"/>
                        </g>
                    </g>
                </g>
                <g class="typst-group" transform="matrix(1 0 0 1 108.32 66.08)">
                    <g/>
                </g>
                <g class="typst-group" transform="matrix(1 0 0 1 8 89.31200000000001)">
                    <g/>
                </g>
                <g class="typst-group" transform="matrix(1 0 0 1 8 89.31200000000001)">
                    <g/>
                </g>
                <g class="typst-group" transform="matrix(1 0 0 1 8 89.31200000000001)">
                    <g/>
                </g>
                <g class="typst-group" transform="matrix(1 0 0 1 8 77.69600000000001)">
                    <g>
                        <g class="typst-text" transform="matrix(1 0 0 -1 0 8.976000000000003)">
                            <use xlink:href="#g1977475DBC59169954969A1DA0562274" x="10.56" y="0" fill="#ffff00" fill-rule="nonzero"/>
                            <use xlink:href="#gA40CBF0FFDD069C46DF04320D0CE76E2" x="21.12" y="0" fill="#ffff00" fill-rule="nonzero"/>
                            <use xlink:href="#g48D32C86791098B8FBB2A4189AB7FAA5" x="26.400000000000002" y="0" fill="#ffff00" fill-rule="nonzero"/>
                            <use xlink:href="#gA40CBF0FFDD069C46DF04320D0CE76E2" x="36.96" y="0" fill="#ffff00" fill-rule="nonzero"/>
                            <use xlink:href="#g1977475DBC59169954969A1DA0562274" x="42.24" y="0" fill="#ffff00" fill-rule="nonzero"/>
                            <use xlink:href="#g7F30B59DCAF383D6B34C412A1FA2300E" x="47.52" y="0" fill="#ffff00" fill-rule="nonzero"/>
                            <use xlink:href="#g1977475DBC59169954969A1DA0562274" x="52.800000000000004" y="0" fill="#ffff00" fill-rule="nonzero"/>
                            <use xlink:href="#gA40CBF0FFDD069C46DF04320D0CE76E2" x="63.36000000000001" y="0" fill="#ffff00" fill-rule="nonzero"/>
                            <use xlink:href="#g48D32C86791098B8FBB2A4189AB7FAA5" x="68.64" y="0" fill="#ffff00" fill-rule="nonzero"/>
                            <use xlink:href="#gA40CBF0FFDD069C46DF04320D0CE76E2" x="79.2" y="0" fill="#ffff00" fill-rule="nonzero"/>
                            <use xlink:href="#g1977475DBC59169954969A1DA0562274" x="84.48" y="0" fill="#ffff00" fill-rule="nonzero"/>
                        </g>
                    </g>
                </g>
                <g class="typst-group" transform="matrix(1 0 0 1 108.32 77.69600000000001)">
                    <g/>
                </g>
                <g class="typst-group" transform="matrix(1 0 0 1 8 100.92800000000001)">
                    <g/>
                </g>
                <g class="typst-group" transform="matrix(1 0 0 1 8 100.92800000000001)">
                    <g/>
                </g>
                <g class="typst-group" transform="matrix(1 0 0 1 8 100.92800000000001)">
                    <g/>
                </g>
                <g class="typst-group" transform="matrix(1 0 0 1 8 89.31200000000001)">
                    <g>
                        <g class="typst-text" transform="matrix(1 0 0 -1 0 8.976000000000003)">
                            <use xlink:href="#gEB20B197638B23C20845973F58CB19AC" x="5.28" y="0" fill="#ffff00" fill-rule="nonzero"/>
                            <use xlink:href="#g361F303F8230C64E864DF8C4F1A5A1AA" x="15.84" y="0" fill="#ffff00" fill-rule="nonzero"/>
                            <use xlink:href="#gA40CBF0FFDD069C46DF04320D0CE76E2" x="26.400000000000002" y="0" fill="#ffff00" fill-rule="nonzero"/>
                            <use xlink:href="#g1977475DBC59169954969A1DA0562274" x="31.680000000000003" y="0" fill="#ffff00" fill-rule="nonzero"/>
                            <use xlink:href="#gF9D31F08CF713FA33A044CE9199C2BD0" x="36.96" y="0" fill="#ffff00" fill-rule="nonzero"/>
                            <use xlink:href="#gF9D31F08CF713FA33A044CE9199C2BD0" x="58.080000000000005" y="0" fill="#ffff00" fill-rule="nonzero"/>
                            <use xlink:href="#g1977475DBC59169954969A1DA0562274" x="63.36000000000001" y="0" fill="#ffff00" fill-rule="nonzero"/>
                            <use xlink:href="#gA40CBF0FFDD069C46DF04320D0CE76E2" x="73.92" y="0" fill="#ffff00" fill-rule="nonzero"/>
                            <use xlink:href="#g48D32C86791098B8FBB2A4189AB7FAA5" x="79.2" y="0" fill="#ffff00" fill-rule="nonzero"/>
                            <use xlink:href="#gBAC9D87E2F0FD46689EF3845170B46DE" x="84.48" y="0" fill="#ffff00" fill-rule="nonzero"/>
                            <use xlink:href="#gEB20B197638B23C20845973F58CB19AC" x="89.76" y="0" fill="#ffff00" fill-rule="nonzero"/>
                        </g>
                    </g>
                </g>
                <g class="typst-group" transform="matrix(1 0 0 1 108.32 89.31200000000001)">
                    <g/>
                </g>
                <g class="typst-group" transform="matrix(1 0 0 1 8 112.54400000000001)">
                    <g/>
                </g>
                <g class="typst-group" transform="matrix(1 0 0 1 8 112.54400000000001)">
                    <g/>
                </g>
                <g class="typst-group" transform="matrix(1 0 0 1 8 112.54400000000001)">
                    <g/>
                </g>
                <g class="typst-group" transform="matrix(1 0 0 1 8 100.92800000000001)">
                    <g>
                        <g class="typst-text" transform="matrix(1 0 0 -1 0 8.976000000000003)">
                            <use xlink:href="#g4A697F7B3D2427F4387CA23DB72B4782" x="10.56" y="0" fill="#ffff00" fill-rule="nonzero"/>
                            <use xlink:href="#g4A697F7B3D2427F4387CA23DB72B4782" x="15.84" y="0" fill="#ffff00" fill-rule="nonzero"/>
                            <use xlink:href="#g4A697F7B3D2427F4387CA23DB72B4782" x="79.2" y="0" fill="#ffff00" fill-rule="nonzero"/>
                            <use xlink:href="#g4A697F7B3D2427F4387CA23DB72B4782" x="84.48" y="0" fill="#ffff00" fill-rule="nonzero"/>
                        </g>
                    </g>
                </g>
                <g class="typst-group" transform="matrix(1 0 0 1 108.32 100.92800000000001)">
                    <g/>
                </g>
                <g class="typst-group" transform="matrix(1 0 0 1 8 112.54400000000001)">
                    <g/>
                </g>
                <g class="typst-group" transform="matrix(1 0 0 1 8 124.16000000000001)">
                    <g/>
                </g>
            </g>
        </g>
    </g>
    <defs id="glyph">
        <symbol id="gEB20B197638B23C20845973F58CB19AC" overflow="visible">
            <path d="M 0 0m 2.6399999 -0.088 q -0.36959982 0 -0.59399986 0.2244 q -0.22440004 0.2244 -0.22440004 0.5852 q 0 0.36079997 0.22440004 0.5896 q 0.22440004 0.22879994 0.59399986 0.22879994 q 0.36960006 0 0.5940001 -0.22879994 q 0.22440004 -0.22880006 0.22440004 -0.5896 q 0 -0.3608 -0.22440004 -0.5852 q -0.22440004 -0.2244 -0.5940001 -0.2244 Z "/>
        </symbol>
        <symbol id="gBAC9D87E2F0FD46689EF3845170B46DE" overflow="visible">
            <path d="M 0 0m 0.6776 0 l 0.29919994 1.6719999 h -0.6688 v 0.74800014 h 0.79200006 l 0.27279997 1.5840001 h -0.7568 v 0.74799967 h 0.88879997 l 0.29920006 1.6719999 h 0.7743999 l -0.29919982 -1.6719999 h 1.2495999 l 0.29920006 1.6719999 h 0.77439976 l -0.29920006 -1.6719999 h 0.66880035 v -0.74799967 h -0.8008003 l -0.27279973 -1.5840001 h 0.76559997 v -0.74800014 h -0.8976002 l -0.2903998 -1.6719999 h -0.7744 l 0.29919982 1.6719999 h -1.2584 l -0.2903999 -1.6719999 h -0.7744 Z m 1.1968 2.42 h 1.2496 l 0.27279997 1.5840001 h -1.2495999 l -0.2728001 -1.5840001 Z "/>
        </symbol>
        <symbol id="g1977475DBC59169954969A1DA0562274" overflow="visible">
            <path d="M 0 0m 2.6399999 3.4584 q -0.37839985 0 -0.5983999 0.20239997 q -0.22000003 0.20239997 -0.22000003 0.5367999 q 0 0.32560015 0.22000003 0.5279999 q 0.22000003 0.20240021 0.5983999 0.20240021 q 0.3784001 0 0.5984001 -0.20240021 q 0.22000003 -0.20239973 0.22000003 -0.5279999 q 0 -0.33439994 -0.22000003 -0.5367999 q -0.22000003 -0.20239997 -0.5984001 -0.20239997 Z m 0 -3.5464 q -0.37839985 0 -0.5983999 0.2024 q -0.22000003 0.2024 -0.22000003 0.528 q 0 0.33439994 0.22000003 0.5367999 q 0.22000003 0.20240009 0.5983999 0.20240009 q 0.3784001 0 0.5984001 -0.20240009 q 0.22000003 -0.20239997 0.22000003 -0.5367999 q 0 -0.32560003 -0.22000003 -0.528 q -0.22000003 -0.2024 -0.5984001 -0.2024 Z "/>
        </symbol>
        <symbol id="g361F303F8230C64E864DF8C4F1A5A1AA" overflow="visible">
            <path d="M 0 0m -4.6024 0 l 0.29920006 1.6719999 h -0.66880035 v 0.74800014 h 0.7920003 l 0.27279997 1.5840001 h -0.7568002 v 0.74799967 h 0.88880014 l 0.29919982 1.6719999 h 0.7744 l -0.29919982 -1.6719999 h 1.2495999 l 0.29919994 1.6719999 h 0.7744 l -0.29919994 -1.6719999 h 0.6688 v -0.74799967 h -0.80079997 l -0.2728001 -1.5840001 h 0.7656 v -0.74800014 h -0.8976 l -0.29040003 -1.6719999 h -0.7743999 l 0.29919982 1.6719999 h -1.2584 l -0.29040003 -1.6719999 h -0.77439976 Z m 5.3064 3.8016 v 1.0208001 h 3.8720002 v -1.0208001 h -3.8720002 Z m -4.1096 -1.3815999 h 1.2496002 l 0.27279997 1.5840001 h -1.2496002 l -0.27279997 -1.5840001 Z m 4.1096 -0.81840014 v 1.0208001 h 3.8720002 v -1.0208001 h -3.8720002 Z "/>
        </symbol>
        <symbol id="gBABB587C0C2F1CAF31150EAD6104282A" overflow="visible">
            <path d="M 0 0m -4.6024 0 l 0.29920006 1.6719999 h -0.66880035 v 0.74800014 h 0.7920003 l 0.27279997 1.5840001 h -0.7568002 v 0.74799967 h 0.88880014 l 0.29919982 1.6719999 h 0.7744 l -0.29919982 -1.6719999 h 1.2495999 l 0.29919994 1.6719999 h 0.7744 l -0.29919994 -1.6719999 h 0.6688 v -0.74799967 h -0.80079997 l -0.2728001 -1.5840001 h 0.7656 v -0.74800014 h -0.8976 l -0.29040003 -1.6719999 h -0.7743999 l 0.29919982 1.6719999 h -1.2584 l -0.29040003 -1.6719999 h -0.77439976 Z m 7.2423997 3.6784 q -0.3607998 0 -0.58519983 0.2112 q -0.22440004 0.2112 -0.22440004 0.56319976 q 0 0.3696003 0.22440004 0.59400034 q 0.22440004 0.22440004 0.58519983 0.22440004 q 0.36080003 0 0.5852001 -0.22440004 q 0.22440004 -0.22440004 0.22440004 -0.59400034 q 0 -0.35199976 -0.22440004 -0.56319976 q -0.22440004 -0.2112 -0.5852001 -0.2112 Z m -6.0456 -1.2584 h 1.2496002 l 0.27279997 1.5840001 h -1.2496002 l -0.27279997 -1.5840001 Z m 6.0456 -1.3552 q -0.3607998 0 -0.58519983 0.21560001 q -0.22440004 0.21560001 -0.22440004 0.5676 q 0 0.36959982 0.22440004 0.58959985 q 0.22440004 0.22000003 0.58519983 0.22000003 q 0.36080003 0 0.5852001 -0.22000003 q 0.22440004 -0.22000003 0.22440004 -0.58959985 q 0 -0.352 -0.22440004 -0.5676 q -0.22440004 -0.21560001 -0.5852001 -0.21560001 Z "/>
        </symbol>
        <symbol id="gD7A02C1C897F9E3A321398548C8C8B03" overflow="visible">
            <path d="M 0 0m 1.0912 3.784 l -0.07920003 2.6399999 h 1.1792 l -0.0704 -2.6399999 h -1.0296 Z m 2.0767999 0 l -0.07920003 2.6399999 h 1.1792002 l -0.07040024 -2.6399999 h -1.0295999 Z "/>
        </symbol>
        <symbol id="gA40CBF0FFDD069C46DF04320D0CE76E2" overflow="visible">
            <path d="M 0 0m -4.3384 0 l 0.29040003 1.6719999 h -0.6687999 v 0.74800014 h 0.80079985 l 0.27279997 1.5840001 h -0.7656002 v 0.74799967 h 0.88880014 l 0.3080001 1.6719999 h 0.76559997 l -0.29920006 -1.6719999 h 1.2495999 l 0.3080001 1.6719999 h 0.76559997 l -0.2992 -1.6719999 h 1.9535999 l 0.30799997 1.6719999 h 0.76559997 l -0.29919982 -1.6719999 h 1.2495999 l 0.30799985 1.6719999 h 0.76559997 l -0.29920006 -1.6719999 h 0.66880035 v -0.74799967 h -0.8008001 l -0.2728002 -1.5840001 h 0.7656002 v -0.74800014 h -0.88880014 l -0.29920006 -1.6719999 h -0.76559997 l 0.29040003 1.6719999 h -1.2495999 l -0.29920006 -1.6719999 h -0.76559997 l 0.2904 1.6719999 h -1.9535999 l -0.29920006 -1.6719999 h -0.76559997 l 0.29040003 1.6719999 h -1.2496002 l -0.29919982 -1.6719999 h -0.76559997 Z m 1.188 2.42 h 1.2584 l 0.27279997 1.5840001 h -1.2584 l -0.27279997 -1.5840001 Z m 2.024 0 h 1.9624 l 0.27279997 1.5840001 h -1.9624 l -0.27279997 -1.5840001 Z m 2.728 0 h 1.2584 l 0.2728002 1.5840001 h -1.2584001 l -0.2728001 -1.5840001 Z "/>
        </symbol>
        <symbol id="g48D32C86791098B8FBB2A4189AB7FAA5" overflow="visible">
            <path d="M 0 0m 0.7216 3.476 v 1.0119998 h 3.8368 v -1.0119998 h -3.8368 Z m 0 -2.1560001 v 1.0120001 h 3.8368 v -1.0120001 h -3.8368 Z "/>
        </symbol>
        <symbol id="gF9D31F08CF713FA33A044CE9199C2BD0" overflow="visible">
            <path d="M 0 0m 2.2792 5.676 l -1.0208001 1.2319999 h 1.2144 l 0.9416001 -1.2319999 h -1.1352 Z "/>
        </symbol>
        <symbol id="gE5CD4D26D032384EBE5391AB057B0A31" overflow="visible">
            <path d="M 0 0m -14.8015995 0 l 0.29920006 1.6719999 h -0.66880035 v 0.74800014 h 0.8008003 l 0.2727995 1.5840001 h -0.7656002 v 0.74799967 h 0.8888006 l 0.29920006 1.6719999 h 0.77439976 l -0.29920006 -1.6719999 h 1.2495995 l 0.29920006 1.6719999 h 0.7744007 l -0.29920006 -1.6719999 h 2.3143997 l 0.29920006 1.6719999 h 0.77439976 l -0.3079996 -1.6719999 h 1.2584 l 0.29919958 1.6719999 h 0.77440023 l -0.3080001 -1.6719999 h 2.2528 l 0.3080001 1.6719999 h 0.76559997 l -0.29920006 -1.6719999 h 1.2496 l 0.30799997 1.6719999 h 0.7656 l -0.2992 -1.6719999 h 2.2528 l 0.30799997 1.6719999 h 0.76559997 l -0.29919982 -1.6719999 h 1.2495999 l 0.30799985 1.6719999 h 0.76559997 l -0.29920006 -1.6719999 h 0.66880035 v -0.74799967 h -0.8008001 l -0.2728002 -1.5840001 h 0.7656002 v -0.74800014 h -0.88880014 l -0.29920006 -1.6719999 h -0.76559997 l 0.29040003 1.6719999 h -1.2495999 l -0.29920006 -1.6719999 h -0.76559997 l 0.2904 1.6719999 h -2.2528 l -0.29920006 -1.6719999 h -0.7744 l 0.29920006 1.6719999 h -1.2495999 l -0.29920006 -1.6719999 h -0.7744 l 0.29920006 1.6719999 h -2.2528 l -0.29920006 -1.6719999 h -0.7656002 l 0.29920006 1.6719999 h -1.2583995 l -0.29920006 -1.6719999 h -0.7656002 l 0.29920006 1.6719999 h -2.3143997 l -0.29920006 -1.6719999 h -0.7744007 l 0.29920006 1.6719999 h -1.2495995 l -0.29920006 -1.6719999 h -0.77439976 Z m 16.4032 2.42 h 1.2584 l 0.2728002 1.5840001 h -1.2584001 l -0.2728001 -1.5840001 Z m -3.0272 0 h 2.2616 l 0.27279997 1.5840001 h -2.2616 l -0.2728001 -1.5840001 Z m -2.024 0 h 1.2584 l 0.27279997 1.5840001 h -1.2584 l -0.27279997 -1.5840001 Z m -3.0184 0 h 2.2528 l 0.27279997 1.5840001 h -2.2528 l -0.27279997 -1.5840001 Z m -2.0239997 0 h 1.2495995 l 0.27280045 1.5840001 h -1.2496004 l -0.2727995 -1.5840001 Z m -3.0888004 0 h 2.3143997 l 0.27280045 1.5840001 h -2.3143997 l -0.27280045 -1.5840001 Z m -2.0240002 0 h 1.2584 l 0.27280045 1.5840001 h -1.2584 l -0.27280045 -1.5840001 Z "/>
        </symbol>
        <symbol id="gAA916D20060123FCDF49DDE23FB7E4B3" overflow="visible">
            <path d="M 0 0m 1.6719999 -1.408 l 0.46640015 2.6928 h 1.2584 l -0.6688001 -2.6928 h -1.056 Z "/>
        </symbol>
        <symbol id="g7F30B59DCAF383D6B34C412A1FA2300E" overflow="visible">
            <path d="M 0 0m 1.232 2.3936 v 1.0208001 h 2.816 v -1.0208001 h -2.816 Z "/>
        </symbol>
        <symbol id="g4A697F7B3D2427F4387CA23DB72B4782" overflow="visible">
            <path d="M 0 0m 2.2792 7.128 l -1.0208001 1.2319999 h 1.2144 l 0.9416001 -1.2319999 h -1.1352 Z "/>
        </symbol>
    </defs>
</svg>
